M48
; DRILL file {KiCad 8.0.5} date 2024-09-30T01:40:27-0400
; FORMAT={-:-/ absolute / inch / decimal}
; #@! TF.CreationDate,2024-09-30T01:40:27-04:00
; #@! TF.GenerationSoftware,Kicad,Pcbnew,8.0.5
; #@! TF.FileFunction,Plated,1,2,PTH
FMAT,2
INCH
; #@! TA.AperFunction,Plated,PTH,ViaDrill
T1C0.0079
; #@! TA.AperFunction,Plated,PTH,ViaDrill
T2C0.0157
; #@! TA.AperFunction,Plated,PTH,ViaDrill
T3C0.0315
; #@! TA.AperFunction,Plated,PTH,ComponentDrill
T4C0.0315
; #@! TA.AperFunction,Plated,PTH,ComponentDrill
T5C0.0394
; #@! TA.AperFunction,Plated,PTH,ComponentDrill
T6C0.0433
; #@! TA.AperFunction,Plated,PTH,ComponentDrill
T7C0.0512
%
G90
G05
T1
X0.2421Y0.6356
X0.2854Y0.7419
X0.2933Y0.86
X0.3209Y0.7419
X0.3366Y0.8285
X0.3366Y0.7695
X0.3839Y0.86
T2
X0.1398Y0.6533
X0.1476Y0.5254
X0.2894Y0.9289
X0.4173Y1.2283
X0.5394Y1.0157
X0.561Y0.862
X0.561Y0.7478
X0.561Y0.551
X0.5728Y1.0669
X0.6309Y1.7647
X0.6398Y1.6
X0.6988Y3.3386
X0.7756Y3.7402
X0.8209Y3.2844
X0.8942Y0.8794
X0.8976Y1.6772
X0.9Y0.2795
X0.9016Y1.4803
X0.9055Y3.685
X0.9055Y3.0433
X0.9419Y3.0719
X0.9449Y3.8071
X0.9724Y3.2087
X0.9882Y3.3701
X1.0Y3.0827
X1.0748Y3.6811
X1.0827Y3.5669
X1.0945Y1.9016
X1.1339Y3.5669
X1.1496Y1.7913
X1.185Y3.5669
X1.2343Y2.5217
X1.248Y3.7402
X1.2677Y3.4173
X1.2794Y1.9134
X1.2795Y1.4685
X1.2953Y3.1276
X1.327Y1.9644
X1.3289Y2.0136
X1.46Y1.64
X1.7795Y3.2362
X1.96Y1.38
X1.9764Y0.0827
X1.9764Y1.9437
X1.9795Y2.0
X1.9798Y2.0926
X1.98Y1.9
X1.98Y1.32
X1.98Y1.28
X1.98Y1.18
X1.98Y1.14
X1.98Y1.0
X1.9803Y2.053
X2.04Y2.2
X2.08Y1.137
X2.12Y1.18
X2.24Y1.34
T3
X1.5827Y3.7992
X1.9961Y3.8071
T4
X0.2437Y3.4685
X0.5437Y3.4685
X2.0433Y2.6028
X2.0433Y2.3028
T5
X0.1417Y2.4193
X0.1417Y2.3193
X0.1417Y2.2193
X0.1417Y2.1193
X0.1417Y2.0193
X0.1417Y1.9193
X0.1417Y1.8193
X0.1417Y1.7193
X0.1417Y1.6193
X0.1417Y1.5193
X0.2441Y3.1063
X0.5087Y3.7094
X0.5433Y3.1063
X0.6087Y3.7094
X0.7869Y1.5669
X0.7869Y1.4669
X0.7869Y1.3669
X0.7869Y1.2669
X0.7869Y1.1669
X0.7869Y1.0669
X0.7869Y0.9669
X0.7869Y0.8669
X0.7869Y0.7669
X0.7869Y0.6669
X0.7869Y0.5669
X0.7869Y0.4669
X0.7869Y0.3669
X0.7869Y0.2669
X0.7869Y0.1669
X1.3869Y1.5669
X1.3869Y1.4669
X1.3869Y1.3669
X1.3869Y1.2669
X1.3869Y1.1669
X1.3869Y1.0669
X1.3869Y0.9669
X1.3869Y0.8669
X1.3869Y0.7669
X1.3869Y0.6669
X1.3869Y0.5669
X1.3869Y0.4669
X1.3869Y0.3669
X1.3869Y0.2669
X1.3869Y0.1669
X2.3075Y0.8055
X2.3091Y1.5827
X2.3146Y2.3559
X2.315Y3.1299
X2.3622Y0.9378
X2.3622Y0.6732
X2.3638Y1.715
X2.3638Y1.4504
X2.3693Y2.4882
X2.3693Y2.2236
X2.3697Y3.2622
X2.3697Y2.9976
X2.6268Y0.9378
X2.6268Y0.6732
X2.6283Y1.715
X2.6283Y1.4504
X2.6339Y2.4882
X2.6339Y2.2236
X2.6343Y3.2622
X2.6343Y2.9976
X2.6815Y0.8055
X2.6831Y1.5827
X2.6886Y2.3559
X2.689Y3.1299
T6
X0.6378Y2.7795
X0.7378Y2.7795
X0.8378Y2.7795
X1.1283Y2.9276
X1.2283Y2.9276
X1.3283Y2.9276
T7
X1.6134Y2.848
X1.6134Y2.248
X1.9134Y2.948
X1.9134Y2.648
X1.9134Y2.248
M30
