%TF.GenerationSoftware,KiCad,Pcbnew,8.0.5*%
%TF.CreationDate,2024-09-24T11:15:38-04:00*%
%TF.ProjectId,BREAD_Slice,42524541-445f-4536-9c69-63652e6b6963,rev?*%
%TF.SameCoordinates,PX74eba40PY8552dc0*%
%TF.FileFunction,Legend,Top*%
%TF.FilePolarity,Positive*%
%FSLAX46Y46*%
G04 Gerber Fmt 4.6, Leading zero omitted, Abs format (unit mm)*
G04 Created by KiCad (PCBNEW 8.0.5) date 2024-09-24 11:15:38*
%MOMM*%
%LPD*%
G01*
G04 APERTURE LIST*
%ADD10C,0.150000*%
%ADD11C,0.100000*%
%ADD12C,0.254000*%
%ADD13C,0.120000*%
%ADD14C,0.010000*%
%ADD15C,0.177800*%
%ADD16C,0.200000*%
G04 APERTURE END LIST*
D10*
X6686666Y51677610D02*
X6610476Y51715705D01*
X6610476Y51715705D02*
X6496190Y51715705D01*
X6496190Y51715705D02*
X6381904Y51677610D01*
X6381904Y51677610D02*
X6305714Y51601420D01*
X6305714Y51601420D02*
X6267619Y51525229D01*
X6267619Y51525229D02*
X6229523Y51372848D01*
X6229523Y51372848D02*
X6229523Y51258562D01*
X6229523Y51258562D02*
X6267619Y51106181D01*
X6267619Y51106181D02*
X6305714Y51029991D01*
X6305714Y51029991D02*
X6381904Y50953800D01*
X6381904Y50953800D02*
X6496190Y50915705D01*
X6496190Y50915705D02*
X6572381Y50915705D01*
X6572381Y50915705D02*
X6686666Y50953800D01*
X6686666Y50953800D02*
X6724762Y50991896D01*
X6724762Y50991896D02*
X6724762Y51258562D01*
X6724762Y51258562D02*
X6572381Y51258562D01*
X7067619Y50915705D02*
X7067619Y51715705D01*
X7067619Y51715705D02*
X7524762Y50915705D01*
X7524762Y50915705D02*
X7524762Y51715705D01*
X7905714Y50915705D02*
X7905714Y51715705D01*
X7905714Y51715705D02*
X8096190Y51715705D01*
X8096190Y51715705D02*
X8210476Y51677610D01*
X8210476Y51677610D02*
X8286666Y51601420D01*
X8286666Y51601420D02*
X8324761Y51525229D01*
X8324761Y51525229D02*
X8362857Y51372848D01*
X8362857Y51372848D02*
X8362857Y51258562D01*
X8362857Y51258562D02*
X8324761Y51106181D01*
X8324761Y51106181D02*
X8286666Y51029991D01*
X8286666Y51029991D02*
X8210476Y50953800D01*
X8210476Y50953800D02*
X8096190Y50915705D01*
X8096190Y50915705D02*
X7905714Y50915705D01*
X55157142Y3145181D02*
X54680952Y3145181D01*
X54680952Y3145181D02*
X54680952Y4145181D01*
X55490476Y3668991D02*
X55823809Y3668991D01*
X55966666Y3145181D02*
X55490476Y3145181D01*
X55490476Y3145181D02*
X55490476Y4145181D01*
X55490476Y4145181D02*
X55966666Y4145181D01*
X56395238Y3145181D02*
X56395238Y4145181D01*
X56395238Y4145181D02*
X56633333Y4145181D01*
X56633333Y4145181D02*
X56776190Y4097562D01*
X56776190Y4097562D02*
X56871428Y4002324D01*
X56871428Y4002324D02*
X56919047Y3907086D01*
X56919047Y3907086D02*
X56966666Y3716610D01*
X56966666Y3716610D02*
X56966666Y3573753D01*
X56966666Y3573753D02*
X56919047Y3383277D01*
X56919047Y3383277D02*
X56871428Y3288039D01*
X56871428Y3288039D02*
X56776190Y3192800D01*
X56776190Y3192800D02*
X56633333Y3145181D01*
X56633333Y3145181D02*
X56395238Y3145181D01*
X6686666Y40765705D02*
X6229523Y40765705D01*
X6458095Y40765705D02*
X6458095Y41565705D01*
X6458095Y41565705D02*
X6381904Y41451420D01*
X6381904Y41451420D02*
X6305714Y41375229D01*
X6305714Y41375229D02*
X6229523Y41337134D01*
X6991428Y41489515D02*
X7029524Y41527610D01*
X7029524Y41527610D02*
X7105714Y41565705D01*
X7105714Y41565705D02*
X7296190Y41565705D01*
X7296190Y41565705D02*
X7372381Y41527610D01*
X7372381Y41527610D02*
X7410476Y41489515D01*
X7410476Y41489515D02*
X7448571Y41413324D01*
X7448571Y41413324D02*
X7448571Y41337134D01*
X7448571Y41337134D02*
X7410476Y41222848D01*
X7410476Y41222848D02*
X6953333Y40765705D01*
X6953333Y40765705D02*
X7448571Y40765705D01*
X7677143Y41565705D02*
X7943810Y40765705D01*
X7943810Y40765705D02*
X8210476Y41565705D01*
X6229523Y45903800D02*
X6343809Y45865705D01*
X6343809Y45865705D02*
X6534285Y45865705D01*
X6534285Y45865705D02*
X6610476Y45903800D01*
X6610476Y45903800D02*
X6648571Y45941896D01*
X6648571Y45941896D02*
X6686666Y46018086D01*
X6686666Y46018086D02*
X6686666Y46094277D01*
X6686666Y46094277D02*
X6648571Y46170467D01*
X6648571Y46170467D02*
X6610476Y46208562D01*
X6610476Y46208562D02*
X6534285Y46246658D01*
X6534285Y46246658D02*
X6381904Y46284753D01*
X6381904Y46284753D02*
X6305714Y46322848D01*
X6305714Y46322848D02*
X6267619Y46360943D01*
X6267619Y46360943D02*
X6229523Y46437134D01*
X6229523Y46437134D02*
X6229523Y46513324D01*
X6229523Y46513324D02*
X6267619Y46589515D01*
X6267619Y46589515D02*
X6305714Y46627610D01*
X6305714Y46627610D02*
X6381904Y46665705D01*
X6381904Y46665705D02*
X6572381Y46665705D01*
X6572381Y46665705D02*
X6686666Y46627610D01*
X7181905Y46246658D02*
X7181905Y45865705D01*
X6915238Y46665705D02*
X7181905Y46246658D01*
X7181905Y46246658D02*
X7448571Y46665705D01*
X7715238Y45865705D02*
X7715238Y46665705D01*
X7715238Y46665705D02*
X8172381Y45865705D01*
X8172381Y45865705D02*
X8172381Y46665705D01*
X9010476Y45941896D02*
X8972380Y45903800D01*
X8972380Y45903800D02*
X8858095Y45865705D01*
X8858095Y45865705D02*
X8781904Y45865705D01*
X8781904Y45865705D02*
X8667618Y45903800D01*
X8667618Y45903800D02*
X8591428Y45979991D01*
X8591428Y45979991D02*
X8553333Y46056181D01*
X8553333Y46056181D02*
X8515237Y46208562D01*
X8515237Y46208562D02*
X8515237Y46322848D01*
X8515237Y46322848D02*
X8553333Y46475229D01*
X8553333Y46475229D02*
X8591428Y46551420D01*
X8591428Y46551420D02*
X8667618Y46627610D01*
X8667618Y46627610D02*
X8781904Y46665705D01*
X8781904Y46665705D02*
X8858095Y46665705D01*
X8858095Y46665705D02*
X8972380Y46627610D01*
X8972380Y46627610D02*
X9010476Y46589515D01*
X6686666Y39027610D02*
X6610476Y39065705D01*
X6610476Y39065705D02*
X6496190Y39065705D01*
X6496190Y39065705D02*
X6381904Y39027610D01*
X6381904Y39027610D02*
X6305714Y38951420D01*
X6305714Y38951420D02*
X6267619Y38875229D01*
X6267619Y38875229D02*
X6229523Y38722848D01*
X6229523Y38722848D02*
X6229523Y38608562D01*
X6229523Y38608562D02*
X6267619Y38456181D01*
X6267619Y38456181D02*
X6305714Y38379991D01*
X6305714Y38379991D02*
X6381904Y38303800D01*
X6381904Y38303800D02*
X6496190Y38265705D01*
X6496190Y38265705D02*
X6572381Y38265705D01*
X6572381Y38265705D02*
X6686666Y38303800D01*
X6686666Y38303800D02*
X6724762Y38341896D01*
X6724762Y38341896D02*
X6724762Y38608562D01*
X6724762Y38608562D02*
X6572381Y38608562D01*
X7067619Y38265705D02*
X7067619Y39065705D01*
X7067619Y39065705D02*
X7524762Y38265705D01*
X7524762Y38265705D02*
X7524762Y39065705D01*
X7905714Y38265705D02*
X7905714Y39065705D01*
X7905714Y39065705D02*
X8096190Y39065705D01*
X8096190Y39065705D02*
X8210476Y39027610D01*
X8210476Y39027610D02*
X8286666Y38951420D01*
X8286666Y38951420D02*
X8324761Y38875229D01*
X8324761Y38875229D02*
X8362857Y38722848D01*
X8362857Y38722848D02*
X8362857Y38608562D01*
X8362857Y38608562D02*
X8324761Y38456181D01*
X8324761Y38456181D02*
X8286666Y38379991D01*
X8286666Y38379991D02*
X8210476Y38303800D01*
X8210476Y38303800D02*
X8096190Y38265705D01*
X8096190Y38265705D02*
X7905714Y38265705D01*
X8071906Y35905888D02*
X8024287Y35763031D01*
X8024287Y35763031D02*
X7976668Y35715412D01*
X7976668Y35715412D02*
X7881430Y35667793D01*
X7881430Y35667793D02*
X7738573Y35667793D01*
X7738573Y35667793D02*
X7643335Y35715412D01*
X7643335Y35715412D02*
X7595716Y35763031D01*
X7595716Y35763031D02*
X7548096Y35858269D01*
X7548096Y35858269D02*
X7548096Y36239221D01*
X7548096Y36239221D02*
X8548096Y36239221D01*
X8548096Y36239221D02*
X8548096Y35905888D01*
X8548096Y35905888D02*
X8500477Y35810650D01*
X8500477Y35810650D02*
X8452858Y35763031D01*
X8452858Y35763031D02*
X8357620Y35715412D01*
X8357620Y35715412D02*
X8262382Y35715412D01*
X8262382Y35715412D02*
X8167144Y35763031D01*
X8167144Y35763031D02*
X8119525Y35810650D01*
X8119525Y35810650D02*
X8071906Y35905888D01*
X8071906Y35905888D02*
X8071906Y36239221D01*
X7548096Y34667793D02*
X8024287Y35001126D01*
X7548096Y35239221D02*
X8548096Y35239221D01*
X8548096Y35239221D02*
X8548096Y34858269D01*
X8548096Y34858269D02*
X8500477Y34763031D01*
X8500477Y34763031D02*
X8452858Y34715412D01*
X8452858Y34715412D02*
X8357620Y34667793D01*
X8357620Y34667793D02*
X8214763Y34667793D01*
X8214763Y34667793D02*
X8119525Y34715412D01*
X8119525Y34715412D02*
X8071906Y34763031D01*
X8071906Y34763031D02*
X8024287Y34858269D01*
X8024287Y34858269D02*
X8024287Y35239221D01*
X8071906Y34239221D02*
X8071906Y33905888D01*
X7548096Y33763031D02*
X7548096Y34239221D01*
X7548096Y34239221D02*
X8548096Y34239221D01*
X8548096Y34239221D02*
X8548096Y33763031D01*
X7833811Y33382078D02*
X7833811Y32905888D01*
X7548096Y33477316D02*
X8548096Y33143983D01*
X8548096Y33143983D02*
X7548096Y32810650D01*
X7548096Y32477316D02*
X8548096Y32477316D01*
X8548096Y32477316D02*
X8548096Y32239221D01*
X8548096Y32239221D02*
X8500477Y32096364D01*
X8500477Y32096364D02*
X8405239Y32001126D01*
X8405239Y32001126D02*
X8310001Y31953507D01*
X8310001Y31953507D02*
X8119525Y31905888D01*
X8119525Y31905888D02*
X7976668Y31905888D01*
X7976668Y31905888D02*
X7786192Y31953507D01*
X7786192Y31953507D02*
X7690954Y32001126D01*
X7690954Y32001126D02*
X7595716Y32096364D01*
X7595716Y32096364D02*
X7548096Y32239221D01*
X7548096Y32239221D02*
X7548096Y32477316D01*
X7595716Y30763030D02*
X7548096Y30620173D01*
X7548096Y30620173D02*
X7548096Y30382078D01*
X7548096Y30382078D02*
X7595716Y30286840D01*
X7595716Y30286840D02*
X7643335Y30239221D01*
X7643335Y30239221D02*
X7738573Y30191602D01*
X7738573Y30191602D02*
X7833811Y30191602D01*
X7833811Y30191602D02*
X7929049Y30239221D01*
X7929049Y30239221D02*
X7976668Y30286840D01*
X7976668Y30286840D02*
X8024287Y30382078D01*
X8024287Y30382078D02*
X8071906Y30572554D01*
X8071906Y30572554D02*
X8119525Y30667792D01*
X8119525Y30667792D02*
X8167144Y30715411D01*
X8167144Y30715411D02*
X8262382Y30763030D01*
X8262382Y30763030D02*
X8357620Y30763030D01*
X8357620Y30763030D02*
X8452858Y30715411D01*
X8452858Y30715411D02*
X8500477Y30667792D01*
X8500477Y30667792D02*
X8548096Y30572554D01*
X8548096Y30572554D02*
X8548096Y30334459D01*
X8548096Y30334459D02*
X8500477Y30191602D01*
X7548096Y29620173D02*
X7595716Y29715411D01*
X7595716Y29715411D02*
X7690954Y29763030D01*
X7690954Y29763030D02*
X8548096Y29763030D01*
X7548096Y29239220D02*
X8214763Y29239220D01*
X8548096Y29239220D02*
X8500477Y29286839D01*
X8500477Y29286839D02*
X8452858Y29239220D01*
X8452858Y29239220D02*
X8500477Y29191601D01*
X8500477Y29191601D02*
X8548096Y29239220D01*
X8548096Y29239220D02*
X8452858Y29239220D01*
X7595716Y28334459D02*
X7548096Y28429697D01*
X7548096Y28429697D02*
X7548096Y28620173D01*
X7548096Y28620173D02*
X7595716Y28715411D01*
X7595716Y28715411D02*
X7643335Y28763030D01*
X7643335Y28763030D02*
X7738573Y28810649D01*
X7738573Y28810649D02*
X8024287Y28810649D01*
X8024287Y28810649D02*
X8119525Y28763030D01*
X8119525Y28763030D02*
X8167144Y28715411D01*
X8167144Y28715411D02*
X8214763Y28620173D01*
X8214763Y28620173D02*
X8214763Y28429697D01*
X8214763Y28429697D02*
X8167144Y28334459D01*
X7595716Y27524935D02*
X7548096Y27620173D01*
X7548096Y27620173D02*
X7548096Y27810649D01*
X7548096Y27810649D02*
X7595716Y27905887D01*
X7595716Y27905887D02*
X7690954Y27953506D01*
X7690954Y27953506D02*
X8071906Y27953506D01*
X8071906Y27953506D02*
X8167144Y27905887D01*
X8167144Y27905887D02*
X8214763Y27810649D01*
X8214763Y27810649D02*
X8214763Y27620173D01*
X8214763Y27620173D02*
X8167144Y27524935D01*
X8167144Y27524935D02*
X8071906Y27477316D01*
X8071906Y27477316D02*
X7976668Y27477316D01*
X7976668Y27477316D02*
X7881430Y27953506D01*
X6938152Y36382078D02*
X6938152Y35810650D01*
X5938152Y36096364D02*
X6938152Y36096364D01*
X5985772Y35096364D02*
X5938152Y35191602D01*
X5938152Y35191602D02*
X5938152Y35382078D01*
X5938152Y35382078D02*
X5985772Y35477316D01*
X5985772Y35477316D02*
X6081010Y35524935D01*
X6081010Y35524935D02*
X6461962Y35524935D01*
X6461962Y35524935D02*
X6557200Y35477316D01*
X6557200Y35477316D02*
X6604819Y35382078D01*
X6604819Y35382078D02*
X6604819Y35191602D01*
X6604819Y35191602D02*
X6557200Y35096364D01*
X6557200Y35096364D02*
X6461962Y35048745D01*
X6461962Y35048745D02*
X6366724Y35048745D01*
X6366724Y35048745D02*
X6271486Y35524935D01*
X5938152Y34620173D02*
X6604819Y34620173D01*
X6509581Y34620173D02*
X6557200Y34572554D01*
X6557200Y34572554D02*
X6604819Y34477316D01*
X6604819Y34477316D02*
X6604819Y34334459D01*
X6604819Y34334459D02*
X6557200Y34239221D01*
X6557200Y34239221D02*
X6461962Y34191602D01*
X6461962Y34191602D02*
X5938152Y34191602D01*
X6461962Y34191602D02*
X6557200Y34143983D01*
X6557200Y34143983D02*
X6604819Y34048745D01*
X6604819Y34048745D02*
X6604819Y33905888D01*
X6604819Y33905888D02*
X6557200Y33810649D01*
X6557200Y33810649D02*
X6461962Y33763030D01*
X6461962Y33763030D02*
X5938152Y33763030D01*
X6604819Y33286840D02*
X5604819Y33286840D01*
X6557200Y33286840D02*
X6604819Y33191602D01*
X6604819Y33191602D02*
X6604819Y33001126D01*
X6604819Y33001126D02*
X6557200Y32905888D01*
X6557200Y32905888D02*
X6509581Y32858269D01*
X6509581Y32858269D02*
X6414343Y32810650D01*
X6414343Y32810650D02*
X6128629Y32810650D01*
X6128629Y32810650D02*
X6033391Y32858269D01*
X6033391Y32858269D02*
X5985772Y32905888D01*
X5985772Y32905888D02*
X5938152Y33001126D01*
X5938152Y33001126D02*
X5938152Y33191602D01*
X5938152Y33191602D02*
X5985772Y33286840D01*
X5938152Y32239221D02*
X5985772Y32334459D01*
X5985772Y32334459D02*
X6081010Y32382078D01*
X6081010Y32382078D02*
X6938152Y32382078D01*
X5938152Y31429697D02*
X6461962Y31429697D01*
X6461962Y31429697D02*
X6557200Y31477316D01*
X6557200Y31477316D02*
X6604819Y31572554D01*
X6604819Y31572554D02*
X6604819Y31763030D01*
X6604819Y31763030D02*
X6557200Y31858268D01*
X5985772Y31429697D02*
X5938152Y31524935D01*
X5938152Y31524935D02*
X5938152Y31763030D01*
X5938152Y31763030D02*
X5985772Y31858268D01*
X5985772Y31858268D02*
X6081010Y31905887D01*
X6081010Y31905887D02*
X6176248Y31905887D01*
X6176248Y31905887D02*
X6271486Y31858268D01*
X6271486Y31858268D02*
X6319105Y31763030D01*
X6319105Y31763030D02*
X6319105Y31524935D01*
X6319105Y31524935D02*
X6366724Y31429697D01*
X6604819Y31096363D02*
X6604819Y30715411D01*
X6938152Y30953506D02*
X6081010Y30953506D01*
X6081010Y30953506D02*
X5985772Y30905887D01*
X5985772Y30905887D02*
X5938152Y30810649D01*
X5938152Y30810649D02*
X5938152Y30715411D01*
X5985772Y30001125D02*
X5938152Y30096363D01*
X5938152Y30096363D02*
X5938152Y30286839D01*
X5938152Y30286839D02*
X5985772Y30382077D01*
X5985772Y30382077D02*
X6081010Y30429696D01*
X6081010Y30429696D02*
X6461962Y30429696D01*
X6461962Y30429696D02*
X6557200Y30382077D01*
X6557200Y30382077D02*
X6604819Y30286839D01*
X6604819Y30286839D02*
X6604819Y30096363D01*
X6604819Y30096363D02*
X6557200Y30001125D01*
X6557200Y30001125D02*
X6461962Y29953506D01*
X6461962Y29953506D02*
X6366724Y29953506D01*
X6366724Y29953506D02*
X6271486Y30429696D01*
X4375828Y36286840D02*
X4328208Y36143983D01*
X4328208Y36143983D02*
X4328208Y35905888D01*
X4328208Y35905888D02*
X4375828Y35810650D01*
X4375828Y35810650D02*
X4423447Y35763031D01*
X4423447Y35763031D02*
X4518685Y35715412D01*
X4518685Y35715412D02*
X4613923Y35715412D01*
X4613923Y35715412D02*
X4709161Y35763031D01*
X4709161Y35763031D02*
X4756780Y35810650D01*
X4756780Y35810650D02*
X4804399Y35905888D01*
X4804399Y35905888D02*
X4852018Y36096364D01*
X4852018Y36096364D02*
X4899637Y36191602D01*
X4899637Y36191602D02*
X4947256Y36239221D01*
X4947256Y36239221D02*
X5042494Y36286840D01*
X5042494Y36286840D02*
X5137732Y36286840D01*
X5137732Y36286840D02*
X5232970Y36239221D01*
X5232970Y36239221D02*
X5280589Y36191602D01*
X5280589Y36191602D02*
X5328208Y36096364D01*
X5328208Y36096364D02*
X5328208Y35858269D01*
X5328208Y35858269D02*
X5280589Y35715412D01*
X4328208Y34810650D02*
X4328208Y35286840D01*
X4328208Y35286840D02*
X5328208Y35286840D01*
X4423447Y33905888D02*
X4375828Y33953507D01*
X4375828Y33953507D02*
X4328208Y34096364D01*
X4328208Y34096364D02*
X4328208Y34191602D01*
X4328208Y34191602D02*
X4375828Y34334459D01*
X4375828Y34334459D02*
X4471066Y34429697D01*
X4471066Y34429697D02*
X4566304Y34477316D01*
X4566304Y34477316D02*
X4756780Y34524935D01*
X4756780Y34524935D02*
X4899637Y34524935D01*
X4899637Y34524935D02*
X5090113Y34477316D01*
X5090113Y34477316D02*
X5185351Y34429697D01*
X5185351Y34429697D02*
X5280589Y34334459D01*
X5280589Y34334459D02*
X5328208Y34191602D01*
X5328208Y34191602D02*
X5328208Y34096364D01*
X5328208Y34096364D02*
X5280589Y33953507D01*
X5280589Y33953507D02*
X5232970Y33905888D01*
X4232970Y33715411D02*
X4232970Y32953507D01*
X5328208Y32858268D02*
X5328208Y32286840D01*
X4328208Y32572554D02*
X5328208Y32572554D01*
X4852018Y31953506D02*
X4852018Y31620173D01*
X4328208Y31477316D02*
X4328208Y31953506D01*
X4328208Y31953506D02*
X5328208Y31953506D01*
X5328208Y31953506D02*
X5328208Y31477316D01*
X4328208Y31048744D02*
X5328208Y31048744D01*
X5328208Y31048744D02*
X4613923Y30715411D01*
X4613923Y30715411D02*
X5328208Y30382078D01*
X5328208Y30382078D02*
X4328208Y30382078D01*
X4328208Y29905887D02*
X5328208Y29905887D01*
X5328208Y29905887D02*
X5328208Y29524935D01*
X5328208Y29524935D02*
X5280589Y29429697D01*
X5280589Y29429697D02*
X5232970Y29382078D01*
X5232970Y29382078D02*
X5137732Y29334459D01*
X5137732Y29334459D02*
X4994875Y29334459D01*
X4994875Y29334459D02*
X4899637Y29382078D01*
X4899637Y29382078D02*
X4852018Y29429697D01*
X4852018Y29429697D02*
X4804399Y29524935D01*
X4804399Y29524935D02*
X4804399Y29905887D01*
X3384931Y35477316D02*
X3099217Y36239221D01*
X3099217Y36239221D02*
X2813503Y35477316D01*
X3384931Y35096364D02*
X2718264Y34858269D01*
X2718264Y34858269D02*
X3384931Y34620174D01*
X2765884Y33858269D02*
X2718264Y33953507D01*
X2718264Y33953507D02*
X2718264Y34143983D01*
X2718264Y34143983D02*
X2765884Y34239221D01*
X2765884Y34239221D02*
X2861122Y34286840D01*
X2861122Y34286840D02*
X3242074Y34286840D01*
X3242074Y34286840D02*
X3337312Y34239221D01*
X3337312Y34239221D02*
X3384931Y34143983D01*
X3384931Y34143983D02*
X3384931Y33953507D01*
X3384931Y33953507D02*
X3337312Y33858269D01*
X3337312Y33858269D02*
X3242074Y33810650D01*
X3242074Y33810650D02*
X3146836Y33810650D01*
X3146836Y33810650D02*
X3051598Y34286840D01*
X2718264Y33382078D02*
X3384931Y33382078D01*
X3194455Y33382078D02*
X3289693Y33334459D01*
X3289693Y33334459D02*
X3337312Y33286840D01*
X3337312Y33286840D02*
X3384931Y33191602D01*
X3384931Y33191602D02*
X3384931Y33096364D01*
X2765884Y32810649D02*
X2718264Y32715411D01*
X2718264Y32715411D02*
X2718264Y32524935D01*
X2718264Y32524935D02*
X2765884Y32429697D01*
X2765884Y32429697D02*
X2861122Y32382078D01*
X2861122Y32382078D02*
X2908741Y32382078D01*
X2908741Y32382078D02*
X3003979Y32429697D01*
X3003979Y32429697D02*
X3051598Y32524935D01*
X3051598Y32524935D02*
X3051598Y32667792D01*
X3051598Y32667792D02*
X3099217Y32763030D01*
X3099217Y32763030D02*
X3194455Y32810649D01*
X3194455Y32810649D02*
X3242074Y32810649D01*
X3242074Y32810649D02*
X3337312Y32763030D01*
X3337312Y32763030D02*
X3384931Y32667792D01*
X3384931Y32667792D02*
X3384931Y32524935D01*
X3384931Y32524935D02*
X3337312Y32429697D01*
X2718264Y31953506D02*
X3384931Y31953506D01*
X3718264Y31953506D02*
X3670645Y32001125D01*
X3670645Y32001125D02*
X3623026Y31953506D01*
X3623026Y31953506D02*
X3670645Y31905887D01*
X3670645Y31905887D02*
X3718264Y31953506D01*
X3718264Y31953506D02*
X3623026Y31953506D01*
X2718264Y31334459D02*
X2765884Y31429697D01*
X2765884Y31429697D02*
X2813503Y31477316D01*
X2813503Y31477316D02*
X2908741Y31524935D01*
X2908741Y31524935D02*
X3194455Y31524935D01*
X3194455Y31524935D02*
X3289693Y31477316D01*
X3289693Y31477316D02*
X3337312Y31429697D01*
X3337312Y31429697D02*
X3384931Y31334459D01*
X3384931Y31334459D02*
X3384931Y31191602D01*
X3384931Y31191602D02*
X3337312Y31096364D01*
X3337312Y31096364D02*
X3289693Y31048745D01*
X3289693Y31048745D02*
X3194455Y31001126D01*
X3194455Y31001126D02*
X2908741Y31001126D01*
X2908741Y31001126D02*
X2813503Y31048745D01*
X2813503Y31048745D02*
X2765884Y31096364D01*
X2765884Y31096364D02*
X2718264Y31191602D01*
X2718264Y31191602D02*
X2718264Y31334459D01*
X3384931Y30572554D02*
X2718264Y30572554D01*
X3289693Y30572554D02*
X3337312Y30524935D01*
X3337312Y30524935D02*
X3384931Y30429697D01*
X3384931Y30429697D02*
X3384931Y30286840D01*
X3384931Y30286840D02*
X3337312Y30191602D01*
X3337312Y30191602D02*
X3242074Y30143983D01*
X3242074Y30143983D02*
X2718264Y30143983D01*
X3384931Y29667792D02*
X3099217Y28905887D01*
X3099217Y28905887D02*
X2813503Y29667792D01*
X3384931Y26905887D02*
X3099217Y27667792D01*
X3099217Y27667792D02*
X2813503Y26905887D01*
X3384931Y26524935D02*
X2718264Y26286840D01*
X3384931Y26048745D02*
X2718264Y26286840D01*
X2718264Y26286840D02*
X2480169Y26382078D01*
X2480169Y26382078D02*
X2432550Y26429697D01*
X2432550Y26429697D02*
X2384931Y26524935D01*
X2765884Y25286840D02*
X2718264Y25382078D01*
X2718264Y25382078D02*
X2718264Y25572554D01*
X2718264Y25572554D02*
X2765884Y25667792D01*
X2765884Y25667792D02*
X2861122Y25715411D01*
X2861122Y25715411D02*
X3242074Y25715411D01*
X3242074Y25715411D02*
X3337312Y25667792D01*
X3337312Y25667792D02*
X3384931Y25572554D01*
X3384931Y25572554D02*
X3384931Y25382078D01*
X3384931Y25382078D02*
X3337312Y25286840D01*
X3337312Y25286840D02*
X3242074Y25239221D01*
X3242074Y25239221D02*
X3146836Y25239221D01*
X3146836Y25239221D02*
X3051598Y25715411D01*
X2718264Y24382078D02*
X3242074Y24382078D01*
X3242074Y24382078D02*
X3337312Y24429697D01*
X3337312Y24429697D02*
X3384931Y24524935D01*
X3384931Y24524935D02*
X3384931Y24715411D01*
X3384931Y24715411D02*
X3337312Y24810649D01*
X2765884Y24382078D02*
X2718264Y24477316D01*
X2718264Y24477316D02*
X2718264Y24715411D01*
X2718264Y24715411D02*
X2765884Y24810649D01*
X2765884Y24810649D02*
X2861122Y24858268D01*
X2861122Y24858268D02*
X2956360Y24858268D01*
X2956360Y24858268D02*
X3051598Y24810649D01*
X3051598Y24810649D02*
X3099217Y24715411D01*
X3099217Y24715411D02*
X3099217Y24477316D01*
X3099217Y24477316D02*
X3146836Y24382078D01*
X2718264Y23905887D02*
X3384931Y23905887D01*
X3194455Y23905887D02*
X3289693Y23858268D01*
X3289693Y23858268D02*
X3337312Y23810649D01*
X3337312Y23810649D02*
X3384931Y23715411D01*
X3384931Y23715411D02*
X3384931Y23620173D01*
X3384931Y23286839D02*
X3099217Y22524934D01*
X3099217Y22524934D02*
X2813503Y23286839D01*
X6686666Y61877610D02*
X6610476Y61915705D01*
X6610476Y61915705D02*
X6496190Y61915705D01*
X6496190Y61915705D02*
X6381904Y61877610D01*
X6381904Y61877610D02*
X6305714Y61801420D01*
X6305714Y61801420D02*
X6267619Y61725229D01*
X6267619Y61725229D02*
X6229523Y61572848D01*
X6229523Y61572848D02*
X6229523Y61458562D01*
X6229523Y61458562D02*
X6267619Y61306181D01*
X6267619Y61306181D02*
X6305714Y61229991D01*
X6305714Y61229991D02*
X6381904Y61153800D01*
X6381904Y61153800D02*
X6496190Y61115705D01*
X6496190Y61115705D02*
X6572381Y61115705D01*
X6572381Y61115705D02*
X6686666Y61153800D01*
X6686666Y61153800D02*
X6724762Y61191896D01*
X6724762Y61191896D02*
X6724762Y61458562D01*
X6724762Y61458562D02*
X6572381Y61458562D01*
X7067619Y61115705D02*
X7067619Y61915705D01*
X7067619Y61915705D02*
X7524762Y61115705D01*
X7524762Y61115705D02*
X7524762Y61915705D01*
X7905714Y61115705D02*
X7905714Y61915705D01*
X7905714Y61915705D02*
X8096190Y61915705D01*
X8096190Y61915705D02*
X8210476Y61877610D01*
X8210476Y61877610D02*
X8286666Y61801420D01*
X8286666Y61801420D02*
X8324761Y61725229D01*
X8324761Y61725229D02*
X8362857Y61572848D01*
X8362857Y61572848D02*
X8362857Y61458562D01*
X8362857Y61458562D02*
X8324761Y61306181D01*
X8324761Y61306181D02*
X8286666Y61229991D01*
X8286666Y61229991D02*
X8210476Y61153800D01*
X8210476Y61153800D02*
X8096190Y61115705D01*
X8096190Y61115705D02*
X7905714Y61115705D01*
X6267618Y48834753D02*
X6534284Y48834753D01*
X6648570Y48415705D02*
X6267618Y48415705D01*
X6267618Y48415705D02*
X6267618Y49215705D01*
X6267618Y49215705D02*
X6648570Y49215705D01*
X6953332Y48453800D02*
X7067618Y48415705D01*
X7067618Y48415705D02*
X7258094Y48415705D01*
X7258094Y48415705D02*
X7334285Y48453800D01*
X7334285Y48453800D02*
X7372380Y48491896D01*
X7372380Y48491896D02*
X7410475Y48568086D01*
X7410475Y48568086D02*
X7410475Y48644277D01*
X7410475Y48644277D02*
X7372380Y48720467D01*
X7372380Y48720467D02*
X7334285Y48758562D01*
X7334285Y48758562D02*
X7258094Y48796658D01*
X7258094Y48796658D02*
X7105713Y48834753D01*
X7105713Y48834753D02*
X7029523Y48872848D01*
X7029523Y48872848D02*
X6991428Y48910943D01*
X6991428Y48910943D02*
X6953332Y48987134D01*
X6953332Y48987134D02*
X6953332Y49063324D01*
X6953332Y49063324D02*
X6991428Y49139515D01*
X6991428Y49139515D02*
X7029523Y49177610D01*
X7029523Y49177610D02*
X7105713Y49215705D01*
X7105713Y49215705D02*
X7296190Y49215705D01*
X7296190Y49215705D02*
X7410475Y49177610D01*
X7639047Y49215705D02*
X8096190Y49215705D01*
X7867618Y48415705D02*
X7867618Y49215705D01*
X8515238Y49215705D02*
X8667619Y49215705D01*
X8667619Y49215705D02*
X8743809Y49177610D01*
X8743809Y49177610D02*
X8820000Y49101420D01*
X8820000Y49101420D02*
X8858095Y48949039D01*
X8858095Y48949039D02*
X8858095Y48682372D01*
X8858095Y48682372D02*
X8820000Y48529991D01*
X8820000Y48529991D02*
X8743809Y48453800D01*
X8743809Y48453800D02*
X8667619Y48415705D01*
X8667619Y48415705D02*
X8515238Y48415705D01*
X8515238Y48415705D02*
X8439047Y48453800D01*
X8439047Y48453800D02*
X8362857Y48529991D01*
X8362857Y48529991D02*
X8324761Y48682372D01*
X8324761Y48682372D02*
X8324761Y48949039D01*
X8324761Y48949039D02*
X8362857Y49101420D01*
X8362857Y49101420D02*
X8439047Y49177610D01*
X8439047Y49177610D02*
X8515238Y49215705D01*
X9200952Y48415705D02*
X9200952Y49215705D01*
X9200952Y49215705D02*
X9505714Y49215705D01*
X9505714Y49215705D02*
X9581904Y49177610D01*
X9581904Y49177610D02*
X9619999Y49139515D01*
X9619999Y49139515D02*
X9658095Y49063324D01*
X9658095Y49063324D02*
X9658095Y48949039D01*
X9658095Y48949039D02*
X9619999Y48872848D01*
X9619999Y48872848D02*
X9581904Y48834753D01*
X9581904Y48834753D02*
X9505714Y48796658D01*
X9505714Y48796658D02*
X9200952Y48796658D01*
X6267619Y43315705D02*
X6267619Y44115705D01*
X6648571Y43315705D02*
X6648571Y44115705D01*
X6648571Y44115705D02*
X7105714Y43315705D01*
X7105714Y43315705D02*
X7105714Y44115705D01*
X7372380Y44115705D02*
X7829523Y44115705D01*
X7600951Y43315705D02*
X7600951Y44115705D01*
X6229523Y53503800D02*
X6343809Y53465705D01*
X6343809Y53465705D02*
X6534285Y53465705D01*
X6534285Y53465705D02*
X6610476Y53503800D01*
X6610476Y53503800D02*
X6648571Y53541896D01*
X6648571Y53541896D02*
X6686666Y53618086D01*
X6686666Y53618086D02*
X6686666Y53694277D01*
X6686666Y53694277D02*
X6648571Y53770467D01*
X6648571Y53770467D02*
X6610476Y53808562D01*
X6610476Y53808562D02*
X6534285Y53846658D01*
X6534285Y53846658D02*
X6381904Y53884753D01*
X6381904Y53884753D02*
X6305714Y53922848D01*
X6305714Y53922848D02*
X6267619Y53960943D01*
X6267619Y53960943D02*
X6229523Y54037134D01*
X6229523Y54037134D02*
X6229523Y54113324D01*
X6229523Y54113324D02*
X6267619Y54189515D01*
X6267619Y54189515D02*
X6305714Y54227610D01*
X6305714Y54227610D02*
X6381904Y54265705D01*
X6381904Y54265705D02*
X6572381Y54265705D01*
X6572381Y54265705D02*
X6686666Y54227610D01*
X7029524Y53465705D02*
X7029524Y54265705D01*
X7029524Y54265705D02*
X7220000Y54265705D01*
X7220000Y54265705D02*
X7334286Y54227610D01*
X7334286Y54227610D02*
X7410476Y54151420D01*
X7410476Y54151420D02*
X7448571Y54075229D01*
X7448571Y54075229D02*
X7486667Y53922848D01*
X7486667Y53922848D02*
X7486667Y53808562D01*
X7486667Y53808562D02*
X7448571Y53656181D01*
X7448571Y53656181D02*
X7410476Y53579991D01*
X7410476Y53579991D02*
X7334286Y53503800D01*
X7334286Y53503800D02*
X7220000Y53465705D01*
X7220000Y53465705D02*
X7029524Y53465705D01*
X7791428Y53694277D02*
X8172381Y53694277D01*
X7715238Y53465705D02*
X7981905Y54265705D01*
X7981905Y54265705D02*
X8248571Y53465705D01*
X6229523Y56053800D02*
X6343809Y56015705D01*
X6343809Y56015705D02*
X6534285Y56015705D01*
X6534285Y56015705D02*
X6610476Y56053800D01*
X6610476Y56053800D02*
X6648571Y56091896D01*
X6648571Y56091896D02*
X6686666Y56168086D01*
X6686666Y56168086D02*
X6686666Y56244277D01*
X6686666Y56244277D02*
X6648571Y56320467D01*
X6648571Y56320467D02*
X6610476Y56358562D01*
X6610476Y56358562D02*
X6534285Y56396658D01*
X6534285Y56396658D02*
X6381904Y56434753D01*
X6381904Y56434753D02*
X6305714Y56472848D01*
X6305714Y56472848D02*
X6267619Y56510943D01*
X6267619Y56510943D02*
X6229523Y56587134D01*
X6229523Y56587134D02*
X6229523Y56663324D01*
X6229523Y56663324D02*
X6267619Y56739515D01*
X6267619Y56739515D02*
X6305714Y56777610D01*
X6305714Y56777610D02*
X6381904Y56815705D01*
X6381904Y56815705D02*
X6572381Y56815705D01*
X6572381Y56815705D02*
X6686666Y56777610D01*
X7486667Y56091896D02*
X7448571Y56053800D01*
X7448571Y56053800D02*
X7334286Y56015705D01*
X7334286Y56015705D02*
X7258095Y56015705D01*
X7258095Y56015705D02*
X7143809Y56053800D01*
X7143809Y56053800D02*
X7067619Y56129991D01*
X7067619Y56129991D02*
X7029524Y56206181D01*
X7029524Y56206181D02*
X6991428Y56358562D01*
X6991428Y56358562D02*
X6991428Y56472848D01*
X6991428Y56472848D02*
X7029524Y56625229D01*
X7029524Y56625229D02*
X7067619Y56701420D01*
X7067619Y56701420D02*
X7143809Y56777610D01*
X7143809Y56777610D02*
X7258095Y56815705D01*
X7258095Y56815705D02*
X7334286Y56815705D01*
X7334286Y56815705D02*
X7448571Y56777610D01*
X7448571Y56777610D02*
X7486667Y56739515D01*
X8210476Y56015705D02*
X7829524Y56015705D01*
X7829524Y56015705D02*
X7829524Y56815705D01*
X27944009Y9892858D02*
X27944009Y10845239D01*
X28515438Y9702382D02*
X26515438Y10369048D01*
X26515438Y10369048D02*
X28515438Y11035715D01*
X28515438Y12845239D02*
X27563057Y12178572D01*
X28515438Y11702382D02*
X26515438Y11702382D01*
X26515438Y11702382D02*
X26515438Y12464287D01*
X26515438Y12464287D02*
X26610676Y12654763D01*
X26610676Y12654763D02*
X26705914Y12750001D01*
X26705914Y12750001D02*
X26896390Y12845239D01*
X26896390Y12845239D02*
X27182104Y12845239D01*
X27182104Y12845239D02*
X27372580Y12750001D01*
X27372580Y12750001D02*
X27467819Y12654763D01*
X27467819Y12654763D02*
X27563057Y12464287D01*
X27563057Y12464287D02*
X27563057Y11702382D01*
X28515438Y13702382D02*
X26515438Y13702382D01*
X26515438Y13702382D02*
X26515438Y14178572D01*
X26515438Y14178572D02*
X26610676Y14464287D01*
X26610676Y14464287D02*
X26801152Y14654763D01*
X26801152Y14654763D02*
X26991628Y14750001D01*
X26991628Y14750001D02*
X27372580Y14845239D01*
X27372580Y14845239D02*
X27658295Y14845239D01*
X27658295Y14845239D02*
X28039247Y14750001D01*
X28039247Y14750001D02*
X28229723Y14654763D01*
X28229723Y14654763D02*
X28420200Y14464287D01*
X28420200Y14464287D02*
X28515438Y14178572D01*
X28515438Y14178572D02*
X28515438Y13702382D01*
X26515438Y15702382D02*
X28134485Y15702382D01*
X28134485Y15702382D02*
X28324961Y15797620D01*
X28324961Y15797620D02*
X28420200Y15892858D01*
X28420200Y15892858D02*
X28515438Y16083334D01*
X28515438Y16083334D02*
X28515438Y16464287D01*
X28515438Y16464287D02*
X28420200Y16654763D01*
X28420200Y16654763D02*
X28324961Y16750001D01*
X28324961Y16750001D02*
X28134485Y16845239D01*
X28134485Y16845239D02*
X26515438Y16845239D01*
X28515438Y17797620D02*
X26515438Y17797620D01*
X28515438Y18750001D02*
X26515438Y18750001D01*
X26515438Y18750001D02*
X28515438Y19892858D01*
X28515438Y19892858D02*
X26515438Y19892858D01*
X26515438Y21226191D02*
X26515438Y21607144D01*
X26515438Y21607144D02*
X26610676Y21797620D01*
X26610676Y21797620D02*
X26801152Y21988096D01*
X26801152Y21988096D02*
X27182104Y22083334D01*
X27182104Y22083334D02*
X27848771Y22083334D01*
X27848771Y22083334D02*
X28229723Y21988096D01*
X28229723Y21988096D02*
X28420200Y21797620D01*
X28420200Y21797620D02*
X28515438Y21607144D01*
X28515438Y21607144D02*
X28515438Y21226191D01*
X28515438Y21226191D02*
X28420200Y21035715D01*
X28420200Y21035715D02*
X28229723Y20845239D01*
X28229723Y20845239D02*
X27848771Y20750001D01*
X27848771Y20750001D02*
X27182104Y20750001D01*
X27182104Y20750001D02*
X26801152Y20845239D01*
X26801152Y20845239D02*
X26610676Y21035715D01*
X26610676Y21035715D02*
X26515438Y21226191D01*
X28515438Y24464287D02*
X26515438Y24464287D01*
X26515438Y24464287D02*
X28515438Y25607144D01*
X28515438Y25607144D02*
X26515438Y25607144D01*
X27944009Y26464287D02*
X27944009Y27416668D01*
X28515438Y26273811D02*
X26515438Y26940477D01*
X26515438Y26940477D02*
X28515438Y27607144D01*
X28515438Y28273811D02*
X26515438Y28273811D01*
X26515438Y28273811D02*
X28515438Y29416668D01*
X28515438Y29416668D02*
X26515438Y29416668D01*
X26515438Y30750001D02*
X26515438Y31130954D01*
X26515438Y31130954D02*
X26610676Y31321430D01*
X26610676Y31321430D02*
X26801152Y31511906D01*
X26801152Y31511906D02*
X27182104Y31607144D01*
X27182104Y31607144D02*
X27848771Y31607144D01*
X27848771Y31607144D02*
X28229723Y31511906D01*
X28229723Y31511906D02*
X28420200Y31321430D01*
X28420200Y31321430D02*
X28515438Y31130954D01*
X28515438Y31130954D02*
X28515438Y30750001D01*
X28515438Y30750001D02*
X28420200Y30559525D01*
X28420200Y30559525D02*
X28229723Y30369049D01*
X28229723Y30369049D02*
X27848771Y30273811D01*
X27848771Y30273811D02*
X27182104Y30273811D01*
X27182104Y30273811D02*
X26801152Y30369049D01*
X26801152Y30369049D02*
X26610676Y30559525D01*
X26610676Y30559525D02*
X26515438Y30750001D01*
X6686666Y58565705D02*
X6229523Y58565705D01*
X6458095Y58565705D02*
X6458095Y59365705D01*
X6458095Y59365705D02*
X6381904Y59251420D01*
X6381904Y59251420D02*
X6305714Y59175229D01*
X6305714Y59175229D02*
X6229523Y59137134D01*
X6991428Y59289515D02*
X7029524Y59327610D01*
X7029524Y59327610D02*
X7105714Y59365705D01*
X7105714Y59365705D02*
X7296190Y59365705D01*
X7296190Y59365705D02*
X7372381Y59327610D01*
X7372381Y59327610D02*
X7410476Y59289515D01*
X7410476Y59289515D02*
X7448571Y59213324D01*
X7448571Y59213324D02*
X7448571Y59137134D01*
X7448571Y59137134D02*
X7410476Y59022848D01*
X7410476Y59022848D02*
X6953333Y58565705D01*
X6953333Y58565705D02*
X7448571Y58565705D01*
X7677143Y59365705D02*
X7943810Y58565705D01*
X7943810Y58565705D02*
X8210476Y59365705D01*
X16049714Y41994896D02*
X16525904Y41994896D01*
X15954476Y41709181D02*
X16287809Y42709181D01*
X16287809Y42709181D02*
X16621142Y41709181D01*
X17478285Y41709181D02*
X16906857Y41709181D01*
X17192571Y41709181D02*
X17192571Y42709181D01*
X17192571Y42709181D02*
X17097333Y42566324D01*
X17097333Y42566324D02*
X17002095Y42471086D01*
X17002095Y42471086D02*
X16906857Y42423467D01*
X26346095Y4785181D02*
X26346095Y3975658D01*
X26346095Y3975658D02*
X26393714Y3880420D01*
X26393714Y3880420D02*
X26441333Y3832800D01*
X26441333Y3832800D02*
X26536571Y3785181D01*
X26536571Y3785181D02*
X26727047Y3785181D01*
X26727047Y3785181D02*
X26822285Y3832800D01*
X26822285Y3832800D02*
X26869904Y3880420D01*
X26869904Y3880420D02*
X26917523Y3975658D01*
X26917523Y3975658D02*
X26917523Y4785181D01*
X27346095Y3832800D02*
X27488952Y3785181D01*
X27488952Y3785181D02*
X27727047Y3785181D01*
X27727047Y3785181D02*
X27822285Y3832800D01*
X27822285Y3832800D02*
X27869904Y3880420D01*
X27869904Y3880420D02*
X27917523Y3975658D01*
X27917523Y3975658D02*
X27917523Y4070896D01*
X27917523Y4070896D02*
X27869904Y4166134D01*
X27869904Y4166134D02*
X27822285Y4213753D01*
X27822285Y4213753D02*
X27727047Y4261372D01*
X27727047Y4261372D02*
X27536571Y4308991D01*
X27536571Y4308991D02*
X27441333Y4356610D01*
X27441333Y4356610D02*
X27393714Y4404229D01*
X27393714Y4404229D02*
X27346095Y4499467D01*
X27346095Y4499467D02*
X27346095Y4594705D01*
X27346095Y4594705D02*
X27393714Y4689943D01*
X27393714Y4689943D02*
X27441333Y4737562D01*
X27441333Y4737562D02*
X27536571Y4785181D01*
X27536571Y4785181D02*
X27774666Y4785181D01*
X27774666Y4785181D02*
X27917523Y4737562D01*
X28679428Y4308991D02*
X28822285Y4261372D01*
X28822285Y4261372D02*
X28869904Y4213753D01*
X28869904Y4213753D02*
X28917523Y4118515D01*
X28917523Y4118515D02*
X28917523Y3975658D01*
X28917523Y3975658D02*
X28869904Y3880420D01*
X28869904Y3880420D02*
X28822285Y3832800D01*
X28822285Y3832800D02*
X28727047Y3785181D01*
X28727047Y3785181D02*
X28346095Y3785181D01*
X28346095Y3785181D02*
X28346095Y4785181D01*
X28346095Y4785181D02*
X28679428Y4785181D01*
X28679428Y4785181D02*
X28774666Y4737562D01*
X28774666Y4737562D02*
X28822285Y4689943D01*
X28822285Y4689943D02*
X28869904Y4594705D01*
X28869904Y4594705D02*
X28869904Y4499467D01*
X28869904Y4499467D02*
X28822285Y4404229D01*
X28822285Y4404229D02*
X28774666Y4356610D01*
X28774666Y4356610D02*
X28679428Y4308991D01*
X28679428Y4308991D02*
X28346095Y4308991D01*
X666666Y59445181D02*
X666666Y58730896D01*
X666666Y58730896D02*
X619047Y58588039D01*
X619047Y58588039D02*
X523809Y58492800D01*
X523809Y58492800D02*
X380952Y58445181D01*
X380952Y58445181D02*
X285714Y58445181D01*
X1095238Y59349943D02*
X1142857Y59397562D01*
X1142857Y59397562D02*
X1238095Y59445181D01*
X1238095Y59445181D02*
X1476190Y59445181D01*
X1476190Y59445181D02*
X1571428Y59397562D01*
X1571428Y59397562D02*
X1619047Y59349943D01*
X1619047Y59349943D02*
X1666666Y59254705D01*
X1666666Y59254705D02*
X1666666Y59159467D01*
X1666666Y59159467D02*
X1619047Y59016610D01*
X1619047Y59016610D02*
X1047619Y58445181D01*
X1047619Y58445181D02*
X1666666Y58445181D01*
D11*
X5345238Y24687581D02*
X5345238Y25687581D01*
X5345238Y25211391D02*
X5916666Y25211391D01*
X5916666Y24687581D02*
X5916666Y25687581D01*
X6773809Y24735200D02*
X6678571Y24687581D01*
X6678571Y24687581D02*
X6488095Y24687581D01*
X6488095Y24687581D02*
X6392857Y24735200D01*
X6392857Y24735200D02*
X6345238Y24830439D01*
X6345238Y24830439D02*
X6345238Y25211391D01*
X6345238Y25211391D02*
X6392857Y25306629D01*
X6392857Y25306629D02*
X6488095Y25354248D01*
X6488095Y25354248D02*
X6678571Y25354248D01*
X6678571Y25354248D02*
X6773809Y25306629D01*
X6773809Y25306629D02*
X6821428Y25211391D01*
X6821428Y25211391D02*
X6821428Y25116153D01*
X6821428Y25116153D02*
X6345238Y25020915D01*
X7678571Y24687581D02*
X7678571Y25211391D01*
X7678571Y25211391D02*
X7630952Y25306629D01*
X7630952Y25306629D02*
X7535714Y25354248D01*
X7535714Y25354248D02*
X7345238Y25354248D01*
X7345238Y25354248D02*
X7250000Y25306629D01*
X7678571Y24735200D02*
X7583333Y24687581D01*
X7583333Y24687581D02*
X7345238Y24687581D01*
X7345238Y24687581D02*
X7250000Y24735200D01*
X7250000Y24735200D02*
X7202381Y24830439D01*
X7202381Y24830439D02*
X7202381Y24925677D01*
X7202381Y24925677D02*
X7250000Y25020915D01*
X7250000Y25020915D02*
X7345238Y25068534D01*
X7345238Y25068534D02*
X7583333Y25068534D01*
X7583333Y25068534D02*
X7678571Y25116153D01*
X8011905Y25354248D02*
X8392857Y25354248D01*
X8154762Y25687581D02*
X8154762Y24830439D01*
X8154762Y24830439D02*
X8202381Y24735200D01*
X8202381Y24735200D02*
X8297619Y24687581D01*
X8297619Y24687581D02*
X8392857Y24687581D01*
X9440477Y24735200D02*
X9583334Y24687581D01*
X9583334Y24687581D02*
X9821429Y24687581D01*
X9821429Y24687581D02*
X9916667Y24735200D01*
X9916667Y24735200D02*
X9964286Y24782820D01*
X9964286Y24782820D02*
X10011905Y24878058D01*
X10011905Y24878058D02*
X10011905Y24973296D01*
X10011905Y24973296D02*
X9964286Y25068534D01*
X9964286Y25068534D02*
X9916667Y25116153D01*
X9916667Y25116153D02*
X9821429Y25163772D01*
X9821429Y25163772D02*
X9630953Y25211391D01*
X9630953Y25211391D02*
X9535715Y25259010D01*
X9535715Y25259010D02*
X9488096Y25306629D01*
X9488096Y25306629D02*
X9440477Y25401867D01*
X9440477Y25401867D02*
X9440477Y25497105D01*
X9440477Y25497105D02*
X9488096Y25592343D01*
X9488096Y25592343D02*
X9535715Y25639962D01*
X9535715Y25639962D02*
X9630953Y25687581D01*
X9630953Y25687581D02*
X9869048Y25687581D01*
X9869048Y25687581D02*
X10011905Y25639962D01*
X10440477Y24687581D02*
X10440477Y25354248D01*
X10440477Y25687581D02*
X10392858Y25639962D01*
X10392858Y25639962D02*
X10440477Y25592343D01*
X10440477Y25592343D02*
X10488096Y25639962D01*
X10488096Y25639962D02*
X10440477Y25687581D01*
X10440477Y25687581D02*
X10440477Y25592343D01*
X10916667Y25354248D02*
X10916667Y24687581D01*
X10916667Y25259010D02*
X10964286Y25306629D01*
X10964286Y25306629D02*
X11059524Y25354248D01*
X11059524Y25354248D02*
X11202381Y25354248D01*
X11202381Y25354248D02*
X11297619Y25306629D01*
X11297619Y25306629D02*
X11345238Y25211391D01*
X11345238Y25211391D02*
X11345238Y24687581D01*
X11821429Y24687581D02*
X11821429Y25687581D01*
X11916667Y25068534D02*
X12202381Y24687581D01*
X12202381Y25354248D02*
X11821429Y24973296D01*
D10*
X38854819Y56261906D02*
X37854819Y56261906D01*
X38854819Y56833334D02*
X38283390Y56404763D01*
X37854819Y56833334D02*
X38426247Y56261906D01*
X38854819Y57785715D02*
X38854819Y57214287D01*
X38854819Y57500001D02*
X37854819Y57500001D01*
X37854819Y57500001D02*
X37997676Y57404763D01*
X37997676Y57404763D02*
X38092914Y57309525D01*
X38092914Y57309525D02*
X38140533Y57214287D01*
X44501285Y85368991D02*
X44644142Y85321372D01*
X44644142Y85321372D02*
X44691761Y85273753D01*
X44691761Y85273753D02*
X44739380Y85178515D01*
X44739380Y85178515D02*
X44739380Y85035658D01*
X44739380Y85035658D02*
X44691761Y84940420D01*
X44691761Y84940420D02*
X44644142Y84892800D01*
X44644142Y84892800D02*
X44548904Y84845181D01*
X44548904Y84845181D02*
X44167952Y84845181D01*
X44167952Y84845181D02*
X44167952Y85845181D01*
X44167952Y85845181D02*
X44501285Y85845181D01*
X44501285Y85845181D02*
X44596523Y85797562D01*
X44596523Y85797562D02*
X44644142Y85749943D01*
X44644142Y85749943D02*
X44691761Y85654705D01*
X44691761Y85654705D02*
X44691761Y85559467D01*
X44691761Y85559467D02*
X44644142Y85464229D01*
X44644142Y85464229D02*
X44596523Y85416610D01*
X44596523Y85416610D02*
X44501285Y85368991D01*
X44501285Y85368991D02*
X44167952Y85368991D01*
X45025095Y85845181D02*
X45596523Y85845181D01*
X45310809Y84845181D02*
X45310809Y85845181D01*
X46453666Y84845181D02*
X45882238Y84845181D01*
X46167952Y84845181D02*
X46167952Y85845181D01*
X46167952Y85845181D02*
X46072714Y85702324D01*
X46072714Y85702324D02*
X45977476Y85607086D01*
X45977476Y85607086D02*
X45882238Y85559467D01*
X51954819Y67661906D02*
X50954819Y67661906D01*
X50954819Y67661906D02*
X50954819Y67900001D01*
X50954819Y67900001D02*
X51002438Y68042858D01*
X51002438Y68042858D02*
X51097676Y68138096D01*
X51097676Y68138096D02*
X51192914Y68185715D01*
X51192914Y68185715D02*
X51383390Y68233334D01*
X51383390Y68233334D02*
X51526247Y68233334D01*
X51526247Y68233334D02*
X51716723Y68185715D01*
X51716723Y68185715D02*
X51811961Y68138096D01*
X51811961Y68138096D02*
X51907200Y68042858D01*
X51907200Y68042858D02*
X51954819Y67900001D01*
X51954819Y67900001D02*
X51954819Y67661906D01*
X51288152Y69090477D02*
X51954819Y69090477D01*
X50907200Y68852382D02*
X51621485Y68614287D01*
X51621485Y68614287D02*
X51621485Y69233334D01*
X54154819Y65848096D02*
X53154819Y65848096D01*
X54154819Y66419524D02*
X53583390Y65990953D01*
X53154819Y66419524D02*
X53726247Y65848096D01*
X55611095Y28560181D02*
X55611095Y27750658D01*
X55611095Y27750658D02*
X55658714Y27655420D01*
X55658714Y27655420D02*
X55706333Y27607800D01*
X55706333Y27607800D02*
X55801571Y27560181D01*
X55801571Y27560181D02*
X55992047Y27560181D01*
X55992047Y27560181D02*
X56087285Y27607800D01*
X56087285Y27607800D02*
X56134904Y27655420D01*
X56134904Y27655420D02*
X56182523Y27750658D01*
X56182523Y27750658D02*
X56182523Y28560181D01*
X57087285Y28560181D02*
X56896809Y28560181D01*
X56896809Y28560181D02*
X56801571Y28512562D01*
X56801571Y28512562D02*
X56753952Y28464943D01*
X56753952Y28464943D02*
X56658714Y28322086D01*
X56658714Y28322086D02*
X56611095Y28131610D01*
X56611095Y28131610D02*
X56611095Y27750658D01*
X56611095Y27750658D02*
X56658714Y27655420D01*
X56658714Y27655420D02*
X56706333Y27607800D01*
X56706333Y27607800D02*
X56801571Y27560181D01*
X56801571Y27560181D02*
X56992047Y27560181D01*
X56992047Y27560181D02*
X57087285Y27607800D01*
X57087285Y27607800D02*
X57134904Y27655420D01*
X57134904Y27655420D02*
X57182523Y27750658D01*
X57182523Y27750658D02*
X57182523Y27988753D01*
X57182523Y27988753D02*
X57134904Y28083991D01*
X57134904Y28083991D02*
X57087285Y28131610D01*
X57087285Y28131610D02*
X56992047Y28179229D01*
X56992047Y28179229D02*
X56801571Y28179229D01*
X56801571Y28179229D02*
X56706333Y28131610D01*
X56706333Y28131610D02*
X56658714Y28083991D01*
X56658714Y28083991D02*
X56611095Y27988753D01*
X12504761Y67099943D02*
X12409523Y67147562D01*
X12409523Y67147562D02*
X12314285Y67242800D01*
X12314285Y67242800D02*
X12171428Y67385658D01*
X12171428Y67385658D02*
X12076190Y67433277D01*
X12076190Y67433277D02*
X11980952Y67433277D01*
X12028571Y67195181D02*
X11933333Y67242800D01*
X11933333Y67242800D02*
X11838095Y67338039D01*
X11838095Y67338039D02*
X11790476Y67528515D01*
X11790476Y67528515D02*
X11790476Y67861848D01*
X11790476Y67861848D02*
X11838095Y68052324D01*
X11838095Y68052324D02*
X11933333Y68147562D01*
X11933333Y68147562D02*
X12028571Y68195181D01*
X12028571Y68195181D02*
X12219047Y68195181D01*
X12219047Y68195181D02*
X12314285Y68147562D01*
X12314285Y68147562D02*
X12409523Y68052324D01*
X12409523Y68052324D02*
X12457142Y67861848D01*
X12457142Y67861848D02*
X12457142Y67528515D01*
X12457142Y67528515D02*
X12409523Y67338039D01*
X12409523Y67338039D02*
X12314285Y67242800D01*
X12314285Y67242800D02*
X12219047Y67195181D01*
X12219047Y67195181D02*
X12028571Y67195181D01*
X13409523Y67195181D02*
X12838095Y67195181D01*
X13123809Y67195181D02*
X13123809Y68195181D01*
X13123809Y68195181D02*
X13028571Y68052324D01*
X13028571Y68052324D02*
X12933333Y67957086D01*
X12933333Y67957086D02*
X12838095Y67909467D01*
X62778095Y71385181D02*
X62778095Y70575658D01*
X62778095Y70575658D02*
X62825714Y70480420D01*
X62825714Y70480420D02*
X62873333Y70432800D01*
X62873333Y70432800D02*
X62968571Y70385181D01*
X62968571Y70385181D02*
X63159047Y70385181D01*
X63159047Y70385181D02*
X63254285Y70432800D01*
X63254285Y70432800D02*
X63301904Y70480420D01*
X63301904Y70480420D02*
X63349523Y70575658D01*
X63349523Y70575658D02*
X63349523Y71385181D01*
X64254285Y71051848D02*
X64254285Y70385181D01*
X64016190Y71432800D02*
X63778095Y70718515D01*
X63778095Y70718515D02*
X64397142Y70718515D01*
X24904761Y61749943D02*
X24809523Y61797562D01*
X24809523Y61797562D02*
X24714285Y61892800D01*
X24714285Y61892800D02*
X24571428Y62035658D01*
X24571428Y62035658D02*
X24476190Y62083277D01*
X24476190Y62083277D02*
X24380952Y62083277D01*
X24428571Y61845181D02*
X24333333Y61892800D01*
X24333333Y61892800D02*
X24238095Y61988039D01*
X24238095Y61988039D02*
X24190476Y62178515D01*
X24190476Y62178515D02*
X24190476Y62511848D01*
X24190476Y62511848D02*
X24238095Y62702324D01*
X24238095Y62702324D02*
X24333333Y62797562D01*
X24333333Y62797562D02*
X24428571Y62845181D01*
X24428571Y62845181D02*
X24619047Y62845181D01*
X24619047Y62845181D02*
X24714285Y62797562D01*
X24714285Y62797562D02*
X24809523Y62702324D01*
X24809523Y62702324D02*
X24857142Y62511848D01*
X24857142Y62511848D02*
X24857142Y62178515D01*
X24857142Y62178515D02*
X24809523Y61988039D01*
X24809523Y61988039D02*
X24714285Y61892800D01*
X24714285Y61892800D02*
X24619047Y61845181D01*
X24619047Y61845181D02*
X24428571Y61845181D01*
X25238095Y62749943D02*
X25285714Y62797562D01*
X25285714Y62797562D02*
X25380952Y62845181D01*
X25380952Y62845181D02*
X25619047Y62845181D01*
X25619047Y62845181D02*
X25714285Y62797562D01*
X25714285Y62797562D02*
X25761904Y62749943D01*
X25761904Y62749943D02*
X25809523Y62654705D01*
X25809523Y62654705D02*
X25809523Y62559467D01*
X25809523Y62559467D02*
X25761904Y62416610D01*
X25761904Y62416610D02*
X25190476Y61845181D01*
X25190476Y61845181D02*
X25809523Y61845181D01*
X62598095Y32005181D02*
X62598095Y31195658D01*
X62598095Y31195658D02*
X62645714Y31100420D01*
X62645714Y31100420D02*
X62693333Y31052800D01*
X62693333Y31052800D02*
X62788571Y31005181D01*
X62788571Y31005181D02*
X62979047Y31005181D01*
X62979047Y31005181D02*
X63074285Y31052800D01*
X63074285Y31052800D02*
X63121904Y31100420D01*
X63121904Y31100420D02*
X63169523Y31195658D01*
X63169523Y31195658D02*
X63169523Y32005181D01*
X63598095Y31909943D02*
X63645714Y31957562D01*
X63645714Y31957562D02*
X63740952Y32005181D01*
X63740952Y32005181D02*
X63979047Y32005181D01*
X63979047Y32005181D02*
X64074285Y31957562D01*
X64074285Y31957562D02*
X64121904Y31909943D01*
X64121904Y31909943D02*
X64169523Y31814705D01*
X64169523Y31814705D02*
X64169523Y31719467D01*
X64169523Y31719467D02*
X64121904Y31576610D01*
X64121904Y31576610D02*
X63550476Y31005181D01*
X63550476Y31005181D02*
X64169523Y31005181D01*
X49961905Y3197412D02*
X49961905Y4197412D01*
X49961905Y4197412D02*
X50200000Y4197412D01*
X50200000Y4197412D02*
X50342857Y4149793D01*
X50342857Y4149793D02*
X50438095Y4054555D01*
X50438095Y4054555D02*
X50485714Y3959317D01*
X50485714Y3959317D02*
X50533333Y3768841D01*
X50533333Y3768841D02*
X50533333Y3625984D01*
X50533333Y3625984D02*
X50485714Y3435508D01*
X50485714Y3435508D02*
X50438095Y3340270D01*
X50438095Y3340270D02*
X50342857Y3245031D01*
X50342857Y3245031D02*
X50200000Y3197412D01*
X50200000Y3197412D02*
X49961905Y3197412D01*
X51485714Y3197412D02*
X50914286Y3197412D01*
X51200000Y3197412D02*
X51200000Y4197412D01*
X51200000Y4197412D02*
X51104762Y4054555D01*
X51104762Y4054555D02*
X51009524Y3959317D01*
X51009524Y3959317D02*
X50914286Y3911698D01*
X51625750Y47246754D02*
X52198170Y46674334D01*
X52198170Y46674334D02*
X52299185Y46640662D01*
X52299185Y46640662D02*
X52366529Y46640662D01*
X52366529Y46640662D02*
X52467544Y46674334D01*
X52467544Y46674334D02*
X52602231Y46809021D01*
X52602231Y46809021D02*
X52635903Y46910036D01*
X52635903Y46910036D02*
X52635903Y46977380D01*
X52635903Y46977380D02*
X52602231Y47078395D01*
X52602231Y47078395D02*
X52029811Y47650815D01*
X52299185Y47920189D02*
X52770590Y48391593D01*
X52770590Y48391593D02*
X53174651Y47381441D01*
X62638095Y51745181D02*
X62638095Y50935658D01*
X62638095Y50935658D02*
X62685714Y50840420D01*
X62685714Y50840420D02*
X62733333Y50792800D01*
X62733333Y50792800D02*
X62828571Y50745181D01*
X62828571Y50745181D02*
X63019047Y50745181D01*
X63019047Y50745181D02*
X63114285Y50792800D01*
X63114285Y50792800D02*
X63161904Y50840420D01*
X63161904Y50840420D02*
X63209523Y50935658D01*
X63209523Y50935658D02*
X63209523Y51745181D01*
X63590476Y51745181D02*
X64209523Y51745181D01*
X64209523Y51745181D02*
X63876190Y51364229D01*
X63876190Y51364229D02*
X64019047Y51364229D01*
X64019047Y51364229D02*
X64114285Y51316610D01*
X64114285Y51316610D02*
X64161904Y51268991D01*
X64161904Y51268991D02*
X64209523Y51173753D01*
X64209523Y51173753D02*
X64209523Y50935658D01*
X64209523Y50935658D02*
X64161904Y50840420D01*
X64161904Y50840420D02*
X64114285Y50792800D01*
X64114285Y50792800D02*
X64019047Y50745181D01*
X64019047Y50745181D02*
X63733333Y50745181D01*
X63733333Y50745181D02*
X63638095Y50792800D01*
X63638095Y50792800D02*
X63590476Y50840420D01*
X9129047Y87858991D02*
X9271904Y87811372D01*
X9271904Y87811372D02*
X9319523Y87763753D01*
X9319523Y87763753D02*
X9367142Y87668515D01*
X9367142Y87668515D02*
X9367142Y87525658D01*
X9367142Y87525658D02*
X9319523Y87430420D01*
X9319523Y87430420D02*
X9271904Y87382800D01*
X9271904Y87382800D02*
X9176666Y87335181D01*
X9176666Y87335181D02*
X8795714Y87335181D01*
X8795714Y87335181D02*
X8795714Y88335181D01*
X8795714Y88335181D02*
X9129047Y88335181D01*
X9129047Y88335181D02*
X9224285Y88287562D01*
X9224285Y88287562D02*
X9271904Y88239943D01*
X9271904Y88239943D02*
X9319523Y88144705D01*
X9319523Y88144705D02*
X9319523Y88049467D01*
X9319523Y88049467D02*
X9271904Y87954229D01*
X9271904Y87954229D02*
X9224285Y87906610D01*
X9224285Y87906610D02*
X9129047Y87858991D01*
X9129047Y87858991D02*
X8795714Y87858991D01*
X9700476Y88335181D02*
X10367142Y88335181D01*
X10367142Y88335181D02*
X9700476Y87335181D01*
X9700476Y87335181D02*
X10367142Y87335181D01*
X11271904Y87335181D02*
X10700476Y87335181D01*
X10986190Y87335181D02*
X10986190Y88335181D01*
X10986190Y88335181D02*
X10890952Y88192324D01*
X10890952Y88192324D02*
X10795714Y88097086D01*
X10795714Y88097086D02*
X10700476Y88049467D01*
X5809048Y81366134D02*
X6570953Y81366134D01*
X6190000Y80985181D02*
X6190000Y81747086D01*
X10684819Y97611906D02*
X9684819Y97611906D01*
X9684819Y97611906D02*
X9684819Y97850001D01*
X9684819Y97850001D02*
X9732438Y97992858D01*
X9732438Y97992858D02*
X9827676Y98088096D01*
X9827676Y98088096D02*
X9922914Y98135715D01*
X9922914Y98135715D02*
X10113390Y98183334D01*
X10113390Y98183334D02*
X10256247Y98183334D01*
X10256247Y98183334D02*
X10446723Y98135715D01*
X10446723Y98135715D02*
X10541961Y98088096D01*
X10541961Y98088096D02*
X10637200Y97992858D01*
X10637200Y97992858D02*
X10684819Y97850001D01*
X10684819Y97850001D02*
X10684819Y97611906D01*
X9780057Y98564287D02*
X9732438Y98611906D01*
X9732438Y98611906D02*
X9684819Y98707144D01*
X9684819Y98707144D02*
X9684819Y98945239D01*
X9684819Y98945239D02*
X9732438Y99040477D01*
X9732438Y99040477D02*
X9780057Y99088096D01*
X9780057Y99088096D02*
X9875295Y99135715D01*
X9875295Y99135715D02*
X9970533Y99135715D01*
X9970533Y99135715D02*
X10113390Y99088096D01*
X10113390Y99088096D02*
X10684819Y98516668D01*
X10684819Y98516668D02*
X10684819Y99135715D01*
D11*
X19335990Y91527620D02*
X19288371Y91432382D01*
X19288371Y91432382D02*
X19240752Y91384763D01*
X19240752Y91384763D02*
X19145514Y91337144D01*
X19145514Y91337144D02*
X19097895Y91337144D01*
X19097895Y91337144D02*
X19002657Y91384763D01*
X19002657Y91384763D02*
X18955038Y91432382D01*
X18955038Y91432382D02*
X18907419Y91527620D01*
X18907419Y91527620D02*
X18907419Y91718096D01*
X18907419Y91718096D02*
X18955038Y91813334D01*
X18955038Y91813334D02*
X19002657Y91860953D01*
X19002657Y91860953D02*
X19097895Y91908572D01*
X19097895Y91908572D02*
X19145514Y91908572D01*
X19145514Y91908572D02*
X19240752Y91860953D01*
X19240752Y91860953D02*
X19288371Y91813334D01*
X19288371Y91813334D02*
X19335990Y91718096D01*
X19335990Y91718096D02*
X19335990Y91527620D01*
X19335990Y91527620D02*
X19383609Y91432382D01*
X19383609Y91432382D02*
X19431228Y91384763D01*
X19431228Y91384763D02*
X19526466Y91337144D01*
X19526466Y91337144D02*
X19716942Y91337144D01*
X19716942Y91337144D02*
X19812180Y91384763D01*
X19812180Y91384763D02*
X19859800Y91432382D01*
X19859800Y91432382D02*
X19907419Y91527620D01*
X19907419Y91527620D02*
X19907419Y91718096D01*
X19907419Y91718096D02*
X19859800Y91813334D01*
X19859800Y91813334D02*
X19812180Y91860953D01*
X19812180Y91860953D02*
X19716942Y91908572D01*
X19716942Y91908572D02*
X19526466Y91908572D01*
X19526466Y91908572D02*
X19431228Y91860953D01*
X19431228Y91860953D02*
X19383609Y91813334D01*
X19383609Y91813334D02*
X19335990Y91718096D01*
X19812180Y92337144D02*
X19859800Y92384763D01*
X19859800Y92384763D02*
X19907419Y92337144D01*
X19907419Y92337144D02*
X19859800Y92289525D01*
X19859800Y92289525D02*
X19812180Y92337144D01*
X19812180Y92337144D02*
X19907419Y92337144D01*
X19907419Y92860953D02*
X19907419Y93051429D01*
X19907419Y93051429D02*
X19859800Y93146667D01*
X19859800Y93146667D02*
X19812180Y93194286D01*
X19812180Y93194286D02*
X19669323Y93289524D01*
X19669323Y93289524D02*
X19478847Y93337143D01*
X19478847Y93337143D02*
X19097895Y93337143D01*
X19097895Y93337143D02*
X19002657Y93289524D01*
X19002657Y93289524D02*
X18955038Y93241905D01*
X18955038Y93241905D02*
X18907419Y93146667D01*
X18907419Y93146667D02*
X18907419Y92956191D01*
X18907419Y92956191D02*
X18955038Y92860953D01*
X18955038Y92860953D02*
X19002657Y92813334D01*
X19002657Y92813334D02*
X19097895Y92765715D01*
X19097895Y92765715D02*
X19335990Y92765715D01*
X19335990Y92765715D02*
X19431228Y92813334D01*
X19431228Y92813334D02*
X19478847Y92860953D01*
X19478847Y92860953D02*
X19526466Y92956191D01*
X19526466Y92956191D02*
X19526466Y93146667D01*
X19526466Y93146667D02*
X19478847Y93241905D01*
X19478847Y93241905D02*
X19431228Y93289524D01*
X19431228Y93289524D02*
X19335990Y93337143D01*
X18907419Y93956191D02*
X18907419Y94051429D01*
X18907419Y94051429D02*
X18955038Y94146667D01*
X18955038Y94146667D02*
X19002657Y94194286D01*
X19002657Y94194286D02*
X19097895Y94241905D01*
X19097895Y94241905D02*
X19288371Y94289524D01*
X19288371Y94289524D02*
X19526466Y94289524D01*
X19526466Y94289524D02*
X19716942Y94241905D01*
X19716942Y94241905D02*
X19812180Y94194286D01*
X19812180Y94194286D02*
X19859800Y94146667D01*
X19859800Y94146667D02*
X19907419Y94051429D01*
X19907419Y94051429D02*
X19907419Y93956191D01*
X19907419Y93956191D02*
X19859800Y93860953D01*
X19859800Y93860953D02*
X19812180Y93813334D01*
X19812180Y93813334D02*
X19716942Y93765715D01*
X19716942Y93765715D02*
X19526466Y93718096D01*
X19526466Y93718096D02*
X19288371Y93718096D01*
X19288371Y93718096D02*
X19097895Y93765715D01*
X19097895Y93765715D02*
X19002657Y93813334D01*
X19002657Y93813334D02*
X18955038Y93860953D01*
X18955038Y93860953D02*
X18907419Y93956191D01*
X18907419Y94908572D02*
X18907419Y95003810D01*
X18907419Y95003810D02*
X18955038Y95099048D01*
X18955038Y95099048D02*
X19002657Y95146667D01*
X19002657Y95146667D02*
X19097895Y95194286D01*
X19097895Y95194286D02*
X19288371Y95241905D01*
X19288371Y95241905D02*
X19526466Y95241905D01*
X19526466Y95241905D02*
X19716942Y95194286D01*
X19716942Y95194286D02*
X19812180Y95146667D01*
X19812180Y95146667D02*
X19859800Y95099048D01*
X19859800Y95099048D02*
X19907419Y95003810D01*
X19907419Y95003810D02*
X19907419Y94908572D01*
X19907419Y94908572D02*
X19859800Y94813334D01*
X19859800Y94813334D02*
X19812180Y94765715D01*
X19812180Y94765715D02*
X19716942Y94718096D01*
X19716942Y94718096D02*
X19526466Y94670477D01*
X19526466Y94670477D02*
X19288371Y94670477D01*
X19288371Y94670477D02*
X19097895Y94718096D01*
X19097895Y94718096D02*
X19002657Y94765715D01*
X19002657Y94765715D02*
X18955038Y94813334D01*
X18955038Y94813334D02*
X18907419Y94908572D01*
X18907419Y95860953D02*
X18907419Y95956191D01*
X18907419Y95956191D02*
X18955038Y96051429D01*
X18955038Y96051429D02*
X19002657Y96099048D01*
X19002657Y96099048D02*
X19097895Y96146667D01*
X19097895Y96146667D02*
X19288371Y96194286D01*
X19288371Y96194286D02*
X19526466Y96194286D01*
X19526466Y96194286D02*
X19716942Y96146667D01*
X19716942Y96146667D02*
X19812180Y96099048D01*
X19812180Y96099048D02*
X19859800Y96051429D01*
X19859800Y96051429D02*
X19907419Y95956191D01*
X19907419Y95956191D02*
X19907419Y95860953D01*
X19907419Y95860953D02*
X19859800Y95765715D01*
X19859800Y95765715D02*
X19812180Y95718096D01*
X19812180Y95718096D02*
X19716942Y95670477D01*
X19716942Y95670477D02*
X19526466Y95622858D01*
X19526466Y95622858D02*
X19288371Y95622858D01*
X19288371Y95622858D02*
X19097895Y95670477D01*
X19097895Y95670477D02*
X19002657Y95718096D01*
X19002657Y95718096D02*
X18955038Y95765715D01*
X18955038Y95765715D02*
X18907419Y95860953D01*
X19907419Y97384763D02*
X19240752Y97384763D01*
X19335990Y97384763D02*
X19288371Y97432382D01*
X19288371Y97432382D02*
X19240752Y97527620D01*
X19240752Y97527620D02*
X19240752Y97670477D01*
X19240752Y97670477D02*
X19288371Y97765715D01*
X19288371Y97765715D02*
X19383609Y97813334D01*
X19383609Y97813334D02*
X19907419Y97813334D01*
X19383609Y97813334D02*
X19288371Y97860953D01*
X19288371Y97860953D02*
X19240752Y97956191D01*
X19240752Y97956191D02*
X19240752Y98099048D01*
X19240752Y98099048D02*
X19288371Y98194287D01*
X19288371Y98194287D02*
X19383609Y98241906D01*
X19383609Y98241906D02*
X19907419Y98241906D01*
X19907419Y98718096D02*
X19240752Y98718096D01*
X19335990Y98718096D02*
X19288371Y98765715D01*
X19288371Y98765715D02*
X19240752Y98860953D01*
X19240752Y98860953D02*
X19240752Y99003810D01*
X19240752Y99003810D02*
X19288371Y99099048D01*
X19288371Y99099048D02*
X19383609Y99146667D01*
X19383609Y99146667D02*
X19907419Y99146667D01*
X19383609Y99146667D02*
X19288371Y99194286D01*
X19288371Y99194286D02*
X19240752Y99289524D01*
X19240752Y99289524D02*
X19240752Y99432381D01*
X19240752Y99432381D02*
X19288371Y99527620D01*
X19288371Y99527620D02*
X19383609Y99575239D01*
X19383609Y99575239D02*
X19907419Y99575239D01*
D10*
X9261905Y85525181D02*
X9261905Y86525181D01*
X9261905Y86525181D02*
X9500000Y86525181D01*
X9500000Y86525181D02*
X9642857Y86477562D01*
X9642857Y86477562D02*
X9738095Y86382324D01*
X9738095Y86382324D02*
X9785714Y86287086D01*
X9785714Y86287086D02*
X9833333Y86096610D01*
X9833333Y86096610D02*
X9833333Y85953753D01*
X9833333Y85953753D02*
X9785714Y85763277D01*
X9785714Y85763277D02*
X9738095Y85668039D01*
X9738095Y85668039D02*
X9642857Y85572800D01*
X9642857Y85572800D02*
X9500000Y85525181D01*
X9500000Y85525181D02*
X9261905Y85525181D01*
X10166667Y86525181D02*
X10785714Y86525181D01*
X10785714Y86525181D02*
X10452381Y86144229D01*
X10452381Y86144229D02*
X10595238Y86144229D01*
X10595238Y86144229D02*
X10690476Y86096610D01*
X10690476Y86096610D02*
X10738095Y86048991D01*
X10738095Y86048991D02*
X10785714Y85953753D01*
X10785714Y85953753D02*
X10785714Y85715658D01*
X10785714Y85715658D02*
X10738095Y85620420D01*
X10738095Y85620420D02*
X10690476Y85572800D01*
X10690476Y85572800D02*
X10595238Y85525181D01*
X10595238Y85525181D02*
X10309524Y85525181D01*
X10309524Y85525181D02*
X10214286Y85572800D01*
X10214286Y85572800D02*
X10166667Y85620420D01*
X13548095Y85845181D02*
X13548095Y86845181D01*
X14119523Y85845181D02*
X13690952Y86416610D01*
X14119523Y86845181D02*
X13548095Y86273753D01*
X62788095Y91045181D02*
X62788095Y90235658D01*
X62788095Y90235658D02*
X62835714Y90140420D01*
X62835714Y90140420D02*
X62883333Y90092800D01*
X62883333Y90092800D02*
X62978571Y90045181D01*
X62978571Y90045181D02*
X63169047Y90045181D01*
X63169047Y90045181D02*
X63264285Y90092800D01*
X63264285Y90092800D02*
X63311904Y90140420D01*
X63311904Y90140420D02*
X63359523Y90235658D01*
X63359523Y90235658D02*
X63359523Y91045181D01*
X64311904Y91045181D02*
X63835714Y91045181D01*
X63835714Y91045181D02*
X63788095Y90568991D01*
X63788095Y90568991D02*
X63835714Y90616610D01*
X63835714Y90616610D02*
X63930952Y90664229D01*
X63930952Y90664229D02*
X64169047Y90664229D01*
X64169047Y90664229D02*
X64264285Y90616610D01*
X64264285Y90616610D02*
X64311904Y90568991D01*
X64311904Y90568991D02*
X64359523Y90473753D01*
X64359523Y90473753D02*
X64359523Y90235658D01*
X64359523Y90235658D02*
X64311904Y90140420D01*
X64311904Y90140420D02*
X64264285Y90092800D01*
X64264285Y90092800D02*
X64169047Y90045181D01*
X64169047Y90045181D02*
X63930952Y90045181D01*
X63930952Y90045181D02*
X63835714Y90092800D01*
X63835714Y90092800D02*
X63788095Y90140420D01*
D12*
X26426667Y91495682D02*
X26426667Y90588539D01*
X26426667Y90588539D02*
X26366190Y90407111D01*
X26366190Y90407111D02*
X26245238Y90286158D01*
X26245238Y90286158D02*
X26063809Y90225682D01*
X26063809Y90225682D02*
X25942857Y90225682D01*
X26910476Y91495682D02*
X27696667Y91495682D01*
X27696667Y91495682D02*
X27273333Y91011873D01*
X27273333Y91011873D02*
X27454762Y91011873D01*
X27454762Y91011873D02*
X27575714Y90951397D01*
X27575714Y90951397D02*
X27636190Y90890920D01*
X27636190Y90890920D02*
X27696667Y90769968D01*
X27696667Y90769968D02*
X27696667Y90467587D01*
X27696667Y90467587D02*
X27636190Y90346635D01*
X27636190Y90346635D02*
X27575714Y90286158D01*
X27575714Y90286158D02*
X27454762Y90225682D01*
X27454762Y90225682D02*
X27091905Y90225682D01*
X27091905Y90225682D02*
X26970952Y90286158D01*
X26970952Y90286158D02*
X26910476Y90346635D01*
D13*
%TO.C,A1*%
X18588000Y43740000D02*
X18588000Y41070000D01*
X18588000Y38530000D02*
X18588000Y300000D01*
X18588000Y300000D02*
X23668000Y300000D01*
X21258000Y41070000D02*
X18588000Y41070000D01*
X21258000Y38530000D02*
X18588000Y38530000D01*
X21258000Y38530000D02*
X21258000Y41070000D01*
X21258000Y38530000D02*
X21258000Y2970000D01*
X21258000Y2970000D02*
X18588000Y2970000D01*
X23668000Y8180000D02*
X31548000Y8180000D01*
X23668000Y-2240000D02*
X23668000Y8180000D01*
X31548000Y8180000D02*
X31548000Y-2240000D01*
X31548000Y-2240000D02*
X23668000Y-2240000D01*
X33958000Y41070000D02*
X33958000Y2970000D01*
X33958000Y41070000D02*
X36628000Y41070000D01*
X33958000Y2970000D02*
X36628000Y2970000D01*
X36628000Y43740000D02*
X18588000Y43740000D01*
X36628000Y300000D02*
X31548000Y300000D01*
X36628000Y300000D02*
X36628000Y43740000D01*
%TO.C,J2*%
X-6490000Y62780000D02*
X-6490000Y37260000D01*
X-6490000Y62780000D02*
X2140000Y62780000D01*
X-6490000Y62660000D02*
X2140000Y62660000D01*
X-6490000Y62541905D02*
X2140000Y62541905D01*
X-6490000Y62423810D02*
X2140000Y62423810D01*
X-6490000Y62305715D02*
X2140000Y62305715D01*
X-6490000Y62187620D02*
X2140000Y62187620D01*
X-6490000Y62069525D02*
X2140000Y62069525D01*
X-6490000Y61951430D02*
X2140000Y61951430D01*
X-6490000Y61833335D02*
X2140000Y61833335D01*
X-6490000Y61715240D02*
X2140000Y61715240D01*
X-6490000Y61597145D02*
X2140000Y61597145D01*
X-6490000Y61479050D02*
X2140000Y61479050D01*
X-6490000Y61360955D02*
X2140000Y61360955D01*
X-6490000Y61242860D02*
X2140000Y61242860D01*
X-6490000Y61124765D02*
X2140000Y61124765D01*
X-6490000Y61006670D02*
X2140000Y61006670D01*
X-6490000Y60888575D02*
X2140000Y60888575D01*
X-6490000Y60770480D02*
X2140000Y60770480D01*
X-6490000Y60652385D02*
X2140000Y60652385D01*
X-6490000Y60534290D02*
X2140000Y60534290D01*
X-6490000Y60416195D02*
X2140000Y60416195D01*
X-6490000Y60298100D02*
X2140000Y60298100D01*
X-6490000Y60180000D02*
X2140000Y60180000D01*
X-6490000Y57640000D02*
X2140000Y57640000D01*
X-6490000Y55100000D02*
X2140000Y55100000D01*
X-6490000Y52560000D02*
X2140000Y52560000D01*
X-6490000Y50020000D02*
X2140000Y50020000D01*
X-6490000Y47480000D02*
X2140000Y47480000D01*
X-6490000Y44940000D02*
X2140000Y44940000D01*
X-6490000Y42400000D02*
X2140000Y42400000D01*
X-6490000Y39860000D02*
X2140000Y39860000D01*
X-6490000Y37260000D02*
X2140000Y37260000D01*
X2140000Y62780000D02*
X2140000Y37260000D01*
X2140000Y61810000D02*
X2490000Y61810000D01*
X2140000Y61090000D02*
X2490000Y61090000D01*
X2140000Y59270000D02*
X2550000Y59270000D01*
X2140000Y58550000D02*
X2550000Y58550000D01*
X2140000Y56730000D02*
X2550000Y56730000D01*
X2140000Y56010000D02*
X2550000Y56010000D01*
X2140000Y54190000D02*
X2550000Y54190000D01*
X2140000Y53470000D02*
X2550000Y53470000D01*
X2140000Y51650000D02*
X2550000Y51650000D01*
X2140000Y50930000D02*
X2550000Y50930000D01*
X2140000Y49110000D02*
X2550000Y49110000D01*
X2140000Y48390000D02*
X2550000Y48390000D01*
X2140000Y46570000D02*
X2550000Y46570000D01*
X2140000Y45850000D02*
X2550000Y45850000D01*
X2140000Y44030000D02*
X2550000Y44030000D01*
X2140000Y43310000D02*
X2550000Y43310000D01*
X2140000Y41490000D02*
X2550000Y41490000D01*
X2140000Y40770000D02*
X2550000Y40770000D01*
X2140000Y38950000D02*
X2550000Y38950000D01*
X2140000Y38230000D02*
X2550000Y38230000D01*
X3600000Y62780000D02*
X4710000Y62780000D01*
X4710000Y62780000D02*
X4710000Y61450000D01*
D14*
%TO.C,Logo1*%
X3896872Y70864977D02*
X4000471Y70862382D01*
X4089632Y70858246D01*
X4157928Y70852563D01*
X4198934Y70845331D01*
X4207326Y70840971D01*
X4215792Y70816698D01*
X4229565Y70761426D01*
X4247450Y70680662D01*
X4268252Y70579912D01*
X4290777Y70464683D01*
X4302582Y70401902D01*
X4324849Y70282787D01*
X4345021Y70176565D01*
X4362085Y70088427D01*
X4375031Y70023566D01*
X4382845Y69987174D01*
X4384578Y69981184D01*
X4404110Y69971061D01*
X4451157Y69949662D01*
X4518997Y69919839D01*
X4600909Y69884445D01*
X4690172Y69846332D01*
X4780065Y69808353D01*
X4863865Y69773360D01*
X4934853Y69744206D01*
X4986306Y69723743D01*
X5011503Y69714823D01*
X5012604Y69714657D01*
X5032481Y69724769D01*
X5078223Y69753117D01*
X5145283Y69796723D01*
X5229116Y69852606D01*
X5325174Y69917787D01*
X5380350Y69955679D01*
X5481519Y70024725D01*
X5573370Y70086050D01*
X5651256Y70136663D01*
X5710531Y70173571D01*
X5746549Y70193782D01*
X5754623Y70196701D01*
X5773416Y70184153D01*
X5813543Y70149463D01*
X5870507Y70097063D01*
X5939815Y70031384D01*
X6016969Y69956856D01*
X6097475Y69877913D01*
X6176837Y69798983D01*
X6250560Y69724500D01*
X6314148Y69658894D01*
X6363106Y69606596D01*
X6392939Y69572039D01*
X6400058Y69560478D01*
X6390047Y69541654D01*
X6361922Y69496631D01*
X6318546Y69429787D01*
X6262782Y69345499D01*
X6197494Y69248144D01*
X6147754Y69174707D01*
X5895449Y68803667D01*
X6150445Y68185095D01*
X6595069Y68101275D01*
X7039693Y68017454D01*
X7039693Y67092006D01*
X6595069Y67008186D01*
X6150445Y66924365D01*
X6022947Y66615080D01*
X5895449Y66305794D01*
X6147754Y65934754D01*
X6218004Y65830843D01*
X6280728Y65736913D01*
X6333062Y65657348D01*
X6372143Y65596530D01*
X6395107Y65558843D01*
X6400058Y65548579D01*
X6387324Y65530090D01*
X6352118Y65490580D01*
X6298938Y65434478D01*
X6232282Y65366213D01*
X6156646Y65290214D01*
X6076528Y65210908D01*
X5996426Y65132725D01*
X5920836Y65060093D01*
X5854255Y64997441D01*
X5801182Y64949197D01*
X5766113Y64919790D01*
X5754377Y64912759D01*
X5732740Y64922877D01*
X5685338Y64951241D01*
X5616807Y64994871D01*
X5531785Y65050782D01*
X5434907Y65115994D01*
X5379650Y65153781D01*
X5278752Y65222657D01*
X5187701Y65283860D01*
X5111030Y65334422D01*
X5053272Y65371372D01*
X5018957Y65391742D01*
X5011746Y65394803D01*
X4991252Y65387864D01*
X4943487Y65368949D01*
X4875168Y65340913D01*
X4793011Y65306609D01*
X4703730Y65268891D01*
X4614042Y65230613D01*
X4530662Y65194630D01*
X4460306Y65163794D01*
X4409690Y65140961D01*
X4385529Y65128983D01*
X4384578Y65128276D01*
X4379964Y65109469D01*
X4369672Y65059382D01*
X4354713Y64983207D01*
X4336099Y64886135D01*
X4314841Y64773357D01*
X4302582Y64707558D01*
X4279638Y64587050D01*
X4257805Y64478203D01*
X4238278Y64386524D01*
X4222252Y64317519D01*
X4210921Y64276696D01*
X4207326Y64268489D01*
X4182994Y64260452D01*
X4128041Y64253967D01*
X4048892Y64249030D01*
X3951974Y64245636D01*
X3843713Y64243782D01*
X3730535Y64243462D01*
X3618865Y64244673D01*
X3515132Y64247410D01*
X3425759Y64251669D01*
X3357174Y64257445D01*
X3315803Y64264733D01*
X3307190Y64269105D01*
X3296867Y64295236D01*
X3282108Y64350607D01*
X3264648Y64427893D01*
X3246220Y64519770D01*
X3240259Y64551842D01*
X3211934Y64706476D01*
X3189124Y64828625D01*
X3170920Y64922327D01*
X3156417Y64991616D01*
X3144708Y65040529D01*
X3134885Y65073103D01*
X3126044Y65093372D01*
X3117276Y65105374D01*
X3115543Y65107053D01*
X3087629Y65123816D01*
X3033305Y65149386D01*
X2959223Y65181212D01*
X2872035Y65216740D01*
X2778392Y65253417D01*
X2684948Y65288689D01*
X2598353Y65320004D01*
X2525260Y65344807D01*
X2472322Y65360546D01*
X2446189Y65364668D01*
X2445274Y65364324D01*
X2423914Y65350359D01*
X2376916Y65318678D01*
X2309173Y65272609D01*
X2225577Y65215482D01*
X2131018Y65150627D01*
X2104146Y65132157D01*
X2006725Y65066301D01*
X1917837Y65008350D01*
X1842588Y64961462D01*
X1786080Y64928793D01*
X1753419Y64913500D01*
X1749407Y64912759D01*
X1728316Y64925608D01*
X1686536Y64961112D01*
X1628555Y65014707D01*
X1558865Y65081829D01*
X1481955Y65157913D01*
X1402317Y65238396D01*
X1324439Y65318713D01*
X1252814Y65394301D01*
X1191930Y65460595D01*
X1146279Y65513031D01*
X1120350Y65547045D01*
X1116117Y65556455D01*
X1126088Y65578357D01*
X1152980Y65623200D01*
X1192264Y65683679D01*
X1223883Y65730211D01*
X1281902Y65814525D01*
X1350216Y65914374D01*
X1418421Y66014527D01*
X1454925Y66068373D01*
X1578200Y66250629D01*
X1495480Y66403619D01*
X1459241Y66473318D01*
X1431074Y66532586D01*
X1415009Y66572689D01*
X1412774Y66582897D01*
X1429278Y66595171D01*
X1475918Y66619387D01*
X1548391Y66653737D01*
X1642394Y66696412D01*
X1753626Y66745606D01*
X1877785Y66799510D01*
X2010568Y66856316D01*
X2147673Y66914218D01*
X2284798Y66971407D01*
X2417642Y67026076D01*
X2541902Y67076416D01*
X2653275Y67120620D01*
X2747461Y67156881D01*
X2820156Y67183391D01*
X2867059Y67198342D01*
X2883167Y67200746D01*
X2903714Y67181689D01*
X2937067Y67139964D01*
X2976298Y67084294D01*
X2979401Y67079622D01*
X3094577Y66935736D01*
X3228947Y66819717D01*
X3378216Y66732570D01*
X3538087Y66675301D01*
X3704263Y66648914D01*
X3872448Y66654415D01*
X4038345Y66692810D01*
X4197658Y66765105D01*
X4232513Y66786374D01*
X4373263Y66897004D01*
X4486286Y67027698D01*
X4570997Y67173936D01*
X4626806Y67331192D01*
X4653126Y67494943D01*
X4649370Y67660667D01*
X4614950Y67823838D01*
X4549277Y67979935D01*
X4451765Y68124433D01*
X4412187Y68169131D01*
X4288297Y68282888D01*
X4157876Y68365782D01*
X4011685Y68422644D01*
X3866912Y68454313D01*
X3704140Y68462131D01*
X3540560Y68436062D01*
X3381702Y68378755D01*
X3233094Y68292856D01*
X3100265Y68181014D01*
X2988744Y68045877D01*
X2976989Y68028117D01*
X2938492Y67971850D01*
X2905137Y67929077D01*
X2883840Y67908628D01*
X2883167Y67908331D01*
X2860129Y67912721D01*
X2807843Y67930124D01*
X2730610Y67958732D01*
X2632732Y67996735D01*
X2518509Y68042326D01*
X2392242Y68093697D01*
X2258233Y68149038D01*
X2120782Y68206542D01*
X1984192Y68264399D01*
X1852763Y68320802D01*
X1730795Y68373942D01*
X1622591Y68422010D01*
X1532451Y68463199D01*
X1464677Y68495699D01*
X1423570Y68517703D01*
X1412774Y68526564D01*
X1421181Y68553640D01*
X1443728Y68604303D01*
X1476387Y68669817D01*
X1495480Y68705841D01*
X1578200Y68858832D01*
X1454925Y69041088D01*
X1391772Y69134125D01*
X1322273Y69235985D01*
X1256835Y69331438D01*
X1223883Y69379250D01*
X1178727Y69446495D01*
X1142943Y69503436D01*
X1121062Y69542646D01*
X1116437Y69555381D01*
X1128915Y69573917D01*
X1163748Y69614941D01*
X1217322Y69674475D01*
X1286017Y69748542D01*
X1366219Y69833165D01*
X1417714Y69886685D01*
X1509714Y69980319D01*
X1592001Y70061241D01*
X1661055Y70126177D01*
X1713356Y70171858D01*
X1745384Y70195011D01*
X1751884Y70197232D01*
X1776606Y70186924D01*
X1826595Y70158439D01*
X1896788Y70114937D01*
X1982125Y70059577D01*
X2077544Y69995520D01*
X2104146Y69977303D01*
X2200833Y69910927D01*
X2287883Y69851378D01*
X2360405Y69801984D01*
X2413507Y69766075D01*
X2442297Y69746981D01*
X2445274Y69745136D01*
X2468218Y69747895D01*
X2518664Y69762538D01*
X2589959Y69786513D01*
X2675453Y69817266D01*
X2768493Y69852244D01*
X2862426Y69888893D01*
X2950601Y69924661D01*
X3026366Y69956994D01*
X3083069Y69983338D01*
X3114057Y70001142D01*
X3115543Y70002407D01*
X3124399Y70013294D01*
X3133157Y70031682D01*
X3142723Y70061606D01*
X3154004Y70107103D01*
X3167907Y70172209D01*
X3185337Y70260961D01*
X3207202Y70377393D01*
X3234409Y70525542D01*
X3240259Y70557618D01*
X3258626Y70652686D01*
X3276595Y70735565D01*
X3292431Y70798930D01*
X3304400Y70835458D01*
X3307190Y70840356D01*
X3331928Y70848427D01*
X3387210Y70854987D01*
X3466611Y70860033D01*
X3563704Y70863559D01*
X3672062Y70865561D01*
X3785260Y70866036D01*
X3896872Y70864977D01*
G36*
X3896872Y70864977D02*
G01*
X4000471Y70862382D01*
X4089632Y70858246D01*
X4157928Y70852563D01*
X4198934Y70845331D01*
X4207326Y70840971D01*
X4215792Y70816698D01*
X4229565Y70761426D01*
X4247450Y70680662D01*
X4268252Y70579912D01*
X4290777Y70464683D01*
X4302582Y70401902D01*
X4324849Y70282787D01*
X4345021Y70176565D01*
X4362085Y70088427D01*
X4375031Y70023566D01*
X4382845Y69987174D01*
X4384578Y69981184D01*
X4404110Y69971061D01*
X4451157Y69949662D01*
X4518997Y69919839D01*
X4600909Y69884445D01*
X4690172Y69846332D01*
X4780065Y69808353D01*
X4863865Y69773360D01*
X4934853Y69744206D01*
X4986306Y69723743D01*
X5011503Y69714823D01*
X5012604Y69714657D01*
X5032481Y69724769D01*
X5078223Y69753117D01*
X5145283Y69796723D01*
X5229116Y69852606D01*
X5325174Y69917787D01*
X5380350Y69955679D01*
X5481519Y70024725D01*
X5573370Y70086050D01*
X5651256Y70136663D01*
X5710531Y70173571D01*
X5746549Y70193782D01*
X5754623Y70196701D01*
X5773416Y70184153D01*
X5813543Y70149463D01*
X5870507Y70097063D01*
X5939815Y70031384D01*
X6016969Y69956856D01*
X6097475Y69877913D01*
X6176837Y69798983D01*
X6250560Y69724500D01*
X6314148Y69658894D01*
X6363106Y69606596D01*
X6392939Y69572039D01*
X6400058Y69560478D01*
X6390047Y69541654D01*
X6361922Y69496631D01*
X6318546Y69429787D01*
X6262782Y69345499D01*
X6197494Y69248144D01*
X6147754Y69174707D01*
X5895449Y68803667D01*
X6150445Y68185095D01*
X6595069Y68101275D01*
X7039693Y68017454D01*
X7039693Y67092006D01*
X6595069Y67008186D01*
X6150445Y66924365D01*
X6022947Y66615080D01*
X5895449Y66305794D01*
X6147754Y65934754D01*
X6218004Y65830843D01*
X6280728Y65736913D01*
X6333062Y65657348D01*
X6372143Y65596530D01*
X6395107Y65558843D01*
X6400058Y65548579D01*
X6387324Y65530090D01*
X6352118Y65490580D01*
X6298938Y65434478D01*
X6232282Y65366213D01*
X6156646Y65290214D01*
X6076528Y65210908D01*
X5996426Y65132725D01*
X5920836Y65060093D01*
X5854255Y64997441D01*
X5801182Y64949197D01*
X5766113Y64919790D01*
X5754377Y64912759D01*
X5732740Y64922877D01*
X5685338Y64951241D01*
X5616807Y64994871D01*
X5531785Y65050782D01*
X5434907Y65115994D01*
X5379650Y65153781D01*
X5278752Y65222657D01*
X5187701Y65283860D01*
X5111030Y65334422D01*
X5053272Y65371372D01*
X5018957Y65391742D01*
X5011746Y65394803D01*
X4991252Y65387864D01*
X4943487Y65368949D01*
X4875168Y65340913D01*
X4793011Y65306609D01*
X4703730Y65268891D01*
X4614042Y65230613D01*
X4530662Y65194630D01*
X4460306Y65163794D01*
X4409690Y65140961D01*
X4385529Y65128983D01*
X4384578Y65128276D01*
X4379964Y65109469D01*
X4369672Y65059382D01*
X4354713Y64983207D01*
X4336099Y64886135D01*
X4314841Y64773357D01*
X4302582Y64707558D01*
X4279638Y64587050D01*
X4257805Y64478203D01*
X4238278Y64386524D01*
X4222252Y64317519D01*
X4210921Y64276696D01*
X4207326Y64268489D01*
X4182994Y64260452D01*
X4128041Y64253967D01*
X4048892Y64249030D01*
X3951974Y64245636D01*
X3843713Y64243782D01*
X3730535Y64243462D01*
X3618865Y64244673D01*
X3515132Y64247410D01*
X3425759Y64251669D01*
X3357174Y64257445D01*
X3315803Y64264733D01*
X3307190Y64269105D01*
X3296867Y64295236D01*
X3282108Y64350607D01*
X3264648Y64427893D01*
X3246220Y64519770D01*
X3240259Y64551842D01*
X3211934Y64706476D01*
X3189124Y64828625D01*
X3170920Y64922327D01*
X3156417Y64991616D01*
X3144708Y65040529D01*
X3134885Y65073103D01*
X3126044Y65093372D01*
X3117276Y65105374D01*
X3115543Y65107053D01*
X3087629Y65123816D01*
X3033305Y65149386D01*
X2959223Y65181212D01*
X2872035Y65216740D01*
X2778392Y65253417D01*
X2684948Y65288689D01*
X2598353Y65320004D01*
X2525260Y65344807D01*
X2472322Y65360546D01*
X2446189Y65364668D01*
X2445274Y65364324D01*
X2423914Y65350359D01*
X2376916Y65318678D01*
X2309173Y65272609D01*
X2225577Y65215482D01*
X2131018Y65150627D01*
X2104146Y65132157D01*
X2006725Y65066301D01*
X1917837Y65008350D01*
X1842588Y64961462D01*
X1786080Y64928793D01*
X1753419Y64913500D01*
X1749407Y64912759D01*
X1728316Y64925608D01*
X1686536Y64961112D01*
X1628555Y65014707D01*
X1558865Y65081829D01*
X1481955Y65157913D01*
X1402317Y65238396D01*
X1324439Y65318713D01*
X1252814Y65394301D01*
X1191930Y65460595D01*
X1146279Y65513031D01*
X1120350Y65547045D01*
X1116117Y65556455D01*
X1126088Y65578357D01*
X1152980Y65623200D01*
X1192264Y65683679D01*
X1223883Y65730211D01*
X1281902Y65814525D01*
X1350216Y65914374D01*
X1418421Y66014527D01*
X1454925Y66068373D01*
X1578200Y66250629D01*
X1495480Y66403619D01*
X1459241Y66473318D01*
X1431074Y66532586D01*
X1415009Y66572689D01*
X1412774Y66582897D01*
X1429278Y66595171D01*
X1475918Y66619387D01*
X1548391Y66653737D01*
X1642394Y66696412D01*
X1753626Y66745606D01*
X1877785Y66799510D01*
X2010568Y66856316D01*
X2147673Y66914218D01*
X2284798Y66971407D01*
X2417642Y67026076D01*
X2541902Y67076416D01*
X2653275Y67120620D01*
X2747461Y67156881D01*
X2820156Y67183391D01*
X2867059Y67198342D01*
X2883167Y67200746D01*
X2903714Y67181689D01*
X2937067Y67139964D01*
X2976298Y67084294D01*
X2979401Y67079622D01*
X3094577Y66935736D01*
X3228947Y66819717D01*
X3378216Y66732570D01*
X3538087Y66675301D01*
X3704263Y66648914D01*
X3872448Y66654415D01*
X4038345Y66692810D01*
X4197658Y66765105D01*
X4232513Y66786374D01*
X4373263Y66897004D01*
X4486286Y67027698D01*
X4570997Y67173936D01*
X4626806Y67331192D01*
X4653126Y67494943D01*
X4649370Y67660667D01*
X4614950Y67823838D01*
X4549277Y67979935D01*
X4451765Y68124433D01*
X4412187Y68169131D01*
X4288297Y68282888D01*
X4157876Y68365782D01*
X4011685Y68422644D01*
X3866912Y68454313D01*
X3704140Y68462131D01*
X3540560Y68436062D01*
X3381702Y68378755D01*
X3233094Y68292856D01*
X3100265Y68181014D01*
X2988744Y68045877D01*
X2976989Y68028117D01*
X2938492Y67971850D01*
X2905137Y67929077D01*
X2883840Y67908628D01*
X2883167Y67908331D01*
X2860129Y67912721D01*
X2807843Y67930124D01*
X2730610Y67958732D01*
X2632732Y67996735D01*
X2518509Y68042326D01*
X2392242Y68093697D01*
X2258233Y68149038D01*
X2120782Y68206542D01*
X1984192Y68264399D01*
X1852763Y68320802D01*
X1730795Y68373942D01*
X1622591Y68422010D01*
X1532451Y68463199D01*
X1464677Y68495699D01*
X1423570Y68517703D01*
X1412774Y68526564D01*
X1421181Y68553640D01*
X1443728Y68604303D01*
X1476387Y68669817D01*
X1495480Y68705841D01*
X1578200Y68858832D01*
X1454925Y69041088D01*
X1391772Y69134125D01*
X1322273Y69235985D01*
X1256835Y69331438D01*
X1223883Y69379250D01*
X1178727Y69446495D01*
X1142943Y69503436D01*
X1121062Y69542646D01*
X1116437Y69555381D01*
X1128915Y69573917D01*
X1163748Y69614941D01*
X1217322Y69674475D01*
X1286017Y69748542D01*
X1366219Y69833165D01*
X1417714Y69886685D01*
X1509714Y69980319D01*
X1592001Y70061241D01*
X1661055Y70126177D01*
X1713356Y70171858D01*
X1745384Y70195011D01*
X1751884Y70197232D01*
X1776606Y70186924D01*
X1826595Y70158439D01*
X1896788Y70114937D01*
X1982125Y70059577D01*
X2077544Y69995520D01*
X2104146Y69977303D01*
X2200833Y69910927D01*
X2287883Y69851378D01*
X2360405Y69801984D01*
X2413507Y69766075D01*
X2442297Y69746981D01*
X2445274Y69745136D01*
X2468218Y69747895D01*
X2518664Y69762538D01*
X2589959Y69786513D01*
X2675453Y69817266D01*
X2768493Y69852244D01*
X2862426Y69888893D01*
X2950601Y69924661D01*
X3026366Y69956994D01*
X3083069Y69983338D01*
X3114057Y70001142D01*
X3115543Y70002407D01*
X3124399Y70013294D01*
X3133157Y70031682D01*
X3142723Y70061606D01*
X3154004Y70107103D01*
X3167907Y70172209D01*
X3185337Y70260961D01*
X3207202Y70377393D01*
X3234409Y70525542D01*
X3240259Y70557618D01*
X3258626Y70652686D01*
X3276595Y70735565D01*
X3292431Y70798930D01*
X3304400Y70835458D01*
X3307190Y70840356D01*
X3331928Y70848427D01*
X3387210Y70854987D01*
X3466611Y70860033D01*
X3563704Y70863559D01*
X3672062Y70865561D01*
X3785260Y70866036D01*
X3896872Y70864977D01*
G37*
D13*
%TO.C,K1*%
X39290000Y55420000D02*
X39290000Y76560000D01*
X40980000Y59640000D02*
X40980000Y58370000D01*
X42250000Y72340000D02*
X43520000Y72340000D01*
X43770000Y60150000D02*
X46310000Y60150000D01*
X43770000Y59640000D02*
X40980000Y59640000D01*
X43770000Y59640000D02*
X43770000Y60150000D01*
X43770000Y59130000D02*
X43770000Y59640000D01*
X44790000Y70435000D02*
X42250000Y74245000D01*
X44790000Y67260000D02*
X44790000Y70435000D01*
X45550000Y59130000D02*
X44540000Y60150000D01*
X46310000Y60150000D02*
X46310000Y59640000D01*
X46310000Y59640000D02*
X46310000Y59130000D01*
X46310000Y59130000D02*
X43770000Y59130000D01*
X47330000Y74880000D02*
X44790000Y74880000D01*
X47330000Y67260000D02*
X44790000Y67260000D01*
X48600000Y59640000D02*
X46310000Y59640000D01*
X48600000Y58370000D02*
X48600000Y59640000D01*
X50290000Y76560000D02*
X39290000Y76560000D01*
X50290000Y55420000D02*
X39290000Y55420000D01*
X50290000Y55420000D02*
X50290000Y76560000D01*
X44917000Y70435000D02*
G75*
G02*
X44663000Y70435000I-127000J0D01*
G01*
X44663000Y70435000D02*
G75*
G02*
X44917000Y70435000I127000J0D01*
G01*
%TO.C,BT1*%
X38537000Y95300000D02*
X38537000Y97400000D01*
X38537000Y89850000D02*
X38537000Y91300000D01*
X41137000Y87250000D02*
X38537000Y89850000D01*
X41137000Y86450000D02*
X41137000Y87250000D01*
X49437000Y87250000D02*
X49437000Y86450000D01*
X49437000Y86450000D02*
X41137000Y86450000D01*
X52037000Y95300000D02*
X52037000Y97400000D01*
X52037000Y91300000D02*
X52037000Y89850000D01*
X52037000Y89850000D02*
X49437000Y87250000D01*
X38537000Y97350000D02*
G75*
G02*
X39987000Y98900000I1500000J50000D01*
G01*
X39872385Y98884160D02*
G75*
G02*
X40787000Y98500000I124615J-984160D01*
G01*
X49787000Y98500000D02*
G75*
G02*
X50701615Y98884160I790000J-600001D01*
G01*
X50587000Y98900000D02*
G75*
G02*
X52037000Y97350000I-49999J-1499999D01*
G01*
%TO.C,D4*%
X50780000Y64420000D02*
X50780000Y60180000D01*
X50780000Y60180000D02*
X53020000Y60180000D01*
X51900000Y65070000D02*
X51900000Y64420000D01*
X51900000Y59530000D02*
X51900000Y60180000D01*
X53020000Y64420000D02*
X50780000Y64420000D01*
X53020000Y63820000D02*
X50780000Y63820000D01*
X53020000Y63700000D02*
X50780000Y63700000D01*
X53020000Y63580000D02*
X50780000Y63580000D01*
X53020000Y60180000D02*
X53020000Y64420000D01*
D11*
%TO.C,U6*%
X55038000Y31830000D02*
X55038000Y31680000D01*
X55038000Y31830000D02*
X55188000Y31830000D01*
X55038000Y29130000D02*
X55038000Y29280000D01*
X55188000Y29130000D02*
X55038000Y29130000D01*
X57738000Y31840000D02*
X57588000Y31840000D01*
X57738000Y31830000D02*
X57738000Y31680000D01*
D13*
X57738000Y28770000D02*
X57738000Y29130000D01*
X58098000Y29130000D01*
X57738000Y28770000D01*
G36*
X57738000Y28770000D02*
G01*
X57738000Y29130000D01*
X58098000Y29130000D01*
X57738000Y28770000D01*
G37*
%TO.C,Q1*%
X13620000Y51020000D02*
X13620000Y66910000D01*
X16200000Y66910000D02*
X16200000Y69450000D01*
X18740000Y66910000D02*
X18740000Y69450000D01*
X21280000Y66910000D02*
X21280000Y69450000D01*
X23860000Y66910000D02*
X13620000Y66910000D01*
X23860000Y51020000D02*
X13620000Y51020000D01*
X23860000Y51020000D02*
X23860000Y66910000D01*
%TO.C,U4*%
X73165000Y59840000D02*
G75*
G02*
X53915000Y59840000I-9625000J0D01*
G01*
X53915000Y59840000D02*
G75*
G02*
X73165000Y59840000I9625000J0D01*
G01*
%TO.C,Q2*%
X26080000Y54780000D02*
X26080000Y70670000D01*
X28660000Y70670000D02*
X28660000Y73210000D01*
X31200000Y70670000D02*
X31200000Y73210000D01*
X33740000Y70670000D02*
X33740000Y73210000D01*
X36320000Y70670000D02*
X26080000Y70670000D01*
X36320000Y54780000D02*
X26080000Y54780000D01*
X36320000Y54780000D02*
X36320000Y70670000D01*
%TO.C,U2*%
X72985000Y20460000D02*
G75*
G02*
X53735000Y20460000I-9625000J0D01*
G01*
X53735000Y20460000D02*
G75*
G02*
X72985000Y20460000I9625000J0D01*
G01*
D15*
%TO.C,D1*%
X48200000Y6267231D02*
X53200000Y6267231D01*
X48200000Y6067231D02*
X48200000Y6267231D01*
X48200000Y2767231D02*
X48200000Y4467231D01*
X48200000Y1267231D02*
X48200000Y1067231D01*
X48200000Y1067231D02*
X53200000Y1067231D01*
X53200000Y6267231D02*
X53200000Y6067231D01*
X53200000Y4567231D02*
X53200000Y3567231D01*
X53200000Y3567231D02*
X50600000Y1067231D01*
X53200000Y3567231D02*
X53200000Y2767231D01*
X53200000Y1067231D02*
X53200000Y1267231D01*
D16*
X53608182Y707769D02*
G75*
G02*
X53408182Y707769I-100000J0D01*
G01*
X53408182Y707769D02*
G75*
G02*
X53608182Y707769I100000J0D01*
G01*
%TO.C,U7*%
X53534657Y49439860D02*
G75*
G02*
X53334657Y49439860I-100000J0D01*
G01*
X53334657Y49439860D02*
G75*
G02*
X53534657Y49439860I100000J0D01*
G01*
D13*
%TO.C,U3*%
X73025000Y40200000D02*
G75*
G02*
X53775000Y40200000I-9625000J0D01*
G01*
X53775000Y40200000D02*
G75*
G02*
X73025000Y40200000I9625000J0D01*
G01*
%TO.C,BZ1*%
X17600000Y78900000D02*
G75*
G02*
X2400000Y78900000I-7600000J0D01*
G01*
X2400000Y78900000D02*
G75*
G02*
X17600000Y78900000I7600000J0D01*
G01*
%TO.C,D2*%
X10960000Y99930000D02*
X10960000Y91040000D01*
X10960000Y91030000D02*
X17060000Y91030000D01*
X11510000Y100020000D02*
X11510000Y102620000D01*
X12700000Y100015000D02*
X12700000Y94950000D01*
X12800000Y100020000D02*
X12800000Y100020000D01*
X13180000Y94950000D02*
X13180000Y100015000D01*
X13280000Y100020000D02*
X13280000Y100020000D01*
X14820000Y100020000D02*
X14820000Y100020000D01*
X15230000Y94920000D02*
X15230000Y100020000D01*
X15340000Y100020000D02*
X15340000Y100020000D01*
X15730000Y94900000D02*
X15750000Y100020000D01*
X16630000Y100020000D02*
X11510000Y100020000D01*
X16630000Y100020000D02*
X16630000Y102620000D01*
X17060000Y99930000D02*
X10970000Y99930000D01*
X17060000Y91030000D02*
X17060000Y99930000D01*
X11510000Y102620000D02*
G75*
G02*
X16630000Y102620000I2560000J0D01*
G01*
D11*
X19335990Y91527620D02*
X19288371Y91432382D01*
X19288371Y91432382D02*
X19240752Y91384763D01*
X19240752Y91384763D02*
X19145514Y91337144D01*
X19145514Y91337144D02*
X19097895Y91337144D01*
X19097895Y91337144D02*
X19002657Y91384763D01*
X19002657Y91384763D02*
X18955038Y91432382D01*
X18955038Y91432382D02*
X18907419Y91527620D01*
X18907419Y91527620D02*
X18907419Y91718096D01*
X18907419Y91718096D02*
X18955038Y91813334D01*
X18955038Y91813334D02*
X19002657Y91860953D01*
X19002657Y91860953D02*
X19097895Y91908572D01*
X19097895Y91908572D02*
X19145514Y91908572D01*
X19145514Y91908572D02*
X19240752Y91860953D01*
X19240752Y91860953D02*
X19288371Y91813334D01*
X19288371Y91813334D02*
X19335990Y91718096D01*
X19335990Y91718096D02*
X19335990Y91527620D01*
X19335990Y91527620D02*
X19383609Y91432382D01*
X19383609Y91432382D02*
X19431228Y91384763D01*
X19431228Y91384763D02*
X19526466Y91337144D01*
X19526466Y91337144D02*
X19716942Y91337144D01*
X19716942Y91337144D02*
X19812180Y91384763D01*
X19812180Y91384763D02*
X19859800Y91432382D01*
X19859800Y91432382D02*
X19907419Y91527620D01*
X19907419Y91527620D02*
X19907419Y91718096D01*
X19907419Y91718096D02*
X19859800Y91813334D01*
X19859800Y91813334D02*
X19812180Y91860953D01*
X19812180Y91860953D02*
X19716942Y91908572D01*
X19716942Y91908572D02*
X19526466Y91908572D01*
X19526466Y91908572D02*
X19431228Y91860953D01*
X19431228Y91860953D02*
X19383609Y91813334D01*
X19383609Y91813334D02*
X19335990Y91718096D01*
X19812180Y92337144D02*
X19859800Y92384763D01*
X19859800Y92384763D02*
X19907419Y92337144D01*
X19907419Y92337144D02*
X19859800Y92289525D01*
X19859800Y92289525D02*
X19812180Y92337144D01*
X19812180Y92337144D02*
X19907419Y92337144D01*
X19907419Y92860953D02*
X19907419Y93051429D01*
X19907419Y93051429D02*
X19859800Y93146667D01*
X19859800Y93146667D02*
X19812180Y93194286D01*
X19812180Y93194286D02*
X19669323Y93289524D01*
X19669323Y93289524D02*
X19478847Y93337143D01*
X19478847Y93337143D02*
X19097895Y93337143D01*
X19097895Y93337143D02*
X19002657Y93289524D01*
X19002657Y93289524D02*
X18955038Y93241905D01*
X18955038Y93241905D02*
X18907419Y93146667D01*
X18907419Y93146667D02*
X18907419Y92956191D01*
X18907419Y92956191D02*
X18955038Y92860953D01*
X18955038Y92860953D02*
X19002657Y92813334D01*
X19002657Y92813334D02*
X19097895Y92765715D01*
X19097895Y92765715D02*
X19335990Y92765715D01*
X19335990Y92765715D02*
X19431228Y92813334D01*
X19431228Y92813334D02*
X19478847Y92860953D01*
X19478847Y92860953D02*
X19526466Y92956191D01*
X19526466Y92956191D02*
X19526466Y93146667D01*
X19526466Y93146667D02*
X19478847Y93241905D01*
X19478847Y93241905D02*
X19431228Y93289524D01*
X19431228Y93289524D02*
X19335990Y93337143D01*
X18907419Y93956191D02*
X18907419Y94051429D01*
X18907419Y94051429D02*
X18955038Y94146667D01*
X18955038Y94146667D02*
X19002657Y94194286D01*
X19002657Y94194286D02*
X19097895Y94241905D01*
X19097895Y94241905D02*
X19288371Y94289524D01*
X19288371Y94289524D02*
X19526466Y94289524D01*
X19526466Y94289524D02*
X19716942Y94241905D01*
X19716942Y94241905D02*
X19812180Y94194286D01*
X19812180Y94194286D02*
X19859800Y94146667D01*
X19859800Y94146667D02*
X19907419Y94051429D01*
X19907419Y94051429D02*
X19907419Y93956191D01*
X19907419Y93956191D02*
X19859800Y93860953D01*
X19859800Y93860953D02*
X19812180Y93813334D01*
X19812180Y93813334D02*
X19716942Y93765715D01*
X19716942Y93765715D02*
X19526466Y93718096D01*
X19526466Y93718096D02*
X19288371Y93718096D01*
X19288371Y93718096D02*
X19097895Y93765715D01*
X19097895Y93765715D02*
X19002657Y93813334D01*
X19002657Y93813334D02*
X18955038Y93860953D01*
X18955038Y93860953D02*
X18907419Y93956191D01*
X18907419Y94908572D02*
X18907419Y95003810D01*
X18907419Y95003810D02*
X18955038Y95099048D01*
X18955038Y95099048D02*
X19002657Y95146667D01*
X19002657Y95146667D02*
X19097895Y95194286D01*
X19097895Y95194286D02*
X19288371Y95241905D01*
X19288371Y95241905D02*
X19526466Y95241905D01*
X19526466Y95241905D02*
X19716942Y95194286D01*
X19716942Y95194286D02*
X19812180Y95146667D01*
X19812180Y95146667D02*
X19859800Y95099048D01*
X19859800Y95099048D02*
X19907419Y95003810D01*
X19907419Y95003810D02*
X19907419Y94908572D01*
X19907419Y94908572D02*
X19859800Y94813334D01*
X19859800Y94813334D02*
X19812180Y94765715D01*
X19812180Y94765715D02*
X19716942Y94718096D01*
X19716942Y94718096D02*
X19526466Y94670477D01*
X19526466Y94670477D02*
X19288371Y94670477D01*
X19288371Y94670477D02*
X19097895Y94718096D01*
X19097895Y94718096D02*
X19002657Y94765715D01*
X19002657Y94765715D02*
X18955038Y94813334D01*
X18955038Y94813334D02*
X18907419Y94908572D01*
X18907419Y95860953D02*
X18907419Y95956191D01*
X18907419Y95956191D02*
X18955038Y96051429D01*
X18955038Y96051429D02*
X19002657Y96099048D01*
X19002657Y96099048D02*
X19097895Y96146667D01*
X19097895Y96146667D02*
X19288371Y96194286D01*
X19288371Y96194286D02*
X19526466Y96194286D01*
X19526466Y96194286D02*
X19716942Y96146667D01*
X19716942Y96146667D02*
X19812180Y96099048D01*
X19812180Y96099048D02*
X19859800Y96051429D01*
X19859800Y96051429D02*
X19907419Y95956191D01*
X19907419Y95956191D02*
X19907419Y95860953D01*
X19907419Y95860953D02*
X19859800Y95765715D01*
X19859800Y95765715D02*
X19812180Y95718096D01*
X19812180Y95718096D02*
X19716942Y95670477D01*
X19716942Y95670477D02*
X19526466Y95622858D01*
X19526466Y95622858D02*
X19288371Y95622858D01*
X19288371Y95622858D02*
X19097895Y95670477D01*
X19097895Y95670477D02*
X19002657Y95718096D01*
X19002657Y95718096D02*
X18955038Y95765715D01*
X18955038Y95765715D02*
X18907419Y95860953D01*
X19907419Y97384763D02*
X19240752Y97384763D01*
X19335990Y97384763D02*
X19288371Y97432382D01*
X19288371Y97432382D02*
X19240752Y97527620D01*
X19240752Y97527620D02*
X19240752Y97670477D01*
X19240752Y97670477D02*
X19288371Y97765715D01*
X19288371Y97765715D02*
X19383609Y97813334D01*
X19383609Y97813334D02*
X19907419Y97813334D01*
X19383609Y97813334D02*
X19288371Y97860953D01*
X19288371Y97860953D02*
X19240752Y97956191D01*
X19240752Y97956191D02*
X19240752Y98099048D01*
X19240752Y98099048D02*
X19288371Y98194287D01*
X19288371Y98194287D02*
X19383609Y98241906D01*
X19383609Y98241906D02*
X19907419Y98241906D01*
X19907419Y98718096D02*
X19240752Y98718096D01*
X19335990Y98718096D02*
X19288371Y98765715D01*
X19288371Y98765715D02*
X19240752Y98860953D01*
X19240752Y98860953D02*
X19240752Y99003810D01*
X19240752Y99003810D02*
X19288371Y99099048D01*
X19288371Y99099048D02*
X19383609Y99146667D01*
X19383609Y99146667D02*
X19907419Y99146667D01*
X19383609Y99146667D02*
X19288371Y99194286D01*
X19288371Y99194286D02*
X19240752Y99289524D01*
X19240752Y99289524D02*
X19240752Y99432381D01*
X19240752Y99432381D02*
X19288371Y99527620D01*
X19288371Y99527620D02*
X19383609Y99575239D01*
X19383609Y99575239D02*
X19907419Y99575239D01*
X17560000Y91030000D02*
X21136420Y91030000D01*
X17560000Y99930000D02*
X21136420Y99930000D01*
X20550000Y91030000D02*
X20550000Y99930000D01*
X20550000Y91030000D02*
X20550000Y99930000D01*
X20550000Y91030000D02*
X19963579Y92156504D01*
X20550000Y91030000D02*
X21136421Y92156504D01*
X20550000Y99930000D02*
X21136421Y98803496D01*
X20550000Y99930000D02*
X19963579Y98803496D01*
D13*
%TO.C,D3*%
X7230000Y88100000D02*
X7880000Y88100000D01*
X7880000Y89220000D02*
X7880000Y86980000D01*
X7880000Y86980000D02*
X12120000Y86980000D01*
X11280000Y86980000D02*
X11280000Y89220000D01*
X11400000Y86980000D02*
X11400000Y89220000D01*
X11520000Y86980000D02*
X11520000Y89220000D01*
X12120000Y89220000D02*
X7880000Y89220000D01*
X12120000Y86980000D02*
X12120000Y89220000D01*
X12770000Y88100000D02*
X12120000Y88100000D01*
%TO.C,U5*%
X73175000Y79500000D02*
G75*
G02*
X53925000Y79500000I-9625000J0D01*
G01*
X53925000Y79500000D02*
G75*
G02*
X73175000Y79500000I9625000J0D01*
G01*
D16*
%TO.C,J3*%
X19188000Y95050000D02*
X19188000Y95050000D01*
X19188000Y94850000D02*
X19188000Y94850000D01*
D11*
X19888000Y96650000D02*
X19888000Y89250000D01*
X19888000Y87050000D02*
X19888000Y84450000D01*
X26251000Y83100000D02*
X21988000Y83100000D01*
X32188000Y98600000D02*
X21388000Y98600000D01*
X33688000Y96650000D02*
X33688000Y83100000D01*
X33688000Y83100000D02*
X30988000Y83100000D01*
D16*
X19188000Y95050000D02*
G75*
G02*
X19188000Y94850000I0J-100000D01*
G01*
X19188000Y94850000D02*
G75*
G02*
X19188000Y95050000I0J100000D01*
G01*
%TD*%
M02*
