%TF.GenerationSoftware,KiCad,Pcbnew,8.0.5*%
%TF.CreationDate,2024-09-30T01:40:25-04:00*%
%TF.ProjectId,BREAD_Slice,42524541-445f-4536-9c69-63652e6b6963,rev?*%
%TF.SameCoordinates,PX74eba40PY8552dc0*%
%TF.FileFunction,Legend,Top*%
%TF.FilePolarity,Positive*%
%FSLAX46Y46*%
G04 Gerber Fmt 4.6, Leading zero omitted, Abs format (unit mm)*
G04 Created by KiCad (PCBNEW 8.0.5) date 2024-09-30 01:40:25*
%MOMM*%
%LPD*%
G01*
G04 APERTURE LIST*
%ADD10C,0.150000*%
%ADD11C,0.100000*%
%ADD12C,0.254000*%
%ADD13C,0.120000*%
%ADD14C,0.000000*%
%ADD15C,0.010000*%
%ADD16C,0.177800*%
%ADD17C,0.200000*%
G04 APERTURE END LIST*
D10*
X6686666Y51677610D02*
X6610476Y51715705D01*
X6610476Y51715705D02*
X6496190Y51715705D01*
X6496190Y51715705D02*
X6381904Y51677610D01*
X6381904Y51677610D02*
X6305714Y51601420D01*
X6305714Y51601420D02*
X6267619Y51525229D01*
X6267619Y51525229D02*
X6229523Y51372848D01*
X6229523Y51372848D02*
X6229523Y51258562D01*
X6229523Y51258562D02*
X6267619Y51106181D01*
X6267619Y51106181D02*
X6305714Y51029991D01*
X6305714Y51029991D02*
X6381904Y50953800D01*
X6381904Y50953800D02*
X6496190Y50915705D01*
X6496190Y50915705D02*
X6572381Y50915705D01*
X6572381Y50915705D02*
X6686666Y50953800D01*
X6686666Y50953800D02*
X6724762Y50991896D01*
X6724762Y50991896D02*
X6724762Y51258562D01*
X6724762Y51258562D02*
X6572381Y51258562D01*
X7067619Y50915705D02*
X7067619Y51715705D01*
X7067619Y51715705D02*
X7524762Y50915705D01*
X7524762Y50915705D02*
X7524762Y51715705D01*
X7905714Y50915705D02*
X7905714Y51715705D01*
X7905714Y51715705D02*
X8096190Y51715705D01*
X8096190Y51715705D02*
X8210476Y51677610D01*
X8210476Y51677610D02*
X8286666Y51601420D01*
X8286666Y51601420D02*
X8324761Y51525229D01*
X8324761Y51525229D02*
X8362857Y51372848D01*
X8362857Y51372848D02*
X8362857Y51258562D01*
X8362857Y51258562D02*
X8324761Y51106181D01*
X8324761Y51106181D02*
X8286666Y51029991D01*
X8286666Y51029991D02*
X8210476Y50953800D01*
X8210476Y50953800D02*
X8096190Y50915705D01*
X8096190Y50915705D02*
X7905714Y50915705D01*
X55157142Y3145181D02*
X54680952Y3145181D01*
X54680952Y3145181D02*
X54680952Y4145181D01*
X55490476Y3668991D02*
X55823809Y3668991D01*
X55966666Y3145181D02*
X55490476Y3145181D01*
X55490476Y3145181D02*
X55490476Y4145181D01*
X55490476Y4145181D02*
X55966666Y4145181D01*
X56395238Y3145181D02*
X56395238Y4145181D01*
X56395238Y4145181D02*
X56633333Y4145181D01*
X56633333Y4145181D02*
X56776190Y4097562D01*
X56776190Y4097562D02*
X56871428Y4002324D01*
X56871428Y4002324D02*
X56919047Y3907086D01*
X56919047Y3907086D02*
X56966666Y3716610D01*
X56966666Y3716610D02*
X56966666Y3573753D01*
X56966666Y3573753D02*
X56919047Y3383277D01*
X56919047Y3383277D02*
X56871428Y3288039D01*
X56871428Y3288039D02*
X56776190Y3192800D01*
X56776190Y3192800D02*
X56633333Y3145181D01*
X56633333Y3145181D02*
X56395238Y3145181D01*
X6686666Y40765705D02*
X6229523Y40765705D01*
X6458095Y40765705D02*
X6458095Y41565705D01*
X6458095Y41565705D02*
X6381904Y41451420D01*
X6381904Y41451420D02*
X6305714Y41375229D01*
X6305714Y41375229D02*
X6229523Y41337134D01*
X6991428Y41489515D02*
X7029524Y41527610D01*
X7029524Y41527610D02*
X7105714Y41565705D01*
X7105714Y41565705D02*
X7296190Y41565705D01*
X7296190Y41565705D02*
X7372381Y41527610D01*
X7372381Y41527610D02*
X7410476Y41489515D01*
X7410476Y41489515D02*
X7448571Y41413324D01*
X7448571Y41413324D02*
X7448571Y41337134D01*
X7448571Y41337134D02*
X7410476Y41222848D01*
X7410476Y41222848D02*
X6953333Y40765705D01*
X6953333Y40765705D02*
X7448571Y40765705D01*
X7677143Y41565705D02*
X7943810Y40765705D01*
X7943810Y40765705D02*
X8210476Y41565705D01*
X6229523Y45903800D02*
X6343809Y45865705D01*
X6343809Y45865705D02*
X6534285Y45865705D01*
X6534285Y45865705D02*
X6610476Y45903800D01*
X6610476Y45903800D02*
X6648571Y45941896D01*
X6648571Y45941896D02*
X6686666Y46018086D01*
X6686666Y46018086D02*
X6686666Y46094277D01*
X6686666Y46094277D02*
X6648571Y46170467D01*
X6648571Y46170467D02*
X6610476Y46208562D01*
X6610476Y46208562D02*
X6534285Y46246658D01*
X6534285Y46246658D02*
X6381904Y46284753D01*
X6381904Y46284753D02*
X6305714Y46322848D01*
X6305714Y46322848D02*
X6267619Y46360943D01*
X6267619Y46360943D02*
X6229523Y46437134D01*
X6229523Y46437134D02*
X6229523Y46513324D01*
X6229523Y46513324D02*
X6267619Y46589515D01*
X6267619Y46589515D02*
X6305714Y46627610D01*
X6305714Y46627610D02*
X6381904Y46665705D01*
X6381904Y46665705D02*
X6572381Y46665705D01*
X6572381Y46665705D02*
X6686666Y46627610D01*
X7181905Y46246658D02*
X7181905Y45865705D01*
X6915238Y46665705D02*
X7181905Y46246658D01*
X7181905Y46246658D02*
X7448571Y46665705D01*
X7715238Y45865705D02*
X7715238Y46665705D01*
X7715238Y46665705D02*
X8172381Y45865705D01*
X8172381Y45865705D02*
X8172381Y46665705D01*
X9010476Y45941896D02*
X8972380Y45903800D01*
X8972380Y45903800D02*
X8858095Y45865705D01*
X8858095Y45865705D02*
X8781904Y45865705D01*
X8781904Y45865705D02*
X8667618Y45903800D01*
X8667618Y45903800D02*
X8591428Y45979991D01*
X8591428Y45979991D02*
X8553333Y46056181D01*
X8553333Y46056181D02*
X8515237Y46208562D01*
X8515237Y46208562D02*
X8515237Y46322848D01*
X8515237Y46322848D02*
X8553333Y46475229D01*
X8553333Y46475229D02*
X8591428Y46551420D01*
X8591428Y46551420D02*
X8667618Y46627610D01*
X8667618Y46627610D02*
X8781904Y46665705D01*
X8781904Y46665705D02*
X8858095Y46665705D01*
X8858095Y46665705D02*
X8972380Y46627610D01*
X8972380Y46627610D02*
X9010476Y46589515D01*
X6686666Y39027610D02*
X6610476Y39065705D01*
X6610476Y39065705D02*
X6496190Y39065705D01*
X6496190Y39065705D02*
X6381904Y39027610D01*
X6381904Y39027610D02*
X6305714Y38951420D01*
X6305714Y38951420D02*
X6267619Y38875229D01*
X6267619Y38875229D02*
X6229523Y38722848D01*
X6229523Y38722848D02*
X6229523Y38608562D01*
X6229523Y38608562D02*
X6267619Y38456181D01*
X6267619Y38456181D02*
X6305714Y38379991D01*
X6305714Y38379991D02*
X6381904Y38303800D01*
X6381904Y38303800D02*
X6496190Y38265705D01*
X6496190Y38265705D02*
X6572381Y38265705D01*
X6572381Y38265705D02*
X6686666Y38303800D01*
X6686666Y38303800D02*
X6724762Y38341896D01*
X6724762Y38341896D02*
X6724762Y38608562D01*
X6724762Y38608562D02*
X6572381Y38608562D01*
X7067619Y38265705D02*
X7067619Y39065705D01*
X7067619Y39065705D02*
X7524762Y38265705D01*
X7524762Y38265705D02*
X7524762Y39065705D01*
X7905714Y38265705D02*
X7905714Y39065705D01*
X7905714Y39065705D02*
X8096190Y39065705D01*
X8096190Y39065705D02*
X8210476Y39027610D01*
X8210476Y39027610D02*
X8286666Y38951420D01*
X8286666Y38951420D02*
X8324761Y38875229D01*
X8324761Y38875229D02*
X8362857Y38722848D01*
X8362857Y38722848D02*
X8362857Y38608562D01*
X8362857Y38608562D02*
X8324761Y38456181D01*
X8324761Y38456181D02*
X8286666Y38379991D01*
X8286666Y38379991D02*
X8210476Y38303800D01*
X8210476Y38303800D02*
X8096190Y38265705D01*
X8096190Y38265705D02*
X7905714Y38265705D01*
X9143850Y35729888D02*
X9096231Y35587031D01*
X9096231Y35587031D02*
X9048612Y35539412D01*
X9048612Y35539412D02*
X8953374Y35491793D01*
X8953374Y35491793D02*
X8810517Y35491793D01*
X8810517Y35491793D02*
X8715279Y35539412D01*
X8715279Y35539412D02*
X8667660Y35587031D01*
X8667660Y35587031D02*
X8620040Y35682269D01*
X8620040Y35682269D02*
X8620040Y36063221D01*
X8620040Y36063221D02*
X9620040Y36063221D01*
X9620040Y36063221D02*
X9620040Y35729888D01*
X9620040Y35729888D02*
X9572421Y35634650D01*
X9572421Y35634650D02*
X9524802Y35587031D01*
X9524802Y35587031D02*
X9429564Y35539412D01*
X9429564Y35539412D02*
X9334326Y35539412D01*
X9334326Y35539412D02*
X9239088Y35587031D01*
X9239088Y35587031D02*
X9191469Y35634650D01*
X9191469Y35634650D02*
X9143850Y35729888D01*
X9143850Y35729888D02*
X9143850Y36063221D01*
X8620040Y34491793D02*
X9096231Y34825126D01*
X8620040Y35063221D02*
X9620040Y35063221D01*
X9620040Y35063221D02*
X9620040Y34682269D01*
X9620040Y34682269D02*
X9572421Y34587031D01*
X9572421Y34587031D02*
X9524802Y34539412D01*
X9524802Y34539412D02*
X9429564Y34491793D01*
X9429564Y34491793D02*
X9286707Y34491793D01*
X9286707Y34491793D02*
X9191469Y34539412D01*
X9191469Y34539412D02*
X9143850Y34587031D01*
X9143850Y34587031D02*
X9096231Y34682269D01*
X9096231Y34682269D02*
X9096231Y35063221D01*
X9143850Y34063221D02*
X9143850Y33729888D01*
X8620040Y33587031D02*
X8620040Y34063221D01*
X8620040Y34063221D02*
X9620040Y34063221D01*
X9620040Y34063221D02*
X9620040Y33587031D01*
X8905755Y33206078D02*
X8905755Y32729888D01*
X8620040Y33301316D02*
X9620040Y32967983D01*
X9620040Y32967983D02*
X8620040Y32634650D01*
X8620040Y32301316D02*
X9620040Y32301316D01*
X9620040Y32301316D02*
X9620040Y32063221D01*
X9620040Y32063221D02*
X9572421Y31920364D01*
X9572421Y31920364D02*
X9477183Y31825126D01*
X9477183Y31825126D02*
X9381945Y31777507D01*
X9381945Y31777507D02*
X9191469Y31729888D01*
X9191469Y31729888D02*
X9048612Y31729888D01*
X9048612Y31729888D02*
X8858136Y31777507D01*
X8858136Y31777507D02*
X8762898Y31825126D01*
X8762898Y31825126D02*
X8667660Y31920364D01*
X8667660Y31920364D02*
X8620040Y32063221D01*
X8620040Y32063221D02*
X8620040Y32301316D01*
X8667660Y30587030D02*
X8620040Y30444173D01*
X8620040Y30444173D02*
X8620040Y30206078D01*
X8620040Y30206078D02*
X8667660Y30110840D01*
X8667660Y30110840D02*
X8715279Y30063221D01*
X8715279Y30063221D02*
X8810517Y30015602D01*
X8810517Y30015602D02*
X8905755Y30015602D01*
X8905755Y30015602D02*
X9000993Y30063221D01*
X9000993Y30063221D02*
X9048612Y30110840D01*
X9048612Y30110840D02*
X9096231Y30206078D01*
X9096231Y30206078D02*
X9143850Y30396554D01*
X9143850Y30396554D02*
X9191469Y30491792D01*
X9191469Y30491792D02*
X9239088Y30539411D01*
X9239088Y30539411D02*
X9334326Y30587030D01*
X9334326Y30587030D02*
X9429564Y30587030D01*
X9429564Y30587030D02*
X9524802Y30539411D01*
X9524802Y30539411D02*
X9572421Y30491792D01*
X9572421Y30491792D02*
X9620040Y30396554D01*
X9620040Y30396554D02*
X9620040Y30158459D01*
X9620040Y30158459D02*
X9572421Y30015602D01*
X8620040Y29444173D02*
X8667660Y29539411D01*
X8667660Y29539411D02*
X8762898Y29587030D01*
X8762898Y29587030D02*
X9620040Y29587030D01*
X8620040Y29063220D02*
X9286707Y29063220D01*
X9620040Y29063220D02*
X9572421Y29110839D01*
X9572421Y29110839D02*
X9524802Y29063220D01*
X9524802Y29063220D02*
X9572421Y29015601D01*
X9572421Y29015601D02*
X9620040Y29063220D01*
X9620040Y29063220D02*
X9524802Y29063220D01*
X8667660Y28158459D02*
X8620040Y28253697D01*
X8620040Y28253697D02*
X8620040Y28444173D01*
X8620040Y28444173D02*
X8667660Y28539411D01*
X8667660Y28539411D02*
X8715279Y28587030D01*
X8715279Y28587030D02*
X8810517Y28634649D01*
X8810517Y28634649D02*
X9096231Y28634649D01*
X9096231Y28634649D02*
X9191469Y28587030D01*
X9191469Y28587030D02*
X9239088Y28539411D01*
X9239088Y28539411D02*
X9286707Y28444173D01*
X9286707Y28444173D02*
X9286707Y28253697D01*
X9286707Y28253697D02*
X9239088Y28158459D01*
X8667660Y27348935D02*
X8620040Y27444173D01*
X8620040Y27444173D02*
X8620040Y27634649D01*
X8620040Y27634649D02*
X8667660Y27729887D01*
X8667660Y27729887D02*
X8762898Y27777506D01*
X8762898Y27777506D02*
X9143850Y27777506D01*
X9143850Y27777506D02*
X9239088Y27729887D01*
X9239088Y27729887D02*
X9286707Y27634649D01*
X9286707Y27634649D02*
X9286707Y27444173D01*
X9286707Y27444173D02*
X9239088Y27348935D01*
X9239088Y27348935D02*
X9143850Y27301316D01*
X9143850Y27301316D02*
X9048612Y27301316D01*
X9048612Y27301316D02*
X8953374Y27777506D01*
X7010096Y36063221D02*
X8010096Y36063221D01*
X7676763Y35587031D02*
X7010096Y35587031D01*
X7581525Y35587031D02*
X7629144Y35539412D01*
X7629144Y35539412D02*
X7676763Y35444174D01*
X7676763Y35444174D02*
X7676763Y35301317D01*
X7676763Y35301317D02*
X7629144Y35206079D01*
X7629144Y35206079D02*
X7533906Y35158460D01*
X7533906Y35158460D02*
X7010096Y35158460D01*
X7010096Y34253698D02*
X8010096Y34253698D01*
X7057716Y34253698D02*
X7010096Y34348936D01*
X7010096Y34348936D02*
X7010096Y34539412D01*
X7010096Y34539412D02*
X7057716Y34634650D01*
X7057716Y34634650D02*
X7105335Y34682269D01*
X7105335Y34682269D02*
X7200573Y34729888D01*
X7200573Y34729888D02*
X7486287Y34729888D01*
X7486287Y34729888D02*
X7581525Y34682269D01*
X7581525Y34682269D02*
X7629144Y34634650D01*
X7629144Y34634650D02*
X7676763Y34539412D01*
X7676763Y34539412D02*
X7676763Y34348936D01*
X7676763Y34348936D02*
X7629144Y34253698D01*
X7676763Y33348936D02*
X7010096Y33348936D01*
X7676763Y33777507D02*
X7152954Y33777507D01*
X7152954Y33777507D02*
X7057716Y33729888D01*
X7057716Y33729888D02*
X7010096Y33634650D01*
X7010096Y33634650D02*
X7010096Y33491793D01*
X7010096Y33491793D02*
X7057716Y33396555D01*
X7057716Y33396555D02*
X7105335Y33348936D01*
X7057716Y32920364D02*
X7010096Y32825126D01*
X7010096Y32825126D02*
X7010096Y32634650D01*
X7010096Y32634650D02*
X7057716Y32539412D01*
X7057716Y32539412D02*
X7152954Y32491793D01*
X7152954Y32491793D02*
X7200573Y32491793D01*
X7200573Y32491793D02*
X7295811Y32539412D01*
X7295811Y32539412D02*
X7343430Y32634650D01*
X7343430Y32634650D02*
X7343430Y32777507D01*
X7343430Y32777507D02*
X7391049Y32872745D01*
X7391049Y32872745D02*
X7486287Y32920364D01*
X7486287Y32920364D02*
X7533906Y32920364D01*
X7533906Y32920364D02*
X7629144Y32872745D01*
X7629144Y32872745D02*
X7676763Y32777507D01*
X7676763Y32777507D02*
X7676763Y32634650D01*
X7676763Y32634650D02*
X7629144Y32539412D01*
X7676763Y32206078D02*
X7676763Y31825126D01*
X8010096Y32063221D02*
X7152954Y32063221D01*
X7152954Y32063221D02*
X7057716Y32015602D01*
X7057716Y32015602D02*
X7010096Y31920364D01*
X7010096Y31920364D02*
X7010096Y31825126D01*
X7010096Y31491792D02*
X7676763Y31491792D01*
X7486287Y31491792D02*
X7581525Y31444173D01*
X7581525Y31444173D02*
X7629144Y31396554D01*
X7629144Y31396554D02*
X7676763Y31301316D01*
X7676763Y31301316D02*
X7676763Y31206078D01*
X7010096Y30872744D02*
X7676763Y30872744D01*
X8010096Y30872744D02*
X7962477Y30920363D01*
X7962477Y30920363D02*
X7914858Y30872744D01*
X7914858Y30872744D02*
X7962477Y30825125D01*
X7962477Y30825125D02*
X8010096Y30872744D01*
X8010096Y30872744D02*
X7914858Y30872744D01*
X7010096Y29967983D02*
X7533906Y29967983D01*
X7533906Y29967983D02*
X7629144Y30015602D01*
X7629144Y30015602D02*
X7676763Y30110840D01*
X7676763Y30110840D02*
X7676763Y30301316D01*
X7676763Y30301316D02*
X7629144Y30396554D01*
X7057716Y29967983D02*
X7010096Y30063221D01*
X7010096Y30063221D02*
X7010096Y30301316D01*
X7010096Y30301316D02*
X7057716Y30396554D01*
X7057716Y30396554D02*
X7152954Y30444173D01*
X7152954Y30444173D02*
X7248192Y30444173D01*
X7248192Y30444173D02*
X7343430Y30396554D01*
X7343430Y30396554D02*
X7391049Y30301316D01*
X7391049Y30301316D02*
X7391049Y30063221D01*
X7391049Y30063221D02*
X7438668Y29967983D01*
X7010096Y29348935D02*
X7057716Y29444173D01*
X7057716Y29444173D02*
X7152954Y29491792D01*
X7152954Y29491792D02*
X8010096Y29491792D01*
X7295811Y28253696D02*
X7295811Y27777506D01*
X7010096Y28348934D02*
X8010096Y28015601D01*
X8010096Y28015601D02*
X7010096Y27682268D01*
X7010096Y27348934D02*
X7676763Y27348934D01*
X8010096Y27348934D02*
X7962477Y27396553D01*
X7962477Y27396553D02*
X7914858Y27348934D01*
X7914858Y27348934D02*
X7962477Y27301315D01*
X7962477Y27301315D02*
X8010096Y27348934D01*
X8010096Y27348934D02*
X7914858Y27348934D01*
X7010096Y26872744D02*
X7676763Y26872744D01*
X7486287Y26872744D02*
X7581525Y26825125D01*
X7581525Y26825125D02*
X7629144Y26777506D01*
X7629144Y26777506D02*
X7676763Y26682268D01*
X7676763Y26682268D02*
X7676763Y26587030D01*
X7391049Y26253696D02*
X7391049Y25491791D01*
X5304914Y35396555D02*
X5352533Y35491793D01*
X5352533Y35491793D02*
X5447772Y35587031D01*
X5447772Y35587031D02*
X5590629Y35729888D01*
X5590629Y35729888D02*
X5638248Y35825126D01*
X5638248Y35825126D02*
X5638248Y35920364D01*
X5400152Y35872745D02*
X5447772Y35967983D01*
X5447772Y35967983D02*
X5543010Y36063221D01*
X5543010Y36063221D02*
X5733486Y36110840D01*
X5733486Y36110840D02*
X6066819Y36110840D01*
X6066819Y36110840D02*
X6257295Y36063221D01*
X6257295Y36063221D02*
X6352533Y35967983D01*
X6352533Y35967983D02*
X6400152Y35872745D01*
X6400152Y35872745D02*
X6400152Y35682269D01*
X6400152Y35682269D02*
X6352533Y35587031D01*
X6352533Y35587031D02*
X6257295Y35491793D01*
X6257295Y35491793D02*
X6066819Y35444174D01*
X6066819Y35444174D02*
X5733486Y35444174D01*
X5733486Y35444174D02*
X5543010Y35491793D01*
X5543010Y35491793D02*
X5447772Y35587031D01*
X5447772Y35587031D02*
X5400152Y35682269D01*
X5400152Y35682269D02*
X5400152Y35872745D01*
X6066819Y34587031D02*
X5400152Y34587031D01*
X6066819Y35015602D02*
X5543010Y35015602D01*
X5543010Y35015602D02*
X5447772Y34967983D01*
X5447772Y34967983D02*
X5400152Y34872745D01*
X5400152Y34872745D02*
X5400152Y34729888D01*
X5400152Y34729888D02*
X5447772Y34634650D01*
X5447772Y34634650D02*
X5495391Y34587031D01*
X5400152Y33682269D02*
X5923962Y33682269D01*
X5923962Y33682269D02*
X6019200Y33729888D01*
X6019200Y33729888D02*
X6066819Y33825126D01*
X6066819Y33825126D02*
X6066819Y34015602D01*
X6066819Y34015602D02*
X6019200Y34110840D01*
X5447772Y33682269D02*
X5400152Y33777507D01*
X5400152Y33777507D02*
X5400152Y34015602D01*
X5400152Y34015602D02*
X5447772Y34110840D01*
X5447772Y34110840D02*
X5543010Y34158459D01*
X5543010Y34158459D02*
X5638248Y34158459D01*
X5638248Y34158459D02*
X5733486Y34110840D01*
X5733486Y34110840D02*
X5781105Y34015602D01*
X5781105Y34015602D02*
X5781105Y33777507D01*
X5781105Y33777507D02*
X5828724Y33682269D01*
X5400152Y33063221D02*
X5447772Y33158459D01*
X5447772Y33158459D02*
X5543010Y33206078D01*
X5543010Y33206078D02*
X6400152Y33206078D01*
X5400152Y32682268D02*
X6066819Y32682268D01*
X6400152Y32682268D02*
X6352533Y32729887D01*
X6352533Y32729887D02*
X6304914Y32682268D01*
X6304914Y32682268D02*
X6352533Y32634649D01*
X6352533Y32634649D02*
X6400152Y32682268D01*
X6400152Y32682268D02*
X6304914Y32682268D01*
X6066819Y32348935D02*
X6066819Y31967983D01*
X6400152Y32206078D02*
X5543010Y32206078D01*
X5543010Y32206078D02*
X5447772Y32158459D01*
X5447772Y32158459D02*
X5400152Y32063221D01*
X5400152Y32063221D02*
X5400152Y31967983D01*
X6066819Y31729887D02*
X5400152Y31491792D01*
X6066819Y31253697D02*
X5400152Y31491792D01*
X5400152Y31491792D02*
X5162057Y31587030D01*
X5162057Y31587030D02*
X5114438Y31634649D01*
X5114438Y31634649D02*
X5066819Y31729887D01*
X5400152Y30110839D02*
X6400152Y30110839D01*
X6400152Y30110839D02*
X5685867Y29777506D01*
X5685867Y29777506D02*
X6400152Y29444173D01*
X6400152Y29444173D02*
X5400152Y29444173D01*
X5400152Y28825125D02*
X5447772Y28920363D01*
X5447772Y28920363D02*
X5495391Y28967982D01*
X5495391Y28967982D02*
X5590629Y29015601D01*
X5590629Y29015601D02*
X5876343Y29015601D01*
X5876343Y29015601D02*
X5971581Y28967982D01*
X5971581Y28967982D02*
X6019200Y28920363D01*
X6019200Y28920363D02*
X6066819Y28825125D01*
X6066819Y28825125D02*
X6066819Y28682268D01*
X6066819Y28682268D02*
X6019200Y28587030D01*
X6019200Y28587030D02*
X5971581Y28539411D01*
X5971581Y28539411D02*
X5876343Y28491792D01*
X5876343Y28491792D02*
X5590629Y28491792D01*
X5590629Y28491792D02*
X5495391Y28539411D01*
X5495391Y28539411D02*
X5447772Y28587030D01*
X5447772Y28587030D02*
X5400152Y28682268D01*
X5400152Y28682268D02*
X5400152Y28825125D01*
X6066819Y28063220D02*
X5400152Y28063220D01*
X5971581Y28063220D02*
X6019200Y28015601D01*
X6019200Y28015601D02*
X6066819Y27920363D01*
X6066819Y27920363D02*
X6066819Y27777506D01*
X6066819Y27777506D02*
X6019200Y27682268D01*
X6019200Y27682268D02*
X5923962Y27634649D01*
X5923962Y27634649D02*
X5400152Y27634649D01*
X5400152Y27158458D02*
X6066819Y27158458D01*
X6400152Y27158458D02*
X6352533Y27206077D01*
X6352533Y27206077D02*
X6304914Y27158458D01*
X6304914Y27158458D02*
X6352533Y27110839D01*
X6352533Y27110839D02*
X6400152Y27158458D01*
X6400152Y27158458D02*
X6304914Y27158458D01*
X6066819Y26825125D02*
X6066819Y26444173D01*
X6400152Y26682268D02*
X5543010Y26682268D01*
X5543010Y26682268D02*
X5447772Y26634649D01*
X5447772Y26634649D02*
X5400152Y26539411D01*
X5400152Y26539411D02*
X5400152Y26444173D01*
X5400152Y25967982D02*
X5447772Y26063220D01*
X5447772Y26063220D02*
X5495391Y26110839D01*
X5495391Y26110839D02*
X5590629Y26158458D01*
X5590629Y26158458D02*
X5876343Y26158458D01*
X5876343Y26158458D02*
X5971581Y26110839D01*
X5971581Y26110839D02*
X6019200Y26063220D01*
X6019200Y26063220D02*
X6066819Y25967982D01*
X6066819Y25967982D02*
X6066819Y25825125D01*
X6066819Y25825125D02*
X6019200Y25729887D01*
X6019200Y25729887D02*
X5971581Y25682268D01*
X5971581Y25682268D02*
X5876343Y25634649D01*
X5876343Y25634649D02*
X5590629Y25634649D01*
X5590629Y25634649D02*
X5495391Y25682268D01*
X5495391Y25682268D02*
X5447772Y25729887D01*
X5447772Y25729887D02*
X5400152Y25825125D01*
X5400152Y25825125D02*
X5400152Y25967982D01*
X5400152Y25206077D02*
X6066819Y25206077D01*
X5876343Y25206077D02*
X5971581Y25158458D01*
X5971581Y25158458D02*
X6019200Y25110839D01*
X6019200Y25110839D02*
X6066819Y25015601D01*
X6066819Y25015601D02*
X6066819Y24920363D01*
X3409256Y35777507D02*
X3456875Y35825126D01*
X3456875Y35825126D02*
X3599732Y35920364D01*
X3599732Y35920364D02*
X3694970Y35967983D01*
X3694970Y35967983D02*
X3837828Y36015602D01*
X3837828Y36015602D02*
X4075923Y36063221D01*
X4075923Y36063221D02*
X4266399Y36063221D01*
X4266399Y36063221D02*
X4504494Y36015602D01*
X4504494Y36015602D02*
X4647351Y35967983D01*
X4647351Y35967983D02*
X4742589Y35920364D01*
X4742589Y35920364D02*
X4885447Y35825126D01*
X4885447Y35825126D02*
X4933066Y35777507D01*
X3837828Y35444173D02*
X3790208Y35301316D01*
X3790208Y35301316D02*
X3790208Y35063221D01*
X3790208Y35063221D02*
X3837828Y34967983D01*
X3837828Y34967983D02*
X3885447Y34920364D01*
X3885447Y34920364D02*
X3980685Y34872745D01*
X3980685Y34872745D02*
X4075923Y34872745D01*
X4075923Y34872745D02*
X4171161Y34920364D01*
X4171161Y34920364D02*
X4218780Y34967983D01*
X4218780Y34967983D02*
X4266399Y35063221D01*
X4266399Y35063221D02*
X4314018Y35253697D01*
X4314018Y35253697D02*
X4361637Y35348935D01*
X4361637Y35348935D02*
X4409256Y35396554D01*
X4409256Y35396554D02*
X4504494Y35444173D01*
X4504494Y35444173D02*
X4599732Y35444173D01*
X4599732Y35444173D02*
X4694970Y35396554D01*
X4694970Y35396554D02*
X4742589Y35348935D01*
X4742589Y35348935D02*
X4790208Y35253697D01*
X4790208Y35253697D02*
X4790208Y35015602D01*
X4790208Y35015602D02*
X4742589Y34872745D01*
X3790208Y33967983D02*
X3790208Y34444173D01*
X3790208Y34444173D02*
X4790208Y34444173D01*
X3885447Y33063221D02*
X3837828Y33110840D01*
X3837828Y33110840D02*
X3790208Y33253697D01*
X3790208Y33253697D02*
X3790208Y33348935D01*
X3790208Y33348935D02*
X3837828Y33491792D01*
X3837828Y33491792D02*
X3933066Y33587030D01*
X3933066Y33587030D02*
X4028304Y33634649D01*
X4028304Y33634649D02*
X4218780Y33682268D01*
X4218780Y33682268D02*
X4361637Y33682268D01*
X4361637Y33682268D02*
X4552113Y33634649D01*
X4552113Y33634649D02*
X4647351Y33587030D01*
X4647351Y33587030D02*
X4742589Y33491792D01*
X4742589Y33491792D02*
X4790208Y33348935D01*
X4790208Y33348935D02*
X4790208Y33253697D01*
X4790208Y33253697D02*
X4742589Y33110840D01*
X4742589Y33110840D02*
X4694970Y33063221D01*
X3694970Y32872744D02*
X3694970Y32110840D01*
X3790208Y31872744D02*
X4790208Y31872744D01*
X4075923Y31444173D02*
X4075923Y30967983D01*
X3790208Y31539411D02*
X4790208Y31206078D01*
X4790208Y31206078D02*
X3790208Y30872745D01*
X3694970Y29872745D02*
X3742589Y29967983D01*
X3742589Y29967983D02*
X3837828Y30063221D01*
X3837828Y30063221D02*
X3980685Y30206078D01*
X3980685Y30206078D02*
X4028304Y30301316D01*
X4028304Y30301316D02*
X4028304Y30396554D01*
X3790208Y30348935D02*
X3837828Y30444173D01*
X3837828Y30444173D02*
X3933066Y30539411D01*
X3933066Y30539411D02*
X4123542Y30587030D01*
X4123542Y30587030D02*
X4456875Y30587030D01*
X4456875Y30587030D02*
X4647351Y30539411D01*
X4647351Y30539411D02*
X4742589Y30444173D01*
X4742589Y30444173D02*
X4790208Y30348935D01*
X4790208Y30348935D02*
X4790208Y30158459D01*
X4790208Y30158459D02*
X4742589Y30063221D01*
X4742589Y30063221D02*
X4647351Y29967983D01*
X4647351Y29967983D02*
X4456875Y29920364D01*
X4456875Y29920364D02*
X4123542Y29920364D01*
X4123542Y29920364D02*
X3933066Y29967983D01*
X3933066Y29967983D02*
X3837828Y30063221D01*
X3837828Y30063221D02*
X3790208Y30158459D01*
X3790208Y30158459D02*
X3790208Y30348935D01*
X3790208Y29491792D02*
X4790208Y29491792D01*
X4790208Y29491792D02*
X4075923Y29158459D01*
X4075923Y29158459D02*
X4790208Y28825126D01*
X4790208Y28825126D02*
X3790208Y28825126D01*
X3409256Y28444173D02*
X3456875Y28396554D01*
X3456875Y28396554D02*
X3599732Y28301316D01*
X3599732Y28301316D02*
X3694970Y28253697D01*
X3694970Y28253697D02*
X3837828Y28206078D01*
X3837828Y28206078D02*
X4075923Y28158459D01*
X4075923Y28158459D02*
X4266399Y28158459D01*
X4266399Y28158459D02*
X4504494Y28206078D01*
X4504494Y28206078D02*
X4647351Y28253697D01*
X4647351Y28253697D02*
X4742589Y28301316D01*
X4742589Y28301316D02*
X4885447Y28396554D01*
X4885447Y28396554D02*
X4933066Y28444173D01*
X2275503Y35491793D02*
X2227884Y35539412D01*
X2227884Y35539412D02*
X2180264Y35682269D01*
X2180264Y35682269D02*
X2180264Y35777507D01*
X2180264Y35777507D02*
X2227884Y35920364D01*
X2227884Y35920364D02*
X2323122Y36015602D01*
X2323122Y36015602D02*
X2418360Y36063221D01*
X2418360Y36063221D02*
X2608836Y36110840D01*
X2608836Y36110840D02*
X2751693Y36110840D01*
X2751693Y36110840D02*
X2942169Y36063221D01*
X2942169Y36063221D02*
X3037407Y36015602D01*
X3037407Y36015602D02*
X3132645Y35920364D01*
X3132645Y35920364D02*
X3180264Y35777507D01*
X3180264Y35777507D02*
X3180264Y35682269D01*
X3180264Y35682269D02*
X3132645Y35539412D01*
X3132645Y35539412D02*
X3085026Y35491793D01*
X2180264Y34634650D02*
X2704074Y34634650D01*
X2704074Y34634650D02*
X2799312Y34682269D01*
X2799312Y34682269D02*
X2846931Y34777507D01*
X2846931Y34777507D02*
X2846931Y34967983D01*
X2846931Y34967983D02*
X2799312Y35063221D01*
X2227884Y34634650D02*
X2180264Y34729888D01*
X2180264Y34729888D02*
X2180264Y34967983D01*
X2180264Y34967983D02*
X2227884Y35063221D01*
X2227884Y35063221D02*
X2323122Y35110840D01*
X2323122Y35110840D02*
X2418360Y35110840D01*
X2418360Y35110840D02*
X2513598Y35063221D01*
X2513598Y35063221D02*
X2561217Y34967983D01*
X2561217Y34967983D02*
X2561217Y34729888D01*
X2561217Y34729888D02*
X2608836Y34634650D01*
X2180264Y34158459D02*
X2846931Y34158459D01*
X2751693Y34158459D02*
X2799312Y34110840D01*
X2799312Y34110840D02*
X2846931Y34015602D01*
X2846931Y34015602D02*
X2846931Y33872745D01*
X2846931Y33872745D02*
X2799312Y33777507D01*
X2799312Y33777507D02*
X2704074Y33729888D01*
X2704074Y33729888D02*
X2180264Y33729888D01*
X2704074Y33729888D02*
X2799312Y33682269D01*
X2799312Y33682269D02*
X2846931Y33587031D01*
X2846931Y33587031D02*
X2846931Y33444174D01*
X2846931Y33444174D02*
X2799312Y33348935D01*
X2799312Y33348935D02*
X2704074Y33301316D01*
X2704074Y33301316D02*
X2180264Y33301316D01*
X2180264Y32063221D02*
X3180264Y32063221D01*
X2180264Y31491793D02*
X2751693Y31920364D01*
X3180264Y31491793D02*
X2608836Y32063221D01*
X2704074Y29967983D02*
X2656455Y29825126D01*
X2656455Y29825126D02*
X2608836Y29777507D01*
X2608836Y29777507D02*
X2513598Y29729888D01*
X2513598Y29729888D02*
X2370741Y29729888D01*
X2370741Y29729888D02*
X2275503Y29777507D01*
X2275503Y29777507D02*
X2227884Y29825126D01*
X2227884Y29825126D02*
X2180264Y29920364D01*
X2180264Y29920364D02*
X2180264Y30301316D01*
X2180264Y30301316D02*
X3180264Y30301316D01*
X3180264Y30301316D02*
X3180264Y29967983D01*
X3180264Y29967983D02*
X3132645Y29872745D01*
X3132645Y29872745D02*
X3085026Y29825126D01*
X3085026Y29825126D02*
X2989788Y29777507D01*
X2989788Y29777507D02*
X2894550Y29777507D01*
X2894550Y29777507D02*
X2799312Y29825126D01*
X2799312Y29825126D02*
X2751693Y29872745D01*
X2751693Y29872745D02*
X2704074Y29967983D01*
X2704074Y29967983D02*
X2704074Y30301316D01*
X2180264Y29301316D02*
X2846931Y29301316D01*
X2656455Y29301316D02*
X2751693Y29253697D01*
X2751693Y29253697D02*
X2799312Y29206078D01*
X2799312Y29206078D02*
X2846931Y29110840D01*
X2846931Y29110840D02*
X2846931Y29015602D01*
X2180264Y28539411D02*
X2227884Y28634649D01*
X2227884Y28634649D02*
X2275503Y28682268D01*
X2275503Y28682268D02*
X2370741Y28729887D01*
X2370741Y28729887D02*
X2656455Y28729887D01*
X2656455Y28729887D02*
X2751693Y28682268D01*
X2751693Y28682268D02*
X2799312Y28634649D01*
X2799312Y28634649D02*
X2846931Y28539411D01*
X2846931Y28539411D02*
X2846931Y28396554D01*
X2846931Y28396554D02*
X2799312Y28301316D01*
X2799312Y28301316D02*
X2751693Y28253697D01*
X2751693Y28253697D02*
X2656455Y28206078D01*
X2656455Y28206078D02*
X2370741Y28206078D01*
X2370741Y28206078D02*
X2275503Y28253697D01*
X2275503Y28253697D02*
X2227884Y28301316D01*
X2227884Y28301316D02*
X2180264Y28396554D01*
X2180264Y28396554D02*
X2180264Y28539411D01*
X2180264Y27634649D02*
X2227884Y27729887D01*
X2227884Y27729887D02*
X2275503Y27777506D01*
X2275503Y27777506D02*
X2370741Y27825125D01*
X2370741Y27825125D02*
X2656455Y27825125D01*
X2656455Y27825125D02*
X2751693Y27777506D01*
X2751693Y27777506D02*
X2799312Y27729887D01*
X2799312Y27729887D02*
X2846931Y27634649D01*
X2846931Y27634649D02*
X2846931Y27491792D01*
X2846931Y27491792D02*
X2799312Y27396554D01*
X2799312Y27396554D02*
X2751693Y27348935D01*
X2751693Y27348935D02*
X2656455Y27301316D01*
X2656455Y27301316D02*
X2370741Y27301316D01*
X2370741Y27301316D02*
X2275503Y27348935D01*
X2275503Y27348935D02*
X2227884Y27396554D01*
X2227884Y27396554D02*
X2180264Y27491792D01*
X2180264Y27491792D02*
X2180264Y27634649D01*
X2180264Y26872744D02*
X3180264Y26872744D01*
X2561217Y26777506D02*
X2180264Y26491792D01*
X2846931Y26491792D02*
X2465979Y26872744D01*
X2227884Y26110839D02*
X2180264Y26015601D01*
X2180264Y26015601D02*
X2180264Y25825125D01*
X2180264Y25825125D02*
X2227884Y25729887D01*
X2227884Y25729887D02*
X2323122Y25682268D01*
X2323122Y25682268D02*
X2370741Y25682268D01*
X2370741Y25682268D02*
X2465979Y25729887D01*
X2465979Y25729887D02*
X2513598Y25825125D01*
X2513598Y25825125D02*
X2513598Y25967982D01*
X2513598Y25967982D02*
X2561217Y26063220D01*
X2561217Y26063220D02*
X2656455Y26110839D01*
X2656455Y26110839D02*
X2704074Y26110839D01*
X2704074Y26110839D02*
X2799312Y26063220D01*
X2799312Y26063220D02*
X2846931Y25967982D01*
X2846931Y25967982D02*
X2846931Y25825125D01*
X2846931Y25825125D02*
X2799312Y25729887D01*
X570320Y36063221D02*
X1236987Y36063221D01*
X1046511Y36063221D02*
X1141749Y36015602D01*
X1141749Y36015602D02*
X1189368Y35967983D01*
X1189368Y35967983D02*
X1236987Y35872745D01*
X1236987Y35872745D02*
X1236987Y35777507D01*
X617940Y35063221D02*
X570320Y35158459D01*
X570320Y35158459D02*
X570320Y35348935D01*
X570320Y35348935D02*
X617940Y35444173D01*
X617940Y35444173D02*
X713178Y35491792D01*
X713178Y35491792D02*
X1094130Y35491792D01*
X1094130Y35491792D02*
X1189368Y35444173D01*
X1189368Y35444173D02*
X1236987Y35348935D01*
X1236987Y35348935D02*
X1236987Y35158459D01*
X1236987Y35158459D02*
X1189368Y35063221D01*
X1189368Y35063221D02*
X1094130Y35015602D01*
X1094130Y35015602D02*
X998892Y35015602D01*
X998892Y35015602D02*
X903654Y35491792D01*
X1236987Y34682268D02*
X570320Y34444173D01*
X570320Y34444173D02*
X1236987Y34206078D01*
X665559Y33825125D02*
X617940Y33777506D01*
X617940Y33777506D02*
X570320Y33825125D01*
X570320Y33825125D02*
X617940Y33872744D01*
X617940Y33872744D02*
X665559Y33825125D01*
X665559Y33825125D02*
X570320Y33825125D01*
X856035Y33396554D02*
X856035Y32920364D01*
X570320Y33491792D02*
X1570320Y33158459D01*
X1570320Y33158459D02*
X570320Y32825126D01*
X236987Y31444173D02*
X236987Y31682268D01*
X236987Y31682268D02*
X1665559Y31682268D01*
X1665559Y31682268D02*
X1665559Y31444173D01*
X1570320Y30872744D02*
X1570320Y30777506D01*
X1570320Y30777506D02*
X1522701Y30682268D01*
X1522701Y30682268D02*
X1475082Y30634649D01*
X1475082Y30634649D02*
X1379844Y30587030D01*
X1379844Y30587030D02*
X1189368Y30539411D01*
X1189368Y30539411D02*
X951273Y30539411D01*
X951273Y30539411D02*
X760797Y30587030D01*
X760797Y30587030D02*
X665559Y30634649D01*
X665559Y30634649D02*
X617940Y30682268D01*
X617940Y30682268D02*
X570320Y30777506D01*
X570320Y30777506D02*
X570320Y30872744D01*
X570320Y30872744D02*
X617940Y30967982D01*
X617940Y30967982D02*
X665559Y31015601D01*
X665559Y31015601D02*
X760797Y31063220D01*
X760797Y31063220D02*
X951273Y31110839D01*
X951273Y31110839D02*
X1189368Y31110839D01*
X1189368Y31110839D02*
X1379844Y31063220D01*
X1379844Y31063220D02*
X1475082Y31015601D01*
X1475082Y31015601D02*
X1522701Y30967982D01*
X1522701Y30967982D02*
X1570320Y30872744D01*
X570320Y30063220D02*
X570320Y29872744D01*
X570320Y29872744D02*
X617940Y29777506D01*
X617940Y29777506D02*
X665559Y29729887D01*
X665559Y29729887D02*
X808416Y29634649D01*
X808416Y29634649D02*
X998892Y29587030D01*
X998892Y29587030D02*
X1379844Y29587030D01*
X1379844Y29587030D02*
X1475082Y29634649D01*
X1475082Y29634649D02*
X1522701Y29682268D01*
X1522701Y29682268D02*
X1570320Y29777506D01*
X1570320Y29777506D02*
X1570320Y29967982D01*
X1570320Y29967982D02*
X1522701Y30063220D01*
X1522701Y30063220D02*
X1475082Y30110839D01*
X1475082Y30110839D02*
X1379844Y30158458D01*
X1379844Y30158458D02*
X1141749Y30158458D01*
X1141749Y30158458D02*
X1046511Y30110839D01*
X1046511Y30110839D02*
X998892Y30063220D01*
X998892Y30063220D02*
X951273Y29967982D01*
X951273Y29967982D02*
X951273Y29777506D01*
X951273Y29777506D02*
X998892Y29682268D01*
X998892Y29682268D02*
X1046511Y29634649D01*
X1046511Y29634649D02*
X1141749Y29587030D01*
X951273Y29158458D02*
X951273Y28396553D01*
X1475082Y27967982D02*
X1522701Y27920363D01*
X1522701Y27920363D02*
X1570320Y27825125D01*
X1570320Y27825125D02*
X1570320Y27587030D01*
X1570320Y27587030D02*
X1522701Y27491792D01*
X1522701Y27491792D02*
X1475082Y27444173D01*
X1475082Y27444173D02*
X1379844Y27396554D01*
X1379844Y27396554D02*
X1284606Y27396554D01*
X1284606Y27396554D02*
X1141749Y27444173D01*
X1141749Y27444173D02*
X570320Y28015601D01*
X570320Y28015601D02*
X570320Y27396554D01*
X1570320Y26777506D02*
X1570320Y26682268D01*
X1570320Y26682268D02*
X1522701Y26587030D01*
X1522701Y26587030D02*
X1475082Y26539411D01*
X1475082Y26539411D02*
X1379844Y26491792D01*
X1379844Y26491792D02*
X1189368Y26444173D01*
X1189368Y26444173D02*
X951273Y26444173D01*
X951273Y26444173D02*
X760797Y26491792D01*
X760797Y26491792D02*
X665559Y26539411D01*
X665559Y26539411D02*
X617940Y26587030D01*
X617940Y26587030D02*
X570320Y26682268D01*
X570320Y26682268D02*
X570320Y26777506D01*
X570320Y26777506D02*
X617940Y26872744D01*
X617940Y26872744D02*
X665559Y26920363D01*
X665559Y26920363D02*
X760797Y26967982D01*
X760797Y26967982D02*
X951273Y27015601D01*
X951273Y27015601D02*
X1189368Y27015601D01*
X1189368Y27015601D02*
X1379844Y26967982D01*
X1379844Y26967982D02*
X1475082Y26920363D01*
X1475082Y26920363D02*
X1522701Y26872744D01*
X1522701Y26872744D02*
X1570320Y26777506D01*
X1475082Y26063220D02*
X1522701Y26015601D01*
X1522701Y26015601D02*
X1570320Y25920363D01*
X1570320Y25920363D02*
X1570320Y25682268D01*
X1570320Y25682268D02*
X1522701Y25587030D01*
X1522701Y25587030D02*
X1475082Y25539411D01*
X1475082Y25539411D02*
X1379844Y25491792D01*
X1379844Y25491792D02*
X1284606Y25491792D01*
X1284606Y25491792D02*
X1141749Y25539411D01*
X1141749Y25539411D02*
X570320Y26110839D01*
X570320Y26110839D02*
X570320Y25491792D01*
X1236987Y24634649D02*
X570320Y24634649D01*
X1617940Y24872744D02*
X903654Y25110839D01*
X903654Y25110839D02*
X903654Y24491792D01*
X236987Y24206077D02*
X236987Y23967982D01*
X236987Y23967982D02*
X1665559Y23967982D01*
X1665559Y23967982D02*
X1665559Y24206077D01*
X6686666Y61877610D02*
X6610476Y61915705D01*
X6610476Y61915705D02*
X6496190Y61915705D01*
X6496190Y61915705D02*
X6381904Y61877610D01*
X6381904Y61877610D02*
X6305714Y61801420D01*
X6305714Y61801420D02*
X6267619Y61725229D01*
X6267619Y61725229D02*
X6229523Y61572848D01*
X6229523Y61572848D02*
X6229523Y61458562D01*
X6229523Y61458562D02*
X6267619Y61306181D01*
X6267619Y61306181D02*
X6305714Y61229991D01*
X6305714Y61229991D02*
X6381904Y61153800D01*
X6381904Y61153800D02*
X6496190Y61115705D01*
X6496190Y61115705D02*
X6572381Y61115705D01*
X6572381Y61115705D02*
X6686666Y61153800D01*
X6686666Y61153800D02*
X6724762Y61191896D01*
X6724762Y61191896D02*
X6724762Y61458562D01*
X6724762Y61458562D02*
X6572381Y61458562D01*
X7067619Y61115705D02*
X7067619Y61915705D01*
X7067619Y61915705D02*
X7524762Y61115705D01*
X7524762Y61115705D02*
X7524762Y61915705D01*
X7905714Y61115705D02*
X7905714Y61915705D01*
X7905714Y61915705D02*
X8096190Y61915705D01*
X8096190Y61915705D02*
X8210476Y61877610D01*
X8210476Y61877610D02*
X8286666Y61801420D01*
X8286666Y61801420D02*
X8324761Y61725229D01*
X8324761Y61725229D02*
X8362857Y61572848D01*
X8362857Y61572848D02*
X8362857Y61458562D01*
X8362857Y61458562D02*
X8324761Y61306181D01*
X8324761Y61306181D02*
X8286666Y61229991D01*
X8286666Y61229991D02*
X8210476Y61153800D01*
X8210476Y61153800D02*
X8096190Y61115705D01*
X8096190Y61115705D02*
X7905714Y61115705D01*
X6267618Y48834753D02*
X6534284Y48834753D01*
X6648570Y48415705D02*
X6267618Y48415705D01*
X6267618Y48415705D02*
X6267618Y49215705D01*
X6267618Y49215705D02*
X6648570Y49215705D01*
X6953332Y48453800D02*
X7067618Y48415705D01*
X7067618Y48415705D02*
X7258094Y48415705D01*
X7258094Y48415705D02*
X7334285Y48453800D01*
X7334285Y48453800D02*
X7372380Y48491896D01*
X7372380Y48491896D02*
X7410475Y48568086D01*
X7410475Y48568086D02*
X7410475Y48644277D01*
X7410475Y48644277D02*
X7372380Y48720467D01*
X7372380Y48720467D02*
X7334285Y48758562D01*
X7334285Y48758562D02*
X7258094Y48796658D01*
X7258094Y48796658D02*
X7105713Y48834753D01*
X7105713Y48834753D02*
X7029523Y48872848D01*
X7029523Y48872848D02*
X6991428Y48910943D01*
X6991428Y48910943D02*
X6953332Y48987134D01*
X6953332Y48987134D02*
X6953332Y49063324D01*
X6953332Y49063324D02*
X6991428Y49139515D01*
X6991428Y49139515D02*
X7029523Y49177610D01*
X7029523Y49177610D02*
X7105713Y49215705D01*
X7105713Y49215705D02*
X7296190Y49215705D01*
X7296190Y49215705D02*
X7410475Y49177610D01*
X7639047Y49215705D02*
X8096190Y49215705D01*
X7867618Y48415705D02*
X7867618Y49215705D01*
X8515238Y49215705D02*
X8667619Y49215705D01*
X8667619Y49215705D02*
X8743809Y49177610D01*
X8743809Y49177610D02*
X8820000Y49101420D01*
X8820000Y49101420D02*
X8858095Y48949039D01*
X8858095Y48949039D02*
X8858095Y48682372D01*
X8858095Y48682372D02*
X8820000Y48529991D01*
X8820000Y48529991D02*
X8743809Y48453800D01*
X8743809Y48453800D02*
X8667619Y48415705D01*
X8667619Y48415705D02*
X8515238Y48415705D01*
X8515238Y48415705D02*
X8439047Y48453800D01*
X8439047Y48453800D02*
X8362857Y48529991D01*
X8362857Y48529991D02*
X8324761Y48682372D01*
X8324761Y48682372D02*
X8324761Y48949039D01*
X8324761Y48949039D02*
X8362857Y49101420D01*
X8362857Y49101420D02*
X8439047Y49177610D01*
X8439047Y49177610D02*
X8515238Y49215705D01*
X9200952Y48415705D02*
X9200952Y49215705D01*
X9200952Y49215705D02*
X9505714Y49215705D01*
X9505714Y49215705D02*
X9581904Y49177610D01*
X9581904Y49177610D02*
X9619999Y49139515D01*
X9619999Y49139515D02*
X9658095Y49063324D01*
X9658095Y49063324D02*
X9658095Y48949039D01*
X9658095Y48949039D02*
X9619999Y48872848D01*
X9619999Y48872848D02*
X9581904Y48834753D01*
X9581904Y48834753D02*
X9505714Y48796658D01*
X9505714Y48796658D02*
X9200952Y48796658D01*
X6267619Y43315705D02*
X6267619Y44115705D01*
X6648571Y43315705D02*
X6648571Y44115705D01*
X6648571Y44115705D02*
X7105714Y43315705D01*
X7105714Y43315705D02*
X7105714Y44115705D01*
X7372380Y44115705D02*
X7829523Y44115705D01*
X7600951Y43315705D02*
X7600951Y44115705D01*
X6229523Y53503800D02*
X6343809Y53465705D01*
X6343809Y53465705D02*
X6534285Y53465705D01*
X6534285Y53465705D02*
X6610476Y53503800D01*
X6610476Y53503800D02*
X6648571Y53541896D01*
X6648571Y53541896D02*
X6686666Y53618086D01*
X6686666Y53618086D02*
X6686666Y53694277D01*
X6686666Y53694277D02*
X6648571Y53770467D01*
X6648571Y53770467D02*
X6610476Y53808562D01*
X6610476Y53808562D02*
X6534285Y53846658D01*
X6534285Y53846658D02*
X6381904Y53884753D01*
X6381904Y53884753D02*
X6305714Y53922848D01*
X6305714Y53922848D02*
X6267619Y53960943D01*
X6267619Y53960943D02*
X6229523Y54037134D01*
X6229523Y54037134D02*
X6229523Y54113324D01*
X6229523Y54113324D02*
X6267619Y54189515D01*
X6267619Y54189515D02*
X6305714Y54227610D01*
X6305714Y54227610D02*
X6381904Y54265705D01*
X6381904Y54265705D02*
X6572381Y54265705D01*
X6572381Y54265705D02*
X6686666Y54227610D01*
X7029524Y53465705D02*
X7029524Y54265705D01*
X7029524Y54265705D02*
X7220000Y54265705D01*
X7220000Y54265705D02*
X7334286Y54227610D01*
X7334286Y54227610D02*
X7410476Y54151420D01*
X7410476Y54151420D02*
X7448571Y54075229D01*
X7448571Y54075229D02*
X7486667Y53922848D01*
X7486667Y53922848D02*
X7486667Y53808562D01*
X7486667Y53808562D02*
X7448571Y53656181D01*
X7448571Y53656181D02*
X7410476Y53579991D01*
X7410476Y53579991D02*
X7334286Y53503800D01*
X7334286Y53503800D02*
X7220000Y53465705D01*
X7220000Y53465705D02*
X7029524Y53465705D01*
X7791428Y53694277D02*
X8172381Y53694277D01*
X7715238Y53465705D02*
X7981905Y54265705D01*
X7981905Y54265705D02*
X8248571Y53465705D01*
X6229523Y56053800D02*
X6343809Y56015705D01*
X6343809Y56015705D02*
X6534285Y56015705D01*
X6534285Y56015705D02*
X6610476Y56053800D01*
X6610476Y56053800D02*
X6648571Y56091896D01*
X6648571Y56091896D02*
X6686666Y56168086D01*
X6686666Y56168086D02*
X6686666Y56244277D01*
X6686666Y56244277D02*
X6648571Y56320467D01*
X6648571Y56320467D02*
X6610476Y56358562D01*
X6610476Y56358562D02*
X6534285Y56396658D01*
X6534285Y56396658D02*
X6381904Y56434753D01*
X6381904Y56434753D02*
X6305714Y56472848D01*
X6305714Y56472848D02*
X6267619Y56510943D01*
X6267619Y56510943D02*
X6229523Y56587134D01*
X6229523Y56587134D02*
X6229523Y56663324D01*
X6229523Y56663324D02*
X6267619Y56739515D01*
X6267619Y56739515D02*
X6305714Y56777610D01*
X6305714Y56777610D02*
X6381904Y56815705D01*
X6381904Y56815705D02*
X6572381Y56815705D01*
X6572381Y56815705D02*
X6686666Y56777610D01*
X7486667Y56091896D02*
X7448571Y56053800D01*
X7448571Y56053800D02*
X7334286Y56015705D01*
X7334286Y56015705D02*
X7258095Y56015705D01*
X7258095Y56015705D02*
X7143809Y56053800D01*
X7143809Y56053800D02*
X7067619Y56129991D01*
X7067619Y56129991D02*
X7029524Y56206181D01*
X7029524Y56206181D02*
X6991428Y56358562D01*
X6991428Y56358562D02*
X6991428Y56472848D01*
X6991428Y56472848D02*
X7029524Y56625229D01*
X7029524Y56625229D02*
X7067619Y56701420D01*
X7067619Y56701420D02*
X7143809Y56777610D01*
X7143809Y56777610D02*
X7258095Y56815705D01*
X7258095Y56815705D02*
X7334286Y56815705D01*
X7334286Y56815705D02*
X7448571Y56777610D01*
X7448571Y56777610D02*
X7486667Y56739515D01*
X8210476Y56015705D02*
X7829524Y56015705D01*
X7829524Y56015705D02*
X7829524Y56815705D01*
X27944009Y9892858D02*
X27944009Y10845239D01*
X28515438Y9702382D02*
X26515438Y10369048D01*
X26515438Y10369048D02*
X28515438Y11035715D01*
X28515438Y12845239D02*
X27563057Y12178572D01*
X28515438Y11702382D02*
X26515438Y11702382D01*
X26515438Y11702382D02*
X26515438Y12464287D01*
X26515438Y12464287D02*
X26610676Y12654763D01*
X26610676Y12654763D02*
X26705914Y12750001D01*
X26705914Y12750001D02*
X26896390Y12845239D01*
X26896390Y12845239D02*
X27182104Y12845239D01*
X27182104Y12845239D02*
X27372580Y12750001D01*
X27372580Y12750001D02*
X27467819Y12654763D01*
X27467819Y12654763D02*
X27563057Y12464287D01*
X27563057Y12464287D02*
X27563057Y11702382D01*
X28515438Y13702382D02*
X26515438Y13702382D01*
X26515438Y13702382D02*
X26515438Y14178572D01*
X26515438Y14178572D02*
X26610676Y14464287D01*
X26610676Y14464287D02*
X26801152Y14654763D01*
X26801152Y14654763D02*
X26991628Y14750001D01*
X26991628Y14750001D02*
X27372580Y14845239D01*
X27372580Y14845239D02*
X27658295Y14845239D01*
X27658295Y14845239D02*
X28039247Y14750001D01*
X28039247Y14750001D02*
X28229723Y14654763D01*
X28229723Y14654763D02*
X28420200Y14464287D01*
X28420200Y14464287D02*
X28515438Y14178572D01*
X28515438Y14178572D02*
X28515438Y13702382D01*
X26515438Y15702382D02*
X28134485Y15702382D01*
X28134485Y15702382D02*
X28324961Y15797620D01*
X28324961Y15797620D02*
X28420200Y15892858D01*
X28420200Y15892858D02*
X28515438Y16083334D01*
X28515438Y16083334D02*
X28515438Y16464287D01*
X28515438Y16464287D02*
X28420200Y16654763D01*
X28420200Y16654763D02*
X28324961Y16750001D01*
X28324961Y16750001D02*
X28134485Y16845239D01*
X28134485Y16845239D02*
X26515438Y16845239D01*
X28515438Y17797620D02*
X26515438Y17797620D01*
X28515438Y18750001D02*
X26515438Y18750001D01*
X26515438Y18750001D02*
X28515438Y19892858D01*
X28515438Y19892858D02*
X26515438Y19892858D01*
X26515438Y21226191D02*
X26515438Y21607144D01*
X26515438Y21607144D02*
X26610676Y21797620D01*
X26610676Y21797620D02*
X26801152Y21988096D01*
X26801152Y21988096D02*
X27182104Y22083334D01*
X27182104Y22083334D02*
X27848771Y22083334D01*
X27848771Y22083334D02*
X28229723Y21988096D01*
X28229723Y21988096D02*
X28420200Y21797620D01*
X28420200Y21797620D02*
X28515438Y21607144D01*
X28515438Y21607144D02*
X28515438Y21226191D01*
X28515438Y21226191D02*
X28420200Y21035715D01*
X28420200Y21035715D02*
X28229723Y20845239D01*
X28229723Y20845239D02*
X27848771Y20750001D01*
X27848771Y20750001D02*
X27182104Y20750001D01*
X27182104Y20750001D02*
X26801152Y20845239D01*
X26801152Y20845239D02*
X26610676Y21035715D01*
X26610676Y21035715D02*
X26515438Y21226191D01*
X28515438Y24464287D02*
X26515438Y24464287D01*
X26515438Y24464287D02*
X28515438Y25607144D01*
X28515438Y25607144D02*
X26515438Y25607144D01*
X27944009Y26464287D02*
X27944009Y27416668D01*
X28515438Y26273811D02*
X26515438Y26940477D01*
X26515438Y26940477D02*
X28515438Y27607144D01*
X28515438Y28273811D02*
X26515438Y28273811D01*
X26515438Y28273811D02*
X28515438Y29416668D01*
X28515438Y29416668D02*
X26515438Y29416668D01*
X26515438Y30750001D02*
X26515438Y31130954D01*
X26515438Y31130954D02*
X26610676Y31321430D01*
X26610676Y31321430D02*
X26801152Y31511906D01*
X26801152Y31511906D02*
X27182104Y31607144D01*
X27182104Y31607144D02*
X27848771Y31607144D01*
X27848771Y31607144D02*
X28229723Y31511906D01*
X28229723Y31511906D02*
X28420200Y31321430D01*
X28420200Y31321430D02*
X28515438Y31130954D01*
X28515438Y31130954D02*
X28515438Y30750001D01*
X28515438Y30750001D02*
X28420200Y30559525D01*
X28420200Y30559525D02*
X28229723Y30369049D01*
X28229723Y30369049D02*
X27848771Y30273811D01*
X27848771Y30273811D02*
X27182104Y30273811D01*
X27182104Y30273811D02*
X26801152Y30369049D01*
X26801152Y30369049D02*
X26610676Y30559525D01*
X26610676Y30559525D02*
X26515438Y30750001D01*
X6686666Y58565705D02*
X6229523Y58565705D01*
X6458095Y58565705D02*
X6458095Y59365705D01*
X6458095Y59365705D02*
X6381904Y59251420D01*
X6381904Y59251420D02*
X6305714Y59175229D01*
X6305714Y59175229D02*
X6229523Y59137134D01*
X6991428Y59289515D02*
X7029524Y59327610D01*
X7029524Y59327610D02*
X7105714Y59365705D01*
X7105714Y59365705D02*
X7296190Y59365705D01*
X7296190Y59365705D02*
X7372381Y59327610D01*
X7372381Y59327610D02*
X7410476Y59289515D01*
X7410476Y59289515D02*
X7448571Y59213324D01*
X7448571Y59213324D02*
X7448571Y59137134D01*
X7448571Y59137134D02*
X7410476Y59022848D01*
X7410476Y59022848D02*
X6953333Y58565705D01*
X6953333Y58565705D02*
X7448571Y58565705D01*
X7677143Y59365705D02*
X7943810Y58565705D01*
X7943810Y58565705D02*
X8210476Y59365705D01*
X9111905Y93745181D02*
X9111905Y94745181D01*
X9111905Y94745181D02*
X9350000Y94745181D01*
X9350000Y94745181D02*
X9492857Y94697562D01*
X9492857Y94697562D02*
X9588095Y94602324D01*
X9588095Y94602324D02*
X9635714Y94507086D01*
X9635714Y94507086D02*
X9683333Y94316610D01*
X9683333Y94316610D02*
X9683333Y94173753D01*
X9683333Y94173753D02*
X9635714Y93983277D01*
X9635714Y93983277D02*
X9588095Y93888039D01*
X9588095Y93888039D02*
X9492857Y93792800D01*
X9492857Y93792800D02*
X9350000Y93745181D01*
X9350000Y93745181D02*
X9111905Y93745181D01*
X10064286Y94649943D02*
X10111905Y94697562D01*
X10111905Y94697562D02*
X10207143Y94745181D01*
X10207143Y94745181D02*
X10445238Y94745181D01*
X10445238Y94745181D02*
X10540476Y94697562D01*
X10540476Y94697562D02*
X10588095Y94649943D01*
X10588095Y94649943D02*
X10635714Y94554705D01*
X10635714Y94554705D02*
X10635714Y94459467D01*
X10635714Y94459467D02*
X10588095Y94316610D01*
X10588095Y94316610D02*
X10016667Y93745181D01*
X10016667Y93745181D02*
X10635714Y93745181D01*
X16049714Y41994896D02*
X16525904Y41994896D01*
X15954476Y41709181D02*
X16287809Y42709181D01*
X16287809Y42709181D02*
X16621142Y41709181D01*
X17478285Y41709181D02*
X16906857Y41709181D01*
X17192571Y41709181D02*
X17192571Y42709181D01*
X17192571Y42709181D02*
X17097333Y42566324D01*
X17097333Y42566324D02*
X17002095Y42471086D01*
X17002095Y42471086D02*
X16906857Y42423467D01*
X26346095Y4785181D02*
X26346095Y3975658D01*
X26346095Y3975658D02*
X26393714Y3880420D01*
X26393714Y3880420D02*
X26441333Y3832800D01*
X26441333Y3832800D02*
X26536571Y3785181D01*
X26536571Y3785181D02*
X26727047Y3785181D01*
X26727047Y3785181D02*
X26822285Y3832800D01*
X26822285Y3832800D02*
X26869904Y3880420D01*
X26869904Y3880420D02*
X26917523Y3975658D01*
X26917523Y3975658D02*
X26917523Y4785181D01*
X27346095Y3832800D02*
X27488952Y3785181D01*
X27488952Y3785181D02*
X27727047Y3785181D01*
X27727047Y3785181D02*
X27822285Y3832800D01*
X27822285Y3832800D02*
X27869904Y3880420D01*
X27869904Y3880420D02*
X27917523Y3975658D01*
X27917523Y3975658D02*
X27917523Y4070896D01*
X27917523Y4070896D02*
X27869904Y4166134D01*
X27869904Y4166134D02*
X27822285Y4213753D01*
X27822285Y4213753D02*
X27727047Y4261372D01*
X27727047Y4261372D02*
X27536571Y4308991D01*
X27536571Y4308991D02*
X27441333Y4356610D01*
X27441333Y4356610D02*
X27393714Y4404229D01*
X27393714Y4404229D02*
X27346095Y4499467D01*
X27346095Y4499467D02*
X27346095Y4594705D01*
X27346095Y4594705D02*
X27393714Y4689943D01*
X27393714Y4689943D02*
X27441333Y4737562D01*
X27441333Y4737562D02*
X27536571Y4785181D01*
X27536571Y4785181D02*
X27774666Y4785181D01*
X27774666Y4785181D02*
X27917523Y4737562D01*
X28679428Y4308991D02*
X28822285Y4261372D01*
X28822285Y4261372D02*
X28869904Y4213753D01*
X28869904Y4213753D02*
X28917523Y4118515D01*
X28917523Y4118515D02*
X28917523Y3975658D01*
X28917523Y3975658D02*
X28869904Y3880420D01*
X28869904Y3880420D02*
X28822285Y3832800D01*
X28822285Y3832800D02*
X28727047Y3785181D01*
X28727047Y3785181D02*
X28346095Y3785181D01*
X28346095Y3785181D02*
X28346095Y4785181D01*
X28346095Y4785181D02*
X28679428Y4785181D01*
X28679428Y4785181D02*
X28774666Y4737562D01*
X28774666Y4737562D02*
X28822285Y4689943D01*
X28822285Y4689943D02*
X28869904Y4594705D01*
X28869904Y4594705D02*
X28869904Y4499467D01*
X28869904Y4499467D02*
X28822285Y4404229D01*
X28822285Y4404229D02*
X28774666Y4356610D01*
X28774666Y4356610D02*
X28679428Y4308991D01*
X28679428Y4308991D02*
X28346095Y4308991D01*
X666666Y59445181D02*
X666666Y58730896D01*
X666666Y58730896D02*
X619047Y58588039D01*
X619047Y58588039D02*
X523809Y58492800D01*
X523809Y58492800D02*
X380952Y58445181D01*
X380952Y58445181D02*
X285714Y58445181D01*
X1095238Y59349943D02*
X1142857Y59397562D01*
X1142857Y59397562D02*
X1238095Y59445181D01*
X1238095Y59445181D02*
X1476190Y59445181D01*
X1476190Y59445181D02*
X1571428Y59397562D01*
X1571428Y59397562D02*
X1619047Y59349943D01*
X1619047Y59349943D02*
X1666666Y59254705D01*
X1666666Y59254705D02*
X1666666Y59159467D01*
X1666666Y59159467D02*
X1619047Y59016610D01*
X1619047Y59016610D02*
X1047619Y58445181D01*
X1047619Y58445181D02*
X1666666Y58445181D01*
D11*
X5345238Y11192581D02*
X5345238Y12192581D01*
X5345238Y11716391D02*
X5916666Y11716391D01*
X5916666Y11192581D02*
X5916666Y12192581D01*
X6773809Y11240200D02*
X6678571Y11192581D01*
X6678571Y11192581D02*
X6488095Y11192581D01*
X6488095Y11192581D02*
X6392857Y11240200D01*
X6392857Y11240200D02*
X6345238Y11335439D01*
X6345238Y11335439D02*
X6345238Y11716391D01*
X6345238Y11716391D02*
X6392857Y11811629D01*
X6392857Y11811629D02*
X6488095Y11859248D01*
X6488095Y11859248D02*
X6678571Y11859248D01*
X6678571Y11859248D02*
X6773809Y11811629D01*
X6773809Y11811629D02*
X6821428Y11716391D01*
X6821428Y11716391D02*
X6821428Y11621153D01*
X6821428Y11621153D02*
X6345238Y11525915D01*
X7678571Y11192581D02*
X7678571Y11716391D01*
X7678571Y11716391D02*
X7630952Y11811629D01*
X7630952Y11811629D02*
X7535714Y11859248D01*
X7535714Y11859248D02*
X7345238Y11859248D01*
X7345238Y11859248D02*
X7250000Y11811629D01*
X7678571Y11240200D02*
X7583333Y11192581D01*
X7583333Y11192581D02*
X7345238Y11192581D01*
X7345238Y11192581D02*
X7250000Y11240200D01*
X7250000Y11240200D02*
X7202381Y11335439D01*
X7202381Y11335439D02*
X7202381Y11430677D01*
X7202381Y11430677D02*
X7250000Y11525915D01*
X7250000Y11525915D02*
X7345238Y11573534D01*
X7345238Y11573534D02*
X7583333Y11573534D01*
X7583333Y11573534D02*
X7678571Y11621153D01*
X8011905Y11859248D02*
X8392857Y11859248D01*
X8154762Y12192581D02*
X8154762Y11335439D01*
X8154762Y11335439D02*
X8202381Y11240200D01*
X8202381Y11240200D02*
X8297619Y11192581D01*
X8297619Y11192581D02*
X8392857Y11192581D01*
X9440477Y11240200D02*
X9583334Y11192581D01*
X9583334Y11192581D02*
X9821429Y11192581D01*
X9821429Y11192581D02*
X9916667Y11240200D01*
X9916667Y11240200D02*
X9964286Y11287820D01*
X9964286Y11287820D02*
X10011905Y11383058D01*
X10011905Y11383058D02*
X10011905Y11478296D01*
X10011905Y11478296D02*
X9964286Y11573534D01*
X9964286Y11573534D02*
X9916667Y11621153D01*
X9916667Y11621153D02*
X9821429Y11668772D01*
X9821429Y11668772D02*
X9630953Y11716391D01*
X9630953Y11716391D02*
X9535715Y11764010D01*
X9535715Y11764010D02*
X9488096Y11811629D01*
X9488096Y11811629D02*
X9440477Y11906867D01*
X9440477Y11906867D02*
X9440477Y12002105D01*
X9440477Y12002105D02*
X9488096Y12097343D01*
X9488096Y12097343D02*
X9535715Y12144962D01*
X9535715Y12144962D02*
X9630953Y12192581D01*
X9630953Y12192581D02*
X9869048Y12192581D01*
X9869048Y12192581D02*
X10011905Y12144962D01*
X10440477Y11192581D02*
X10440477Y11859248D01*
X10440477Y12192581D02*
X10392858Y12144962D01*
X10392858Y12144962D02*
X10440477Y12097343D01*
X10440477Y12097343D02*
X10488096Y12144962D01*
X10488096Y12144962D02*
X10440477Y12192581D01*
X10440477Y12192581D02*
X10440477Y12097343D01*
X10916667Y11859248D02*
X10916667Y11192581D01*
X10916667Y11764010D02*
X10964286Y11811629D01*
X10964286Y11811629D02*
X11059524Y11859248D01*
X11059524Y11859248D02*
X11202381Y11859248D01*
X11202381Y11859248D02*
X11297619Y11811629D01*
X11297619Y11811629D02*
X11345238Y11716391D01*
X11345238Y11716391D02*
X11345238Y11192581D01*
X11821429Y11192581D02*
X11821429Y12192581D01*
X11916667Y11573534D02*
X12202381Y11192581D01*
X12202381Y11859248D02*
X11821429Y11478296D01*
D10*
X38854819Y56261906D02*
X37854819Y56261906D01*
X38854819Y56833334D02*
X38283390Y56404763D01*
X37854819Y56833334D02*
X38426247Y56261906D01*
X38854819Y57785715D02*
X38854819Y57214287D01*
X38854819Y57500001D02*
X37854819Y57500001D01*
X37854819Y57500001D02*
X37997676Y57404763D01*
X37997676Y57404763D02*
X38092914Y57309525D01*
X38092914Y57309525D02*
X38140533Y57214287D01*
X44501285Y85368991D02*
X44644142Y85321372D01*
X44644142Y85321372D02*
X44691761Y85273753D01*
X44691761Y85273753D02*
X44739380Y85178515D01*
X44739380Y85178515D02*
X44739380Y85035658D01*
X44739380Y85035658D02*
X44691761Y84940420D01*
X44691761Y84940420D02*
X44644142Y84892800D01*
X44644142Y84892800D02*
X44548904Y84845181D01*
X44548904Y84845181D02*
X44167952Y84845181D01*
X44167952Y84845181D02*
X44167952Y85845181D01*
X44167952Y85845181D02*
X44501285Y85845181D01*
X44501285Y85845181D02*
X44596523Y85797562D01*
X44596523Y85797562D02*
X44644142Y85749943D01*
X44644142Y85749943D02*
X44691761Y85654705D01*
X44691761Y85654705D02*
X44691761Y85559467D01*
X44691761Y85559467D02*
X44644142Y85464229D01*
X44644142Y85464229D02*
X44596523Y85416610D01*
X44596523Y85416610D02*
X44501285Y85368991D01*
X44501285Y85368991D02*
X44167952Y85368991D01*
X45025095Y85845181D02*
X45596523Y85845181D01*
X45310809Y84845181D02*
X45310809Y85845181D01*
X46453666Y84845181D02*
X45882238Y84845181D01*
X46167952Y84845181D02*
X46167952Y85845181D01*
X46167952Y85845181D02*
X46072714Y85702324D01*
X46072714Y85702324D02*
X45977476Y85607086D01*
X45977476Y85607086D02*
X45882238Y85559467D01*
X51954819Y67661906D02*
X50954819Y67661906D01*
X50954819Y67661906D02*
X50954819Y67900001D01*
X50954819Y67900001D02*
X51002438Y68042858D01*
X51002438Y68042858D02*
X51097676Y68138096D01*
X51097676Y68138096D02*
X51192914Y68185715D01*
X51192914Y68185715D02*
X51383390Y68233334D01*
X51383390Y68233334D02*
X51526247Y68233334D01*
X51526247Y68233334D02*
X51716723Y68185715D01*
X51716723Y68185715D02*
X51811961Y68138096D01*
X51811961Y68138096D02*
X51907200Y68042858D01*
X51907200Y68042858D02*
X51954819Y67900001D01*
X51954819Y67900001D02*
X51954819Y67661906D01*
X51288152Y69090477D02*
X51954819Y69090477D01*
X50907200Y68852382D02*
X51621485Y68614287D01*
X51621485Y68614287D02*
X51621485Y69233334D01*
X54154819Y65848096D02*
X53154819Y65848096D01*
X54154819Y66419524D02*
X53583390Y65990953D01*
X53154819Y66419524D02*
X53726247Y65848096D01*
X58288095Y30895181D02*
X58288095Y30085658D01*
X58288095Y30085658D02*
X58335714Y29990420D01*
X58335714Y29990420D02*
X58383333Y29942800D01*
X58383333Y29942800D02*
X58478571Y29895181D01*
X58478571Y29895181D02*
X58669047Y29895181D01*
X58669047Y29895181D02*
X58764285Y29942800D01*
X58764285Y29942800D02*
X58811904Y29990420D01*
X58811904Y29990420D02*
X58859523Y30085658D01*
X58859523Y30085658D02*
X58859523Y30895181D01*
X59764285Y30895181D02*
X59573809Y30895181D01*
X59573809Y30895181D02*
X59478571Y30847562D01*
X59478571Y30847562D02*
X59430952Y30799943D01*
X59430952Y30799943D02*
X59335714Y30657086D01*
X59335714Y30657086D02*
X59288095Y30466610D01*
X59288095Y30466610D02*
X59288095Y30085658D01*
X59288095Y30085658D02*
X59335714Y29990420D01*
X59335714Y29990420D02*
X59383333Y29942800D01*
X59383333Y29942800D02*
X59478571Y29895181D01*
X59478571Y29895181D02*
X59669047Y29895181D01*
X59669047Y29895181D02*
X59764285Y29942800D01*
X59764285Y29942800D02*
X59811904Y29990420D01*
X59811904Y29990420D02*
X59859523Y30085658D01*
X59859523Y30085658D02*
X59859523Y30323753D01*
X59859523Y30323753D02*
X59811904Y30418991D01*
X59811904Y30418991D02*
X59764285Y30466610D01*
X59764285Y30466610D02*
X59669047Y30514229D01*
X59669047Y30514229D02*
X59478571Y30514229D01*
X59478571Y30514229D02*
X59383333Y30466610D01*
X59383333Y30466610D02*
X59335714Y30418991D01*
X59335714Y30418991D02*
X59288095Y30323753D01*
X24904761Y51099943D02*
X24809523Y51147562D01*
X24809523Y51147562D02*
X24714285Y51242800D01*
X24714285Y51242800D02*
X24571428Y51385658D01*
X24571428Y51385658D02*
X24476190Y51433277D01*
X24476190Y51433277D02*
X24380952Y51433277D01*
X24428571Y51195181D02*
X24333333Y51242800D01*
X24333333Y51242800D02*
X24238095Y51338039D01*
X24238095Y51338039D02*
X24190476Y51528515D01*
X24190476Y51528515D02*
X24190476Y51861848D01*
X24190476Y51861848D02*
X24238095Y52052324D01*
X24238095Y52052324D02*
X24333333Y52147562D01*
X24333333Y52147562D02*
X24428571Y52195181D01*
X24428571Y52195181D02*
X24619047Y52195181D01*
X24619047Y52195181D02*
X24714285Y52147562D01*
X24714285Y52147562D02*
X24809523Y52052324D01*
X24809523Y52052324D02*
X24857142Y51861848D01*
X24857142Y51861848D02*
X24857142Y51528515D01*
X24857142Y51528515D02*
X24809523Y51338039D01*
X24809523Y51338039D02*
X24714285Y51242800D01*
X24714285Y51242800D02*
X24619047Y51195181D01*
X24619047Y51195181D02*
X24428571Y51195181D01*
X25809523Y51195181D02*
X25238095Y51195181D01*
X25523809Y51195181D02*
X25523809Y52195181D01*
X25523809Y52195181D02*
X25428571Y52052324D01*
X25428571Y52052324D02*
X25333333Y51957086D01*
X25333333Y51957086D02*
X25238095Y51909467D01*
X62918095Y68775181D02*
X62918095Y67965658D01*
X62918095Y67965658D02*
X62965714Y67870420D01*
X62965714Y67870420D02*
X63013333Y67822800D01*
X63013333Y67822800D02*
X63108571Y67775181D01*
X63108571Y67775181D02*
X63299047Y67775181D01*
X63299047Y67775181D02*
X63394285Y67822800D01*
X63394285Y67822800D02*
X63441904Y67870420D01*
X63441904Y67870420D02*
X63489523Y67965658D01*
X63489523Y67965658D02*
X63489523Y68775181D01*
X64394285Y68441848D02*
X64394285Y67775181D01*
X64156190Y68822800D02*
X63918095Y68108515D01*
X63918095Y68108515D02*
X64537142Y68108515D01*
X31104761Y53249943D02*
X31009523Y53297562D01*
X31009523Y53297562D02*
X30914285Y53392800D01*
X30914285Y53392800D02*
X30771428Y53535658D01*
X30771428Y53535658D02*
X30676190Y53583277D01*
X30676190Y53583277D02*
X30580952Y53583277D01*
X30628571Y53345181D02*
X30533333Y53392800D01*
X30533333Y53392800D02*
X30438095Y53488039D01*
X30438095Y53488039D02*
X30390476Y53678515D01*
X30390476Y53678515D02*
X30390476Y54011848D01*
X30390476Y54011848D02*
X30438095Y54202324D01*
X30438095Y54202324D02*
X30533333Y54297562D01*
X30533333Y54297562D02*
X30628571Y54345181D01*
X30628571Y54345181D02*
X30819047Y54345181D01*
X30819047Y54345181D02*
X30914285Y54297562D01*
X30914285Y54297562D02*
X31009523Y54202324D01*
X31009523Y54202324D02*
X31057142Y54011848D01*
X31057142Y54011848D02*
X31057142Y53678515D01*
X31057142Y53678515D02*
X31009523Y53488039D01*
X31009523Y53488039D02*
X30914285Y53392800D01*
X30914285Y53392800D02*
X30819047Y53345181D01*
X30819047Y53345181D02*
X30628571Y53345181D01*
X31438095Y54249943D02*
X31485714Y54297562D01*
X31485714Y54297562D02*
X31580952Y54345181D01*
X31580952Y54345181D02*
X31819047Y54345181D01*
X31819047Y54345181D02*
X31914285Y54297562D01*
X31914285Y54297562D02*
X31961904Y54249943D01*
X31961904Y54249943D02*
X32009523Y54154705D01*
X32009523Y54154705D02*
X32009523Y54059467D01*
X32009523Y54059467D02*
X31961904Y53916610D01*
X31961904Y53916610D02*
X31390476Y53345181D01*
X31390476Y53345181D02*
X32009523Y53345181D01*
X62738095Y29395181D02*
X62738095Y28585658D01*
X62738095Y28585658D02*
X62785714Y28490420D01*
X62785714Y28490420D02*
X62833333Y28442800D01*
X62833333Y28442800D02*
X62928571Y28395181D01*
X62928571Y28395181D02*
X63119047Y28395181D01*
X63119047Y28395181D02*
X63214285Y28442800D01*
X63214285Y28442800D02*
X63261904Y28490420D01*
X63261904Y28490420D02*
X63309523Y28585658D01*
X63309523Y28585658D02*
X63309523Y29395181D01*
X63738095Y29299943D02*
X63785714Y29347562D01*
X63785714Y29347562D02*
X63880952Y29395181D01*
X63880952Y29395181D02*
X64119047Y29395181D01*
X64119047Y29395181D02*
X64214285Y29347562D01*
X64214285Y29347562D02*
X64261904Y29299943D01*
X64261904Y29299943D02*
X64309523Y29204705D01*
X64309523Y29204705D02*
X64309523Y29109467D01*
X64309523Y29109467D02*
X64261904Y28966610D01*
X64261904Y28966610D02*
X63690476Y28395181D01*
X63690476Y28395181D02*
X64309523Y28395181D01*
X49961905Y3197412D02*
X49961905Y4197412D01*
X49961905Y4197412D02*
X50200000Y4197412D01*
X50200000Y4197412D02*
X50342857Y4149793D01*
X50342857Y4149793D02*
X50438095Y4054555D01*
X50438095Y4054555D02*
X50485714Y3959317D01*
X50485714Y3959317D02*
X50533333Y3768841D01*
X50533333Y3768841D02*
X50533333Y3625984D01*
X50533333Y3625984D02*
X50485714Y3435508D01*
X50485714Y3435508D02*
X50438095Y3340270D01*
X50438095Y3340270D02*
X50342857Y3245031D01*
X50342857Y3245031D02*
X50200000Y3197412D01*
X50200000Y3197412D02*
X49961905Y3197412D01*
X51485714Y3197412D02*
X50914286Y3197412D01*
X51200000Y3197412D02*
X51200000Y4197412D01*
X51200000Y4197412D02*
X51104762Y4054555D01*
X51104762Y4054555D02*
X51009524Y3959317D01*
X51009524Y3959317D02*
X50914286Y3911698D01*
X52625750Y46896754D02*
X53198170Y46324334D01*
X53198170Y46324334D02*
X53299185Y46290662D01*
X53299185Y46290662D02*
X53366529Y46290662D01*
X53366529Y46290662D02*
X53467544Y46324334D01*
X53467544Y46324334D02*
X53602231Y46459021D01*
X53602231Y46459021D02*
X53635903Y46560036D01*
X53635903Y46560036D02*
X53635903Y46627380D01*
X53635903Y46627380D02*
X53602231Y46728395D01*
X53602231Y46728395D02*
X53029811Y47300815D01*
X53299185Y47570189D02*
X53770590Y48041593D01*
X53770590Y48041593D02*
X54174651Y47031441D01*
X62778095Y49135181D02*
X62778095Y48325658D01*
X62778095Y48325658D02*
X62825714Y48230420D01*
X62825714Y48230420D02*
X62873333Y48182800D01*
X62873333Y48182800D02*
X62968571Y48135181D01*
X62968571Y48135181D02*
X63159047Y48135181D01*
X63159047Y48135181D02*
X63254285Y48182800D01*
X63254285Y48182800D02*
X63301904Y48230420D01*
X63301904Y48230420D02*
X63349523Y48325658D01*
X63349523Y48325658D02*
X63349523Y49135181D01*
X63730476Y49135181D02*
X64349523Y49135181D01*
X64349523Y49135181D02*
X64016190Y48754229D01*
X64016190Y48754229D02*
X64159047Y48754229D01*
X64159047Y48754229D02*
X64254285Y48706610D01*
X64254285Y48706610D02*
X64301904Y48658991D01*
X64301904Y48658991D02*
X64349523Y48563753D01*
X64349523Y48563753D02*
X64349523Y48325658D01*
X64349523Y48325658D02*
X64301904Y48230420D01*
X64301904Y48230420D02*
X64254285Y48182800D01*
X64254285Y48182800D02*
X64159047Y48135181D01*
X64159047Y48135181D02*
X63873333Y48135181D01*
X63873333Y48135181D02*
X63778095Y48182800D01*
X63778095Y48182800D02*
X63730476Y48230420D01*
X8919047Y70268991D02*
X9061904Y70221372D01*
X9061904Y70221372D02*
X9109523Y70173753D01*
X9109523Y70173753D02*
X9157142Y70078515D01*
X9157142Y70078515D02*
X9157142Y69935658D01*
X9157142Y69935658D02*
X9109523Y69840420D01*
X9109523Y69840420D02*
X9061904Y69792800D01*
X9061904Y69792800D02*
X8966666Y69745181D01*
X8966666Y69745181D02*
X8585714Y69745181D01*
X8585714Y69745181D02*
X8585714Y70745181D01*
X8585714Y70745181D02*
X8919047Y70745181D01*
X8919047Y70745181D02*
X9014285Y70697562D01*
X9014285Y70697562D02*
X9061904Y70649943D01*
X9061904Y70649943D02*
X9109523Y70554705D01*
X9109523Y70554705D02*
X9109523Y70459467D01*
X9109523Y70459467D02*
X9061904Y70364229D01*
X9061904Y70364229D02*
X9014285Y70316610D01*
X9014285Y70316610D02*
X8919047Y70268991D01*
X8919047Y70268991D02*
X8585714Y70268991D01*
X9490476Y70745181D02*
X10157142Y70745181D01*
X10157142Y70745181D02*
X9490476Y69745181D01*
X9490476Y69745181D02*
X10157142Y69745181D01*
X11061904Y69745181D02*
X10490476Y69745181D01*
X10776190Y69745181D02*
X10776190Y70745181D01*
X10776190Y70745181D02*
X10680952Y70602324D01*
X10680952Y70602324D02*
X10585714Y70507086D01*
X10585714Y70507086D02*
X10490476Y70459467D01*
X5809048Y81366134D02*
X6570953Y81366134D01*
X6190000Y80985181D02*
X6190000Y81747086D01*
X8961905Y89545181D02*
X8961905Y90545181D01*
X8961905Y90545181D02*
X9200000Y90545181D01*
X9200000Y90545181D02*
X9342857Y90497562D01*
X9342857Y90497562D02*
X9438095Y90402324D01*
X9438095Y90402324D02*
X9485714Y90307086D01*
X9485714Y90307086D02*
X9533333Y90116610D01*
X9533333Y90116610D02*
X9533333Y89973753D01*
X9533333Y89973753D02*
X9485714Y89783277D01*
X9485714Y89783277D02*
X9438095Y89688039D01*
X9438095Y89688039D02*
X9342857Y89592800D01*
X9342857Y89592800D02*
X9200000Y89545181D01*
X9200000Y89545181D02*
X8961905Y89545181D01*
X9866667Y90545181D02*
X10485714Y90545181D01*
X10485714Y90545181D02*
X10152381Y90164229D01*
X10152381Y90164229D02*
X10295238Y90164229D01*
X10295238Y90164229D02*
X10390476Y90116610D01*
X10390476Y90116610D02*
X10438095Y90068991D01*
X10438095Y90068991D02*
X10485714Y89973753D01*
X10485714Y89973753D02*
X10485714Y89735658D01*
X10485714Y89735658D02*
X10438095Y89640420D01*
X10438095Y89640420D02*
X10390476Y89592800D01*
X10390476Y89592800D02*
X10295238Y89545181D01*
X10295238Y89545181D02*
X10009524Y89545181D01*
X10009524Y89545181D02*
X9914286Y89592800D01*
X9914286Y89592800D02*
X9866667Y89640420D01*
X13548095Y85845181D02*
X13548095Y86845181D01*
X14119523Y85845181D02*
X13690952Y86416610D01*
X14119523Y86845181D02*
X13548095Y86273753D01*
X62928095Y88435181D02*
X62928095Y87625658D01*
X62928095Y87625658D02*
X62975714Y87530420D01*
X62975714Y87530420D02*
X63023333Y87482800D01*
X63023333Y87482800D02*
X63118571Y87435181D01*
X63118571Y87435181D02*
X63309047Y87435181D01*
X63309047Y87435181D02*
X63404285Y87482800D01*
X63404285Y87482800D02*
X63451904Y87530420D01*
X63451904Y87530420D02*
X63499523Y87625658D01*
X63499523Y87625658D02*
X63499523Y88435181D01*
X64451904Y88435181D02*
X63975714Y88435181D01*
X63975714Y88435181D02*
X63928095Y87958991D01*
X63928095Y87958991D02*
X63975714Y88006610D01*
X63975714Y88006610D02*
X64070952Y88054229D01*
X64070952Y88054229D02*
X64309047Y88054229D01*
X64309047Y88054229D02*
X64404285Y88006610D01*
X64404285Y88006610D02*
X64451904Y87958991D01*
X64451904Y87958991D02*
X64499523Y87863753D01*
X64499523Y87863753D02*
X64499523Y87625658D01*
X64499523Y87625658D02*
X64451904Y87530420D01*
X64451904Y87530420D02*
X64404285Y87482800D01*
X64404285Y87482800D02*
X64309047Y87435181D01*
X64309047Y87435181D02*
X64070952Y87435181D01*
X64070952Y87435181D02*
X63975714Y87482800D01*
X63975714Y87482800D02*
X63928095Y87530420D01*
D12*
X26426667Y91495682D02*
X26426667Y90588539D01*
X26426667Y90588539D02*
X26366190Y90407111D01*
X26366190Y90407111D02*
X26245238Y90286158D01*
X26245238Y90286158D02*
X26063809Y90225682D01*
X26063809Y90225682D02*
X25942857Y90225682D01*
X26910476Y91495682D02*
X27696667Y91495682D01*
X27696667Y91495682D02*
X27273333Y91011873D01*
X27273333Y91011873D02*
X27454762Y91011873D01*
X27454762Y91011873D02*
X27575714Y90951397D01*
X27575714Y90951397D02*
X27636190Y90890920D01*
X27636190Y90890920D02*
X27696667Y90769968D01*
X27696667Y90769968D02*
X27696667Y90467587D01*
X27696667Y90467587D02*
X27636190Y90346635D01*
X27636190Y90346635D02*
X27575714Y90286158D01*
X27575714Y90286158D02*
X27454762Y90225682D01*
X27454762Y90225682D02*
X27091905Y90225682D01*
X27091905Y90225682D02*
X26970952Y90286158D01*
X26970952Y90286158D02*
X26910476Y90346635D01*
D13*
%TO.C,D2*%
X10960000Y99930000D02*
X10960000Y91040000D01*
X10960000Y91030000D02*
X17060000Y91030000D01*
X11510000Y100020000D02*
X11510000Y102620000D01*
X12700000Y100015000D02*
X12700000Y94950000D01*
X12800000Y100020000D02*
X12800000Y100020000D01*
X13180000Y94950000D02*
X13180000Y100015000D01*
X13280000Y100020000D02*
X13280000Y100020000D01*
X14820000Y100020000D02*
X14820000Y100020000D01*
X15230000Y94920000D02*
X15230000Y100020000D01*
X15340000Y100020000D02*
X15340000Y100020000D01*
X15730000Y94900000D02*
X15750000Y100020000D01*
X16630000Y100020000D02*
X11510000Y100020000D01*
X16630000Y100020000D02*
X16630000Y102620000D01*
X17060000Y99930000D02*
X10970000Y99930000D01*
X17060000Y91030000D02*
X17060000Y99930000D01*
X11510000Y102620000D02*
G75*
G02*
X16630000Y102620000I2560000J0D01*
G01*
D14*
%TO.C,G\u002A\u002A\u002A*%
G36*
X45687214Y39633513D02*
G01*
X45670121Y39616420D01*
X45653028Y39633513D01*
X45670121Y39650606D01*
X45687214Y39633513D01*
G37*
G36*
X45755586Y39496770D02*
G01*
X45738493Y39479677D01*
X45721400Y39496770D01*
X45738493Y39513863D01*
X45755586Y39496770D01*
G37*
G36*
X45926514Y39325841D02*
G01*
X45909421Y39308748D01*
X45892328Y39325841D01*
X45909421Y39342934D01*
X45926514Y39325841D01*
G37*
G36*
X45823957Y39291655D02*
G01*
X45806864Y39274563D01*
X45789771Y39291655D01*
X45806864Y39308748D01*
X45823957Y39291655D01*
G37*
G36*
X46063257Y38881427D02*
G01*
X46046164Y38864334D01*
X46029071Y38881427D01*
X46046164Y38898519D01*
X46063257Y38881427D01*
G37*
G36*
X49003230Y36420054D02*
G01*
X48986137Y36402961D01*
X48969044Y36420054D01*
X48986137Y36437147D01*
X49003230Y36420054D01*
G37*
G36*
X49174159Y36351682D02*
G01*
X49157066Y36334589D01*
X49139973Y36351682D01*
X49157066Y36368775D01*
X49174159Y36351682D01*
G37*
G36*
X49242530Y36317497D02*
G01*
X49225437Y36300404D01*
X49208345Y36317497D01*
X49225437Y36334589D01*
X49242530Y36317497D01*
G37*
G36*
X49550202Y36214939D02*
G01*
X49533109Y36197847D01*
X49516016Y36214939D01*
X49533109Y36232032D01*
X49550202Y36214939D01*
G37*
G36*
X47198906Y34745189D02*
G01*
X47389254Y34659637D01*
X47543232Y34528346D01*
X47622845Y34411621D01*
X47684607Y34243328D01*
X47715216Y34052323D01*
X47710317Y33871805D01*
X47700324Y33820819D01*
X47632045Y33661713D01*
X47517610Y33506995D01*
X47376607Y33379827D01*
X47278758Y33322352D01*
X47103356Y33272477D01*
X46904526Y33262055D01*
X46713663Y33291098D01*
X46627322Y33322103D01*
X46433550Y33444223D01*
X46294977Y33606264D01*
X46213248Y33805635D01*
X46189656Y34009960D01*
X46218731Y34224966D01*
X46309235Y34418037D01*
X46464333Y34595841D01*
X46470148Y34601128D01*
X46587622Y34693709D01*
X46703098Y34748209D01*
X46841045Y34772959D01*
X46986272Y34776920D01*
X47198906Y34745189D01*
G37*
G36*
X50131359Y32454509D02*
G01*
X50114267Y32437416D01*
X50097174Y32454509D01*
X50114267Y32471602D01*
X50131359Y32454509D01*
G37*
G36*
X49857874Y30916151D02*
G01*
X49840781Y30899058D01*
X49823688Y30916151D01*
X49840781Y30933244D01*
X49857874Y30916151D01*
G37*
G36*
X49823688Y30813593D02*
G01*
X49806595Y30796501D01*
X49789502Y30813593D01*
X49806595Y30830686D01*
X49823688Y30813593D01*
G37*
G36*
X49789110Y30394008D02*
G01*
X49789502Y30386272D01*
X49763222Y30353400D01*
X49753299Y30352086D01*
X49732882Y30373030D01*
X49738223Y30386272D01*
X49768943Y30418884D01*
X49774427Y30420458D01*
X49789110Y30394008D01*
G37*
G36*
X49710405Y30261632D02*
G01*
X49704038Y30249529D01*
X49671827Y30216881D01*
X49665817Y30215343D01*
X49663485Y30237425D01*
X49669852Y30249529D01*
X49702062Y30282176D01*
X49708073Y30283715D01*
X49710405Y30261632D01*
G37*
G36*
X49780839Y39359995D02*
G01*
X49864709Y39312830D01*
X49983871Y39241934D01*
X50128346Y39153620D01*
X50288160Y39054199D01*
X50453335Y38949981D01*
X50613895Y38847278D01*
X50759864Y38752402D01*
X50881265Y38671664D01*
X50968122Y38611374D01*
X51010458Y38577845D01*
X51012738Y38573377D01*
X50977158Y38569414D01*
X50884418Y38563538D01*
X50745684Y38556336D01*
X50572122Y38548392D01*
X50404845Y38541468D01*
X49806595Y38517826D01*
X49690508Y38778381D01*
X49574421Y39038936D01*
X49653619Y39208028D01*
X49698792Y39301128D01*
X49731594Y39362543D01*
X49742236Y39377120D01*
X49780839Y39359995D01*
G37*
G36*
X48202269Y41710950D02*
G01*
X48499986Y41630356D01*
X48780598Y41495509D01*
X49034674Y41306673D01*
X49117564Y41225805D01*
X49321975Y40964509D01*
X49468188Y40676095D01*
X49556178Y40369369D01*
X49585921Y40053136D01*
X49557394Y39736202D01*
X49470570Y39427372D01*
X49325427Y39135452D01*
X49124076Y38871551D01*
X48925383Y38656939D01*
X48981032Y38515271D01*
X49011634Y38427040D01*
X49024111Y38369218D01*
X49022339Y38359262D01*
X48985437Y38347642D01*
X48893917Y38325557D01*
X48760230Y38295832D01*
X48596825Y38261296D01*
X48535560Y38248726D01*
X48333417Y38206452D01*
X48126314Y38161240D01*
X47937769Y38118337D01*
X47791304Y38082987D01*
X47783941Y38081111D01*
X47651591Y38048306D01*
X47543458Y38023444D01*
X47477545Y38010598D01*
X47468182Y38009690D01*
X47432234Y38038164D01*
X47390770Y38108291D01*
X47383660Y38124437D01*
X47343340Y38235012D01*
X47313520Y38340240D01*
X47313439Y38340609D01*
X47284874Y38405846D01*
X47221201Y38477248D01*
X47112252Y38565049D01*
X47037372Y38618471D01*
X46767181Y38843935D01*
X46553193Y39101081D01*
X46396083Y39382696D01*
X46296527Y39681564D01*
X46255200Y39990473D01*
X46258475Y40048551D01*
X47191172Y40048551D01*
X47213628Y39852042D01*
X47291417Y39665984D01*
X47419009Y39509378D01*
X47555628Y39399698D01*
X47686961Y39338715D01*
X47840062Y39316606D01*
X47947251Y39317625D01*
X48097845Y39331676D01*
X48210775Y39363690D01*
X48312857Y39419934D01*
X48472463Y39562550D01*
X48581229Y39737533D01*
X48637831Y39932041D01*
X48640946Y40133232D01*
X48589248Y40328263D01*
X48481413Y40504294D01*
X48430307Y40558902D01*
X48246831Y40692940D01*
X48046669Y40761648D01*
X47835755Y40764026D01*
X47620023Y40699070D01*
X47614707Y40696615D01*
X47435816Y40579544D01*
X47304265Y40424426D01*
X47222050Y40243388D01*
X47191172Y40048551D01*
X46258475Y40048551D01*
X46272779Y40302207D01*
X46349939Y40609553D01*
X46487356Y40905295D01*
X46685706Y41182219D01*
X46787072Y41290910D01*
X47028898Y41485531D01*
X47300760Y41624582D01*
X47593227Y41708326D01*
X47896873Y41737028D01*
X48202269Y41710950D01*
G37*
G36*
X46008686Y40737868D02*
G01*
X46016978Y40733852D01*
X46015208Y40695842D01*
X45996348Y40607859D01*
X45963924Y40485118D01*
X45941131Y40406782D01*
X45848124Y40096873D01*
X45961441Y39779728D01*
X46002319Y39667403D01*
X46044980Y39555343D01*
X46093121Y39434836D01*
X46150441Y39297172D01*
X46220636Y39133638D01*
X46307405Y38935522D01*
X46414445Y38694113D01*
X46545454Y38400698D01*
X46570993Y38343638D01*
X46644436Y38177708D01*
X46706688Y38033455D01*
X46752842Y37922538D01*
X46777989Y37856617D01*
X46781158Y37844379D01*
X46750762Y37821537D01*
X46669966Y37787173D01*
X46554360Y37747659D01*
X46516218Y37736050D01*
X46116914Y37605239D01*
X45685693Y37441842D01*
X45244607Y37255251D01*
X44815704Y37054857D01*
X44421036Y36850055D01*
X44371063Y36822291D01*
X44065308Y36643562D01*
X43752579Y36447405D01*
X43445581Y36242654D01*
X43157022Y36038145D01*
X42899610Y35842711D01*
X42686051Y35665186D01*
X42619044Y35604264D01*
X42532171Y35525372D01*
X42468433Y35472505D01*
X42440032Y35455689D01*
X42439569Y35456758D01*
X42434257Y35495450D01*
X42419455Y35590943D01*
X42396862Y35732587D01*
X42368180Y35909734D01*
X42335109Y36111735D01*
X42330968Y36136886D01*
X42263865Y36598661D01*
X42236974Y36876465D01*
X43020727Y36876465D01*
X43285666Y37104319D01*
X43431133Y37223174D01*
X43607629Y37358149D01*
X43788270Y37489020D01*
X43889488Y37558516D01*
X44178142Y37738032D01*
X44510404Y37922666D01*
X44863528Y38101049D01*
X45214768Y38261814D01*
X45541378Y38393592D01*
X45609973Y38418377D01*
X45821129Y38494870D01*
X45972269Y38555213D01*
X46068991Y38602466D01*
X46116896Y38639693D01*
X46121584Y38669954D01*
X46103099Y38688013D01*
X46098860Y38693405D01*
X46165814Y38693405D01*
X46191829Y38660213D01*
X46200000Y38659219D01*
X46233192Y38685234D01*
X46234186Y38693405D01*
X46208171Y38726597D01*
X46200000Y38727591D01*
X46166808Y38701576D01*
X46165814Y38693405D01*
X46098860Y38693405D01*
X46081957Y38714906D01*
X46123438Y38735319D01*
X46128880Y38736777D01*
X46180277Y38768091D01*
X46177070Y38815939D01*
X46155727Y38855706D01*
X46137410Y38832131D01*
X46134197Y38823784D01*
X46092287Y38787762D01*
X46048664Y38794666D01*
X46004289Y38815482D01*
X46022905Y38833252D01*
X46040117Y38840190D01*
X46087637Y38888671D01*
X46097443Y38930559D01*
X46080669Y38980593D01*
X46047863Y38979905D01*
X46012624Y38983474D01*
X46004160Y39039947D01*
X46005131Y39057896D01*
X45997635Y39131287D01*
X45966705Y39145519D01*
X45937276Y39154395D01*
X45941279Y39168239D01*
X45934598Y39207242D01*
X45918181Y39217762D01*
X45895989Y39241325D01*
X45926514Y39272610D01*
X45958558Y39307060D01*
X45935255Y39342062D01*
X45917374Y39356333D01*
X45875023Y39421425D01*
X45880451Y39463849D01*
X45886836Y39505411D01*
X45872499Y39505966D01*
X45826296Y39511150D01*
X45798658Y39532736D01*
X45777164Y39579352D01*
X45787192Y39597733D01*
X45825109Y39590344D01*
X45835431Y39573901D01*
X45850916Y39549178D01*
X45855444Y39574761D01*
X45830596Y39623865D01*
X45806864Y39638243D01*
X45761453Y39680000D01*
X45755586Y39703238D01*
X45736977Y39745226D01*
X45676077Y39767758D01*
X45565279Y39771824D01*
X45396974Y39758418D01*
X45362450Y39754514D01*
X44967679Y39675360D01*
X44589097Y39531304D01*
X44223828Y39321152D01*
X44093523Y39227948D01*
X43809615Y38975886D01*
X43559942Y38678067D01*
X43350533Y38346187D01*
X43187420Y37991942D01*
X43076631Y37627027D01*
X43024197Y37263140D01*
X43020727Y37147030D01*
X43020727Y36876465D01*
X42236974Y36876465D01*
X42224625Y37004040D01*
X42220022Y37147030D01*
X42213198Y37359044D01*
X42229535Y37669691D01*
X42273585Y37942000D01*
X42314820Y38094307D01*
X42496932Y38557849D01*
X42736457Y38989963D01*
X43028281Y39385673D01*
X43367292Y39740002D01*
X43748375Y40047974D01*
X44166417Y40304612D01*
X44616306Y40504941D01*
X44879661Y40590507D01*
X45001684Y40619880D01*
X45156445Y40649561D01*
X45330302Y40677832D01*
X45509618Y40702974D01*
X45680753Y40723268D01*
X45830069Y40736994D01*
X45943926Y40742433D01*
X46008686Y40737868D01*
G37*
G36*
X41578036Y37164727D02*
G01*
X41585326Y37106850D01*
X41601040Y36990558D01*
X41623888Y36825117D01*
X41652579Y36619791D01*
X41685824Y36383843D01*
X41722331Y36126538D01*
X41735933Y36031101D01*
X41883627Y34996047D01*
X41585145Y34699571D01*
X41411964Y34517932D01*
X41287192Y34358624D01*
X41203408Y34204508D01*
X41153191Y34038448D01*
X41129120Y33843308D01*
X41123673Y33633916D01*
X41125549Y33464857D01*
X41133319Y33343741D01*
X41150502Y33250182D01*
X41180613Y33163793D01*
X41219162Y33080444D01*
X41328153Y32907732D01*
X41475565Y32742274D01*
X41642598Y32601736D01*
X41810452Y32503782D01*
X41849284Y32488389D01*
X41957157Y32450038D01*
X42045700Y32418268D01*
X42073366Y32408200D01*
X42087852Y32394905D01*
X42088516Y32365783D01*
X42072283Y32314469D01*
X42036078Y32234600D01*
X41976825Y32119813D01*
X41891450Y31963743D01*
X41776878Y31760027D01*
X41666119Y31565458D01*
X41366228Y31036936D01*
X41095728Y30552664D01*
X40847396Y30099151D01*
X40614010Y29662905D01*
X40388345Y29230436D01*
X40163179Y28788251D01*
X39945789Y28352221D01*
X39794069Y28042765D01*
X39640489Y27725049D01*
X39487969Y27405469D01*
X39339432Y27090425D01*
X39197799Y26786316D01*
X39065992Y26499540D01*
X38946933Y26236495D01*
X38843544Y26003581D01*
X38758746Y25807195D01*
X38695461Y25653736D01*
X38656611Y25549603D01*
X38644953Y25503465D01*
X38620002Y25453171D01*
X38612231Y25447338D01*
X38585111Y25467663D01*
X38537417Y25538446D01*
X38476520Y25647744D01*
X38426209Y25748666D01*
X38245996Y26168254D01*
X38078365Y26640118D01*
X37927528Y27148675D01*
X37797694Y27678346D01*
X37693076Y28213548D01*
X37617884Y28738699D01*
X37617697Y28740329D01*
X37601898Y28938033D01*
X37592546Y29193178D01*
X37589863Y29495114D01*
X37594071Y29833195D01*
X37594478Y29851365D01*
X37602013Y30127967D01*
X37611644Y30354271D01*
X37625027Y30548348D01*
X37643816Y30728269D01*
X37668076Y30900785D01*
X38705467Y30900785D01*
X38721024Y30874349D01*
X38784939Y30831683D01*
X38882496Y30777724D01*
X39008520Y30704555D01*
X39123653Y30627784D01*
X39199256Y30567270D01*
X39293648Y30450125D01*
X39387197Y30288463D01*
X39468526Y30105320D01*
X39526263Y29923735D01*
X39534094Y29889075D01*
X39564309Y29773844D01*
X39592776Y29726752D01*
X39619208Y29747856D01*
X39643313Y29837210D01*
X39648456Y29867164D01*
X39690626Y30016869D01*
X39767106Y30191694D01*
X39864782Y30367511D01*
X39970539Y30520188D01*
X40051614Y30608971D01*
X40164583Y30697437D01*
X40289530Y30775896D01*
X40341509Y30801952D01*
X40428726Y30843160D01*
X40482583Y30873668D01*
X40490983Y30881965D01*
X40462692Y30902544D01*
X40390649Y30939425D01*
X40339688Y30962783D01*
X40134090Y31087846D01*
X39949639Y31264666D01*
X39798358Y31477243D01*
X39692275Y31709574D01*
X39650713Y31879566D01*
X39628112Y31984101D01*
X39603195Y32021154D01*
X39578123Y31990473D01*
X39555058Y31891804D01*
X39554897Y31890798D01*
X39480446Y31602802D01*
X39355867Y31361120D01*
X39179797Y31164142D01*
X38950872Y31010257D01*
X38730888Y30917809D01*
X38705467Y30900785D01*
X37668076Y30900785D01*
X37669668Y30912106D01*
X37704239Y31117931D01*
X37717095Y31189637D01*
X37886706Y31953283D01*
X38113973Y32685502D01*
X38401080Y33391249D01*
X38750212Y34075479D01*
X39163555Y34743146D01*
X39479799Y35186739D01*
X39790129Y35579640D01*
X40121435Y35962136D01*
X40462598Y36322727D01*
X40802495Y36649912D01*
X41130007Y36932190D01*
X41280652Y37049179D01*
X41567833Y37263300D01*
X41578036Y37164727D01*
G37*
G36*
X51263919Y37937212D02*
G01*
X51533593Y37927765D01*
X51757075Y37911496D01*
X51807357Y37905902D01*
X52190858Y37841607D01*
X52517047Y37749885D01*
X52784525Y37631485D01*
X52991894Y37487156D01*
X53137755Y37317646D01*
X53212365Y37154211D01*
X53233786Y36980483D01*
X53197308Y36792556D01*
X53101958Y36589204D01*
X52946764Y36369196D01*
X52730750Y36131307D01*
X52452946Y35874306D01*
X52112376Y35596967D01*
X51785186Y35353219D01*
X51651611Y35260895D01*
X51487792Y35153544D01*
X51307200Y35039371D01*
X51123306Y34926581D01*
X50949581Y34823379D01*
X50799496Y34737968D01*
X50686522Y34678555D01*
X50650464Y34662106D01*
X50579436Y34624052D01*
X50548764Y34590109D01*
X50549114Y34585633D01*
X50582667Y34560906D01*
X50666562Y34515974D01*
X50788150Y34457219D01*
X50934782Y34391024D01*
X50934992Y34390933D01*
X51112282Y34311855D01*
X51294550Y34228018D01*
X51456877Y34151006D01*
X51547836Y34106072D01*
X51784905Y33985604D01*
X51616207Y33862537D01*
X51517510Y33795365D01*
X51378616Y33707138D01*
X51219078Y33610035D01*
X51080014Y33528563D01*
X50939537Y33444714D01*
X50823845Y33369510D01*
X50744397Y33310847D01*
X50712656Y33276621D01*
X50712517Y33275374D01*
X50724929Y33225438D01*
X50757838Y33131009D01*
X50804749Y33010412D01*
X50816985Y32980543D01*
X50896668Y32775755D01*
X50988144Y32520493D01*
X51086334Y32230540D01*
X51186164Y31921680D01*
X51282556Y31609695D01*
X51370435Y31310371D01*
X51444725Y31039490D01*
X51458934Y30984522D01*
X51609954Y30331853D01*
X51717678Y29726096D01*
X51782887Y29161898D01*
X51806360Y28633902D01*
X51806460Y28598154D01*
X51809316Y28440008D01*
X51817439Y28333601D01*
X51830159Y28285528D01*
X51838164Y28285558D01*
X51859114Y28334548D01*
X51886946Y28439159D01*
X51919325Y28587264D01*
X51953914Y28766738D01*
X51988375Y28965455D01*
X52020372Y29171289D01*
X52047569Y29372113D01*
X52047620Y29372519D01*
X52066141Y29591366D01*
X52074981Y29860639D01*
X52073914Y30112786D01*
X52490431Y30112786D01*
X52519111Y30091187D01*
X52592350Y30054880D01*
X52647970Y30030897D01*
X52845721Y29914238D01*
X53010493Y29746764D01*
X53131271Y29542405D01*
X53192618Y29342017D01*
X53218051Y29225299D01*
X53241317Y29174968D01*
X53264515Y29189173D01*
X53287740Y29258179D01*
X53320010Y29369781D01*
X53361141Y29496116D01*
X53370884Y29523900D01*
X53456510Y29689817D01*
X53583449Y29846596D01*
X53731941Y29972826D01*
X53840265Y30032433D01*
X53945153Y30080478D01*
X53987228Y30115075D01*
X53969494Y30141298D01*
X53915356Y30159385D01*
X53761498Y30228917D01*
X53611304Y30351671D01*
X53477022Y30513038D01*
X53370898Y30698409D01*
X53306931Y30885152D01*
X53276144Y30989088D01*
X53245315Y31041615D01*
X53220680Y31038365D01*
X53208476Y30974968D01*
X53208075Y30954409D01*
X53176977Y30772902D01*
X53091390Y30589484D01*
X52962876Y30419906D01*
X52802998Y30279919D01*
X52651448Y30196113D01*
X52559961Y30155432D01*
X52501626Y30123637D01*
X52490431Y30112786D01*
X52073914Y30112786D01*
X52073702Y30163018D01*
X52070621Y30278441D01*
X52051996Y30630922D01*
X52018113Y30961749D01*
X51965846Y31286986D01*
X51892070Y31622697D01*
X51793658Y31984945D01*
X51667484Y32389796D01*
X51648597Y32447248D01*
X51492839Y32918588D01*
X51589517Y32994220D01*
X51659280Y33051076D01*
X51762220Y33137689D01*
X51880144Y33238695D01*
X51925803Y33278266D01*
X52058903Y33392073D01*
X52220563Y33527406D01*
X52385714Y33663379D01*
X52473082Y33734195D01*
X52595606Y33834357D01*
X52696838Y33920124D01*
X52765702Y33981909D01*
X52790953Y34009340D01*
X52766502Y34035029D01*
X52692360Y34087735D01*
X52578438Y34160977D01*
X52434648Y34248277D01*
X52346538Y34299870D01*
X52187489Y34392425D01*
X52049387Y34473882D01*
X51943125Y34537730D01*
X51879593Y34577460D01*
X51867044Y34586442D01*
X51881052Y34615757D01*
X51939941Y34673416D01*
X52032395Y34748818D01*
X52072158Y34778588D01*
X52289660Y34937727D01*
X52458760Y35060577D01*
X52586143Y35151345D01*
X52678495Y35214239D01*
X52742503Y35253465D01*
X52784851Y35273230D01*
X52812227Y35277742D01*
X52831316Y35271207D01*
X52842275Y35263167D01*
X52906698Y35195654D01*
X52998185Y35078649D01*
X53110216Y34922213D01*
X53236272Y34736410D01*
X53369834Y34531301D01*
X53504382Y34316950D01*
X53633396Y34103419D01*
X53750358Y33900770D01*
X53848747Y33719066D01*
X53871232Y33675003D01*
X54182017Y32994864D01*
X54431151Y32311472D01*
X54624153Y31608807D01*
X54692162Y31292194D01*
X54802832Y30557714D01*
X54847847Y29811380D01*
X54827912Y29057811D01*
X54743730Y28301624D01*
X54596005Y27547438D01*
X54385439Y26799869D01*
X54112737Y26063536D01*
X53788786Y25362968D01*
X53425184Y24724613D01*
X53005356Y24122620D01*
X52532979Y23560396D01*
X52011729Y23041347D01*
X51445285Y22568877D01*
X50837324Y22146393D01*
X50191522Y21777301D01*
X49635666Y21516602D01*
X49044064Y21291118D01*
X48414439Y21099094D01*
X47771787Y20947469D01*
X47276851Y20861611D01*
X46957333Y20826873D01*
X46591199Y20806094D01*
X46198734Y20799134D01*
X45800226Y20805852D01*
X45415959Y20826109D01*
X45066220Y20859764D01*
X44935128Y20877766D01*
X44161672Y21025314D01*
X43426012Y21227165D01*
X42722342Y21484961D01*
X42593405Y21539698D01*
X42319919Y21658369D01*
X42097712Y21611028D01*
X41986960Y21588972D01*
X41826086Y21558948D01*
X41632432Y21524097D01*
X41423339Y21487560D01*
X41300145Y21466551D01*
X41108894Y21432872D01*
X40941046Y21400682D01*
X40808305Y21372437D01*
X40722378Y21350593D01*
X40695485Y21339687D01*
X40673951Y21298255D01*
X40630829Y21197862D01*
X40568133Y21043713D01*
X40487875Y20841017D01*
X40392068Y20594980D01*
X40282726Y20310809D01*
X40161862Y19993711D01*
X40031489Y19648894D01*
X39893621Y19281563D01*
X39750271Y18896927D01*
X39732325Y18848587D01*
X39643643Y18610983D01*
X39561726Y18394147D01*
X39489802Y18206409D01*
X39431096Y18056100D01*
X39388833Y17951551D01*
X39366240Y17901092D01*
X39364291Y17898141D01*
X39338096Y17916296D01*
X39280392Y17983183D01*
X39197505Y18090589D01*
X39095760Y18230299D01*
X38981486Y18394098D01*
X38974763Y18403935D01*
X38860572Y18572930D01*
X38761053Y18723486D01*
X38682232Y18846218D01*
X38630133Y18931741D01*
X38610779Y18970672D01*
X38610767Y18970967D01*
X38623504Y19018363D01*
X38659246Y19119342D01*
X38714287Y19264551D01*
X38784922Y19444634D01*
X38867447Y19650237D01*
X38958155Y19872006D01*
X39053343Y20100585D01*
X39127769Y20276308D01*
X39198174Y20443209D01*
X39257802Y20588390D01*
X39301918Y20700021D01*
X39325789Y20766269D01*
X39328668Y20778323D01*
X39300296Y20779322D01*
X39224509Y20755077D01*
X39115302Y20710406D01*
X39063728Y20687125D01*
X38927831Y20625066D01*
X38756611Y20548228D01*
X38558783Y20460392D01*
X38343062Y20365341D01*
X38118161Y20266857D01*
X37892796Y20168720D01*
X37675680Y20074713D01*
X37475528Y19988618D01*
X37301055Y19914215D01*
X37160974Y19855287D01*
X37064001Y19815615D01*
X37018849Y19798982D01*
X37016716Y19798806D01*
X37018391Y19809042D01*
X37027903Y19838313D01*
X37046544Y19889903D01*
X37075606Y19967096D01*
X37116381Y20073177D01*
X37170162Y20211430D01*
X37238240Y20385139D01*
X37321908Y20597588D01*
X37422457Y20852061D01*
X37541181Y21151843D01*
X37679371Y21500217D01*
X37838319Y21900468D01*
X37921753Y22110398D01*
X39153684Y22110398D01*
X39153699Y22079226D01*
X39154467Y22079139D01*
X39197642Y22091517D01*
X39285742Y22124196D01*
X39400872Y22170487D01*
X39417977Y22177610D01*
X39752579Y22323229D01*
X40130528Y22497494D01*
X40373163Y22614149D01*
X43076364Y22614149D01*
X43094988Y22601339D01*
X43166977Y22595451D01*
X43242934Y22594052D01*
X43363944Y22596578D01*
X43528444Y22604896D01*
X43711930Y22617593D01*
X43841184Y22628572D01*
X44119806Y22661822D01*
X44431325Y22711329D01*
X44749697Y22772161D01*
X45048879Y22839391D01*
X45276985Y22900338D01*
X45439011Y22948222D01*
X45617449Y23000959D01*
X45721400Y23031683D01*
X46087204Y23155373D01*
X46479922Y23315670D01*
X46876862Y23502129D01*
X47255329Y23704308D01*
X47492921Y23846936D01*
X47755290Y24027822D01*
X48042934Y24251577D01*
X48341625Y24505265D01*
X48637138Y24775949D01*
X48915245Y25050692D01*
X49161721Y25316558D01*
X49327068Y25514805D01*
X49355976Y25555210D01*
X51450709Y25555210D01*
X51492383Y25525265D01*
X51522579Y25516179D01*
X51617918Y25478876D01*
X51707423Y25426834D01*
X51776211Y25356164D01*
X51850660Y25247581D01*
X51917629Y25124679D01*
X51963980Y25011056D01*
X51977389Y24942010D01*
X51991705Y24899122D01*
X52011575Y24899462D01*
X52042836Y24948842D01*
X52045760Y24970987D01*
X52070423Y25075500D01*
X52134815Y25200282D01*
X52224542Y25323821D01*
X52325212Y25424609D01*
X52371259Y25457425D01*
X52456968Y25513189D01*
X52512165Y25556327D01*
X52523280Y25570924D01*
X52495310Y25594577D01*
X52439548Y25614144D01*
X52335521Y25667498D01*
X52228371Y25765918D01*
X52136331Y25889521D01*
X52082080Y26004032D01*
X52049419Y26090487D01*
X52022210Y26141379D01*
X52014649Y26147113D01*
X51991376Y26118282D01*
X51953785Y26044618D01*
X51927934Y25985209D01*
X51839473Y25826721D01*
X51724236Y25702160D01*
X51597068Y25626480D01*
X51561437Y25616105D01*
X51474352Y25587099D01*
X51450709Y25555210D01*
X49355976Y25555210D01*
X49697306Y26032284D01*
X50002166Y26558950D01*
X50244622Y27102235D01*
X50427643Y27669569D01*
X50554203Y28268385D01*
X50612655Y28729768D01*
X50632736Y29099375D01*
X50622043Y29474531D01*
X50579131Y29867642D01*
X50502552Y30291112D01*
X50390859Y30757345D01*
X50364778Y30854616D01*
X50260516Y31237497D01*
X50067741Y30856279D01*
X49967391Y30666519D01*
X49888561Y30536286D01*
X49832103Y30466659D01*
X49798866Y30458719D01*
X49789502Y30503073D01*
X49810760Y30545569D01*
X49832234Y30548654D01*
X49863512Y30569301D01*
X49866823Y30617026D01*
X49874384Y30676689D01*
X49896120Y30693943D01*
X49918267Y30718964D01*
X49913201Y30746998D01*
X49910494Y30782330D01*
X49932446Y30775575D01*
X49957732Y30774441D01*
X49950220Y30807985D01*
X49942053Y30887511D01*
X49949168Y30919017D01*
X49972347Y30953503D01*
X49998850Y30927563D01*
X50023659Y30903938D01*
X50028279Y30922255D01*
X50006598Y30977636D01*
X49978269Y31013079D01*
X49952449Y31049141D01*
X49952145Y31052894D01*
X50062988Y31052894D01*
X50080081Y31035801D01*
X50097174Y31052894D01*
X50080081Y31069986D01*
X50062988Y31052894D01*
X49952145Y31052894D01*
X49948540Y31097396D01*
X49958472Y31138358D01*
X49994616Y31138358D01*
X50007125Y31110219D01*
X50017407Y31115567D01*
X50021429Y31155451D01*
X50097174Y31155451D01*
X50114267Y31138358D01*
X50131359Y31155451D01*
X50114267Y31172544D01*
X50097174Y31155451D01*
X50021429Y31155451D01*
X50021498Y31156138D01*
X50017407Y31161148D01*
X49997084Y31156456D01*
X49994616Y31138358D01*
X49958472Y31138358D01*
X49967836Y31176980D01*
X49983324Y31223822D01*
X50062988Y31223822D01*
X50080081Y31206729D01*
X50097174Y31223822D01*
X50080081Y31240915D01*
X50062988Y31223822D01*
X49983324Y31223822D01*
X49994900Y31258832D01*
X50027731Y31367254D01*
X50044635Y31450116D01*
X50043416Y31484226D01*
X50045646Y31512906D01*
X50053696Y31514401D01*
X50079332Y31543218D01*
X50087830Y31583511D01*
X50080302Y31631042D01*
X50063252Y31634214D01*
X50056586Y31647770D01*
X50078063Y31704692D01*
X50085891Y31720890D01*
X50117435Y31811766D01*
X50122039Y31887940D01*
X50121373Y31890756D01*
X50118502Y31948390D01*
X50130017Y31965723D01*
X50145501Y32001958D01*
X50159170Y32085202D01*
X50169953Y32196407D01*
X50176780Y32316529D01*
X50178578Y32426522D01*
X50174276Y32507341D01*
X50162805Y32539939D01*
X50162313Y32539973D01*
X50132091Y32565935D01*
X50131359Y32573086D01*
X50155670Y32593632D01*
X50174092Y32589830D01*
X50209178Y32604709D01*
X50221754Y32659275D01*
X50214394Y32723544D01*
X50194097Y32745087D01*
X50178449Y32723306D01*
X50185902Y32705620D01*
X50190059Y32682335D01*
X50169167Y32691570D01*
X50145905Y32727054D01*
X50166828Y32763726D01*
X50190217Y32819583D01*
X50185368Y32843227D01*
X50191666Y32882799D01*
X50208064Y32893401D01*
X50232502Y32915935D01*
X50205411Y32942842D01*
X50178750Y32973490D01*
X50211304Y32994632D01*
X50247612Y33040098D01*
X50244987Y33082488D01*
X50221959Y33125540D01*
X50175254Y33132373D01*
X50090461Y33102975D01*
X50045271Y33082308D01*
X49988534Y33060229D01*
X49880663Y33022246D01*
X49735687Y32973166D01*
X49567633Y32917790D01*
X49515393Y32900855D01*
X49324782Y32840922D01*
X49190281Y32802921D01*
X49103851Y32785120D01*
X49057455Y32785786D01*
X49043589Y32799143D01*
X49046233Y32845924D01*
X49059982Y32948889D01*
X49083108Y33097065D01*
X49113885Y33279479D01*
X49150586Y33485158D01*
X49157377Y33522122D01*
X49200933Y33758369D01*
X49245284Y33999269D01*
X49287037Y34226370D01*
X49322799Y34421220D01*
X49346973Y34553283D01*
X49374515Y34700105D01*
X49398272Y34819391D01*
X49415290Y34896742D01*
X49421912Y34918637D01*
X49455239Y34911665D01*
X49539474Y34887220D01*
X49660776Y34849781D01*
X49805300Y34803829D01*
X49959205Y34753843D01*
X50108649Y34704303D01*
X50239788Y34659691D01*
X50338780Y34624484D01*
X50379206Y34608818D01*
X50425647Y34604003D01*
X50438994Y34653226D01*
X50439031Y34658320D01*
X50425658Y34780084D01*
X50389581Y34943807D01*
X50336863Y35129426D01*
X50273565Y35316873D01*
X50205749Y35486084D01*
X50160768Y35579330D01*
X50055828Y35765117D01*
X49957011Y35909454D01*
X49846215Y36034829D01*
X49705338Y36163729D01*
X49658831Y36202856D01*
X49552938Y36286529D01*
X49480655Y36330000D01*
X49426518Y36340672D01*
X49389288Y36331898D01*
X49326857Y36319511D01*
X49310902Y36335436D01*
X49336942Y36367813D01*
X49345088Y36368775D01*
X49377689Y36395254D01*
X49379273Y36406618D01*
X49354268Y36429106D01*
X49326219Y36424103D01*
X49290930Y36421714D01*
X49294051Y36437538D01*
X49290967Y36468757D01*
X49278734Y36471332D01*
X49243938Y36445110D01*
X49242530Y36435129D01*
X49221512Y36414878D01*
X49207787Y36420398D01*
X49187119Y36459883D01*
X49191252Y36471332D01*
X49185549Y36513075D01*
X49174717Y36522266D01*
X49143297Y36516572D01*
X49139450Y36498989D01*
X49132461Y36471923D01*
X49111230Y36497882D01*
X49056924Y36524162D01*
X48944797Y36531831D01*
X48782412Y36522267D01*
X48577333Y36496848D01*
X48337123Y36456955D01*
X48069344Y36403965D01*
X47781561Y36339258D01*
X47481335Y36264212D01*
X47176230Y36180207D01*
X46883715Y36091765D01*
X46502568Y35959311D01*
X46125318Y35806201D01*
X45762388Y35637944D01*
X45424205Y35460047D01*
X45121192Y35278019D01*
X44863775Y35097368D01*
X44662379Y34923602D01*
X44650780Y34911972D01*
X44549450Y34791758D01*
X44444782Y34639600D01*
X44360202Y34490415D01*
X44292462Y34343510D01*
X44252309Y34222045D01*
X44231345Y34093324D01*
X44222335Y33953680D01*
X44239393Y33560506D01*
X44322534Y33174089D01*
X44469471Y32801105D01*
X44677917Y32448229D01*
X44788836Y32300673D01*
X44885174Y32188192D01*
X45017600Y32043435D01*
X45172368Y31880934D01*
X45335730Y31715221D01*
X45435862Y31616696D01*
X45756122Y31300387D01*
X46028192Y31018436D01*
X46257696Y30763028D01*
X46450257Y30526346D01*
X46611499Y30300573D01*
X46747046Y30077894D01*
X46862520Y29850492D01*
X46963547Y29610550D01*
X47046640Y29377793D01*
X47139609Y29062588D01*
X47199491Y28764465D01*
X47230566Y28455429D01*
X47237333Y28130013D01*
X47198909Y27592960D01*
X47092828Y27062609D01*
X46919544Y26539688D01*
X46679509Y26024927D01*
X46373177Y25519054D01*
X46001001Y25022797D01*
X45563434Y24536886D01*
X45060929Y24062048D01*
X44493940Y23599014D01*
X44353970Y23493901D01*
X44178091Y23366641D01*
X43963085Y23215396D01*
X43727519Y23052875D01*
X43489955Y22891788D01*
X43268959Y22744845D01*
X43101888Y22636667D01*
X43076364Y22614149D01*
X40373163Y22614149D01*
X40537096Y22692965D01*
X40957555Y22902207D01*
X41377176Y23117781D01*
X41781231Y23332250D01*
X42154992Y23538178D01*
X42456662Y23712051D01*
X42733948Y23881332D01*
X43027196Y24069403D01*
X43324223Y24267783D01*
X43612847Y24467989D01*
X43880885Y24661540D01*
X44116156Y24839956D01*
X44306477Y24994754D01*
X44336878Y25021081D01*
X44490568Y25163442D01*
X44665401Y25337720D01*
X44849643Y25531030D01*
X45031562Y25730486D01*
X45199426Y25923202D01*
X45341503Y26096293D01*
X45446060Y26236872D01*
X45452453Y26246330D01*
X45695879Y26659903D01*
X45884360Y27088206D01*
X45982668Y27399403D01*
X46023628Y27569852D01*
X46050273Y27723508D01*
X46065457Y27885090D01*
X46072033Y28079319D01*
X46072934Y28181292D01*
X46067695Y28454050D01*
X46046250Y28681779D01*
X46003592Y28886896D01*
X45934714Y29091820D01*
X45834607Y29318969D01*
X45805287Y29379469D01*
X45741018Y29504405D01*
X45673116Y29621605D01*
X45596064Y29737458D01*
X45504344Y29858355D01*
X45392439Y29990686D01*
X45254830Y30140841D01*
X45086000Y30315210D01*
X44880431Y30520184D01*
X44632605Y30762152D01*
X44503572Y30886986D01*
X43719413Y31644094D01*
X43321801Y30938265D01*
X42975565Y30320467D01*
X42662169Y29754436D01*
X42378259Y29233933D01*
X42120483Y28752717D01*
X41885487Y28304551D01*
X41669917Y27883194D01*
X41536889Y27617227D01*
X41367618Y27273303D01*
X41209077Y26946733D01*
X41063667Y26642752D01*
X40933790Y26366598D01*
X40821845Y26123504D01*
X40730234Y25918709D01*
X40661358Y25757446D01*
X40617617Y25644954D01*
X40601412Y25586466D01*
X40602661Y25579753D01*
X40639963Y25585073D01*
X40724806Y25615398D01*
X40843444Y25665416D01*
X40944764Y25711916D01*
X41424717Y25958410D01*
X41908266Y26242507D01*
X42372175Y26549639D01*
X42793210Y26865236D01*
X42824591Y26890614D01*
X42957329Y27006163D01*
X43117848Y27157462D01*
X43292470Y27330460D01*
X43467518Y27511103D01*
X43629311Y27685342D01*
X43764171Y27839124D01*
X43841184Y27934928D01*
X43908575Y28020513D01*
X43959843Y28078588D01*
X43979971Y28094771D01*
X44013827Y28074830D01*
X44083732Y28021647D01*
X44170015Y27950538D01*
X44275434Y27865633D01*
X44414625Y27759926D01*
X44564583Y27650705D01*
X44634656Y27601396D01*
X44928388Y27397543D01*
X44833018Y27259539D01*
X44497770Y26821010D01*
X44106035Y26390099D01*
X43669595Y25978134D01*
X43200233Y25596447D01*
X42832705Y25336209D01*
X42566463Y25162980D01*
X42307756Y25002715D01*
X42047571Y24850772D01*
X41776897Y24702508D01*
X41486722Y24553280D01*
X41168035Y24398447D01*
X40811823Y24233366D01*
X40409075Y24053395D01*
X39978197Y23865716D01*
X39824361Y23799338D01*
X39569583Y23152899D01*
X39485115Y22939857D01*
X39402377Y22733487D01*
X39327100Y22547906D01*
X39265008Y22397231D01*
X39221832Y22295578D01*
X39220609Y22292799D01*
X39177614Y22186842D01*
X39153684Y22110398D01*
X37921753Y22110398D01*
X38019317Y22355880D01*
X38223658Y22869737D01*
X38344324Y23173082D01*
X38690405Y24033914D01*
X39021819Y24838345D01*
X39343025Y25595616D01*
X39658478Y26314968D01*
X39972637Y27005644D01*
X40289959Y27676884D01*
X40614901Y28337929D01*
X40951921Y28998022D01*
X41305476Y29666403D01*
X41680023Y30352314D01*
X42080020Y31064996D01*
X42509924Y31813691D01*
X42521733Y31834052D01*
X42659130Y32071370D01*
X42785774Y32291018D01*
X42897498Y32485700D01*
X42990137Y32648121D01*
X43059525Y32770986D01*
X43101497Y32846999D01*
X43112239Y32868170D01*
X43108413Y32895750D01*
X43062389Y32910692D01*
X42962554Y32916068D01*
X42930374Y32916274D01*
X42632271Y32933705D01*
X42363442Y32983156D01*
X42133236Y33061565D01*
X41951001Y33165872D01*
X41840270Y33273302D01*
X41754085Y33440194D01*
X41724097Y33631326D01*
X41751748Y33829988D01*
X41784403Y33919713D01*
X41905732Y34135908D01*
X42085584Y34372947D01*
X42318913Y34626505D01*
X42600672Y34892259D01*
X42925814Y35165882D01*
X43289293Y35443050D01*
X43686061Y35719439D01*
X44111073Y35990722D01*
X44403518Y36164248D01*
X44911470Y36434553D01*
X45475398Y36694581D01*
X46083209Y36940487D01*
X46722810Y37168424D01*
X47382110Y37374550D01*
X48049014Y37555018D01*
X48711432Y37705984D01*
X49357271Y37823603D01*
X49823688Y37887642D01*
X50066742Y37909936D01*
X50349464Y37926198D01*
X50654683Y37936270D01*
X50965225Y37939994D01*
X51263919Y37937212D01*
G37*
D13*
%TO.C,A1*%
X18588000Y43740000D02*
X18588000Y41070000D01*
X18588000Y38530000D02*
X18588000Y300000D01*
X18588000Y300000D02*
X23668000Y300000D01*
X21258000Y41070000D02*
X18588000Y41070000D01*
X21258000Y38530000D02*
X18588000Y38530000D01*
X21258000Y38530000D02*
X21258000Y41070000D01*
X21258000Y38530000D02*
X21258000Y2970000D01*
X21258000Y2970000D02*
X18588000Y2970000D01*
X23668000Y8180000D02*
X31548000Y8180000D01*
X23668000Y-2240000D02*
X23668000Y8180000D01*
X31548000Y8180000D02*
X31548000Y-2240000D01*
X31548000Y-2240000D02*
X23668000Y-2240000D01*
X33958000Y41070000D02*
X33958000Y2970000D01*
X33958000Y41070000D02*
X36628000Y41070000D01*
X33958000Y2970000D02*
X36628000Y2970000D01*
X36628000Y43740000D02*
X18588000Y43740000D01*
X36628000Y300000D02*
X31548000Y300000D01*
X36628000Y300000D02*
X36628000Y43740000D01*
%TO.C,J2*%
X-6490000Y62780000D02*
X-6490000Y37260000D01*
X-6490000Y62780000D02*
X2140000Y62780000D01*
X-6490000Y62660000D02*
X2140000Y62660000D01*
X-6490000Y62541905D02*
X2140000Y62541905D01*
X-6490000Y62423810D02*
X2140000Y62423810D01*
X-6490000Y62305715D02*
X2140000Y62305715D01*
X-6490000Y62187620D02*
X2140000Y62187620D01*
X-6490000Y62069525D02*
X2140000Y62069525D01*
X-6490000Y61951430D02*
X2140000Y61951430D01*
X-6490000Y61833335D02*
X2140000Y61833335D01*
X-6490000Y61715240D02*
X2140000Y61715240D01*
X-6490000Y61597145D02*
X2140000Y61597145D01*
X-6490000Y61479050D02*
X2140000Y61479050D01*
X-6490000Y61360955D02*
X2140000Y61360955D01*
X-6490000Y61242860D02*
X2140000Y61242860D01*
X-6490000Y61124765D02*
X2140000Y61124765D01*
X-6490000Y61006670D02*
X2140000Y61006670D01*
X-6490000Y60888575D02*
X2140000Y60888575D01*
X-6490000Y60770480D02*
X2140000Y60770480D01*
X-6490000Y60652385D02*
X2140000Y60652385D01*
X-6490000Y60534290D02*
X2140000Y60534290D01*
X-6490000Y60416195D02*
X2140000Y60416195D01*
X-6490000Y60298100D02*
X2140000Y60298100D01*
X-6490000Y60180000D02*
X2140000Y60180000D01*
X-6490000Y57640000D02*
X2140000Y57640000D01*
X-6490000Y55100000D02*
X2140000Y55100000D01*
X-6490000Y52560000D02*
X2140000Y52560000D01*
X-6490000Y50020000D02*
X2140000Y50020000D01*
X-6490000Y47480000D02*
X2140000Y47480000D01*
X-6490000Y44940000D02*
X2140000Y44940000D01*
X-6490000Y42400000D02*
X2140000Y42400000D01*
X-6490000Y39860000D02*
X2140000Y39860000D01*
X-6490000Y37260000D02*
X2140000Y37260000D01*
X2140000Y62780000D02*
X2140000Y37260000D01*
X2140000Y61810000D02*
X2490000Y61810000D01*
X2140000Y61090000D02*
X2490000Y61090000D01*
X2140000Y59270000D02*
X2550000Y59270000D01*
X2140000Y58550000D02*
X2550000Y58550000D01*
X2140000Y56730000D02*
X2550000Y56730000D01*
X2140000Y56010000D02*
X2550000Y56010000D01*
X2140000Y54190000D02*
X2550000Y54190000D01*
X2140000Y53470000D02*
X2550000Y53470000D01*
X2140000Y51650000D02*
X2550000Y51650000D01*
X2140000Y50930000D02*
X2550000Y50930000D01*
X2140000Y49110000D02*
X2550000Y49110000D01*
X2140000Y48390000D02*
X2550000Y48390000D01*
X2140000Y46570000D02*
X2550000Y46570000D01*
X2140000Y45850000D02*
X2550000Y45850000D01*
X2140000Y44030000D02*
X2550000Y44030000D01*
X2140000Y43310000D02*
X2550000Y43310000D01*
X2140000Y41490000D02*
X2550000Y41490000D01*
X2140000Y40770000D02*
X2550000Y40770000D01*
X2140000Y38950000D02*
X2550000Y38950000D01*
X2140000Y38230000D02*
X2550000Y38230000D01*
X3600000Y62780000D02*
X4710000Y62780000D01*
X4710000Y62780000D02*
X4710000Y61450000D01*
D15*
%TO.C,Logo1*%
X3896872Y70864977D02*
X4000471Y70862382D01*
X4089632Y70858246D01*
X4157928Y70852563D01*
X4198934Y70845331D01*
X4207326Y70840971D01*
X4215792Y70816698D01*
X4229565Y70761426D01*
X4247450Y70680662D01*
X4268252Y70579912D01*
X4290777Y70464683D01*
X4302582Y70401902D01*
X4324849Y70282787D01*
X4345021Y70176565D01*
X4362085Y70088427D01*
X4375031Y70023566D01*
X4382845Y69987174D01*
X4384578Y69981184D01*
X4404110Y69971061D01*
X4451157Y69949662D01*
X4518997Y69919839D01*
X4600909Y69884445D01*
X4690172Y69846332D01*
X4780065Y69808353D01*
X4863865Y69773360D01*
X4934853Y69744206D01*
X4986306Y69723743D01*
X5011503Y69714823D01*
X5012604Y69714657D01*
X5032481Y69724769D01*
X5078223Y69753117D01*
X5145283Y69796723D01*
X5229116Y69852606D01*
X5325174Y69917787D01*
X5380350Y69955679D01*
X5481519Y70024725D01*
X5573370Y70086050D01*
X5651256Y70136663D01*
X5710531Y70173571D01*
X5746549Y70193782D01*
X5754623Y70196701D01*
X5773416Y70184153D01*
X5813543Y70149463D01*
X5870507Y70097063D01*
X5939815Y70031384D01*
X6016969Y69956856D01*
X6097475Y69877913D01*
X6176837Y69798983D01*
X6250560Y69724500D01*
X6314148Y69658894D01*
X6363106Y69606596D01*
X6392939Y69572039D01*
X6400058Y69560478D01*
X6390047Y69541654D01*
X6361922Y69496631D01*
X6318546Y69429787D01*
X6262782Y69345499D01*
X6197494Y69248144D01*
X6147754Y69174707D01*
X5895449Y68803667D01*
X6150445Y68185095D01*
X6595069Y68101275D01*
X7039693Y68017454D01*
X7039693Y67092006D01*
X6595069Y67008186D01*
X6150445Y66924365D01*
X6022947Y66615080D01*
X5895449Y66305794D01*
X6147754Y65934754D01*
X6218004Y65830843D01*
X6280728Y65736913D01*
X6333062Y65657348D01*
X6372143Y65596530D01*
X6395107Y65558843D01*
X6400058Y65548579D01*
X6387324Y65530090D01*
X6352118Y65490580D01*
X6298938Y65434478D01*
X6232282Y65366213D01*
X6156646Y65290214D01*
X6076528Y65210908D01*
X5996426Y65132725D01*
X5920836Y65060093D01*
X5854255Y64997441D01*
X5801182Y64949197D01*
X5766113Y64919790D01*
X5754377Y64912759D01*
X5732740Y64922877D01*
X5685338Y64951241D01*
X5616807Y64994871D01*
X5531785Y65050782D01*
X5434907Y65115994D01*
X5379650Y65153781D01*
X5278752Y65222657D01*
X5187701Y65283860D01*
X5111030Y65334422D01*
X5053272Y65371372D01*
X5018957Y65391742D01*
X5011746Y65394803D01*
X4991252Y65387864D01*
X4943487Y65368949D01*
X4875168Y65340913D01*
X4793011Y65306609D01*
X4703730Y65268891D01*
X4614042Y65230613D01*
X4530662Y65194630D01*
X4460306Y65163794D01*
X4409690Y65140961D01*
X4385529Y65128983D01*
X4384578Y65128276D01*
X4379964Y65109469D01*
X4369672Y65059382D01*
X4354713Y64983207D01*
X4336099Y64886135D01*
X4314841Y64773357D01*
X4302582Y64707558D01*
X4279638Y64587050D01*
X4257805Y64478203D01*
X4238278Y64386524D01*
X4222252Y64317519D01*
X4210921Y64276696D01*
X4207326Y64268489D01*
X4182994Y64260452D01*
X4128041Y64253967D01*
X4048892Y64249030D01*
X3951974Y64245636D01*
X3843713Y64243782D01*
X3730535Y64243462D01*
X3618865Y64244673D01*
X3515132Y64247410D01*
X3425759Y64251669D01*
X3357174Y64257445D01*
X3315803Y64264733D01*
X3307190Y64269105D01*
X3296867Y64295236D01*
X3282108Y64350607D01*
X3264648Y64427893D01*
X3246220Y64519770D01*
X3240259Y64551842D01*
X3211934Y64706476D01*
X3189124Y64828625D01*
X3170920Y64922327D01*
X3156417Y64991616D01*
X3144708Y65040529D01*
X3134885Y65073103D01*
X3126044Y65093372D01*
X3117276Y65105374D01*
X3115543Y65107053D01*
X3087629Y65123816D01*
X3033305Y65149386D01*
X2959223Y65181212D01*
X2872035Y65216740D01*
X2778392Y65253417D01*
X2684948Y65288689D01*
X2598353Y65320004D01*
X2525260Y65344807D01*
X2472322Y65360546D01*
X2446189Y65364668D01*
X2445274Y65364324D01*
X2423914Y65350359D01*
X2376916Y65318678D01*
X2309173Y65272609D01*
X2225577Y65215482D01*
X2131018Y65150627D01*
X2104146Y65132157D01*
X2006725Y65066301D01*
X1917837Y65008350D01*
X1842588Y64961462D01*
X1786080Y64928793D01*
X1753419Y64913500D01*
X1749407Y64912759D01*
X1728316Y64925608D01*
X1686536Y64961112D01*
X1628555Y65014707D01*
X1558865Y65081829D01*
X1481955Y65157913D01*
X1402317Y65238396D01*
X1324439Y65318713D01*
X1252814Y65394301D01*
X1191930Y65460595D01*
X1146279Y65513031D01*
X1120350Y65547045D01*
X1116117Y65556455D01*
X1126088Y65578357D01*
X1152980Y65623200D01*
X1192264Y65683679D01*
X1223883Y65730211D01*
X1281902Y65814525D01*
X1350216Y65914374D01*
X1418421Y66014527D01*
X1454925Y66068373D01*
X1578200Y66250629D01*
X1495480Y66403619D01*
X1459241Y66473318D01*
X1431074Y66532586D01*
X1415009Y66572689D01*
X1412774Y66582897D01*
X1429278Y66595171D01*
X1475918Y66619387D01*
X1548391Y66653737D01*
X1642394Y66696412D01*
X1753626Y66745606D01*
X1877785Y66799510D01*
X2010568Y66856316D01*
X2147673Y66914218D01*
X2284798Y66971407D01*
X2417642Y67026076D01*
X2541902Y67076416D01*
X2653275Y67120620D01*
X2747461Y67156881D01*
X2820156Y67183391D01*
X2867059Y67198342D01*
X2883167Y67200746D01*
X2903714Y67181689D01*
X2937067Y67139964D01*
X2976298Y67084294D01*
X2979401Y67079622D01*
X3094577Y66935736D01*
X3228947Y66819717D01*
X3378216Y66732570D01*
X3538087Y66675301D01*
X3704263Y66648914D01*
X3872448Y66654415D01*
X4038345Y66692810D01*
X4197658Y66765105D01*
X4232513Y66786374D01*
X4373263Y66897004D01*
X4486286Y67027698D01*
X4570997Y67173936D01*
X4626806Y67331192D01*
X4653126Y67494943D01*
X4649370Y67660667D01*
X4614950Y67823838D01*
X4549277Y67979935D01*
X4451765Y68124433D01*
X4412187Y68169131D01*
X4288297Y68282888D01*
X4157876Y68365782D01*
X4011685Y68422644D01*
X3866912Y68454313D01*
X3704140Y68462131D01*
X3540560Y68436062D01*
X3381702Y68378755D01*
X3233094Y68292856D01*
X3100265Y68181014D01*
X2988744Y68045877D01*
X2976989Y68028117D01*
X2938492Y67971850D01*
X2905137Y67929077D01*
X2883840Y67908628D01*
X2883167Y67908331D01*
X2860129Y67912721D01*
X2807843Y67930124D01*
X2730610Y67958732D01*
X2632732Y67996735D01*
X2518509Y68042326D01*
X2392242Y68093697D01*
X2258233Y68149038D01*
X2120782Y68206542D01*
X1984192Y68264399D01*
X1852763Y68320802D01*
X1730795Y68373942D01*
X1622591Y68422010D01*
X1532451Y68463199D01*
X1464677Y68495699D01*
X1423570Y68517703D01*
X1412774Y68526564D01*
X1421181Y68553640D01*
X1443728Y68604303D01*
X1476387Y68669817D01*
X1495480Y68705841D01*
X1578200Y68858832D01*
X1454925Y69041088D01*
X1391772Y69134125D01*
X1322273Y69235985D01*
X1256835Y69331438D01*
X1223883Y69379250D01*
X1178727Y69446495D01*
X1142943Y69503436D01*
X1121062Y69542646D01*
X1116437Y69555381D01*
X1128915Y69573917D01*
X1163748Y69614941D01*
X1217322Y69674475D01*
X1286017Y69748542D01*
X1366219Y69833165D01*
X1417714Y69886685D01*
X1509714Y69980319D01*
X1592001Y70061241D01*
X1661055Y70126177D01*
X1713356Y70171858D01*
X1745384Y70195011D01*
X1751884Y70197232D01*
X1776606Y70186924D01*
X1826595Y70158439D01*
X1896788Y70114937D01*
X1982125Y70059577D01*
X2077544Y69995520D01*
X2104146Y69977303D01*
X2200833Y69910927D01*
X2287883Y69851378D01*
X2360405Y69801984D01*
X2413507Y69766075D01*
X2442297Y69746981D01*
X2445274Y69745136D01*
X2468218Y69747895D01*
X2518664Y69762538D01*
X2589959Y69786513D01*
X2675453Y69817266D01*
X2768493Y69852244D01*
X2862426Y69888893D01*
X2950601Y69924661D01*
X3026366Y69956994D01*
X3083069Y69983338D01*
X3114057Y70001142D01*
X3115543Y70002407D01*
X3124399Y70013294D01*
X3133157Y70031682D01*
X3142723Y70061606D01*
X3154004Y70107103D01*
X3167907Y70172209D01*
X3185337Y70260961D01*
X3207202Y70377393D01*
X3234409Y70525542D01*
X3240259Y70557618D01*
X3258626Y70652686D01*
X3276595Y70735565D01*
X3292431Y70798930D01*
X3304400Y70835458D01*
X3307190Y70840356D01*
X3331928Y70848427D01*
X3387210Y70854987D01*
X3466611Y70860033D01*
X3563704Y70863559D01*
X3672062Y70865561D01*
X3785260Y70866036D01*
X3896872Y70864977D01*
G36*
X3896872Y70864977D02*
G01*
X4000471Y70862382D01*
X4089632Y70858246D01*
X4157928Y70852563D01*
X4198934Y70845331D01*
X4207326Y70840971D01*
X4215792Y70816698D01*
X4229565Y70761426D01*
X4247450Y70680662D01*
X4268252Y70579912D01*
X4290777Y70464683D01*
X4302582Y70401902D01*
X4324849Y70282787D01*
X4345021Y70176565D01*
X4362085Y70088427D01*
X4375031Y70023566D01*
X4382845Y69987174D01*
X4384578Y69981184D01*
X4404110Y69971061D01*
X4451157Y69949662D01*
X4518997Y69919839D01*
X4600909Y69884445D01*
X4690172Y69846332D01*
X4780065Y69808353D01*
X4863865Y69773360D01*
X4934853Y69744206D01*
X4986306Y69723743D01*
X5011503Y69714823D01*
X5012604Y69714657D01*
X5032481Y69724769D01*
X5078223Y69753117D01*
X5145283Y69796723D01*
X5229116Y69852606D01*
X5325174Y69917787D01*
X5380350Y69955679D01*
X5481519Y70024725D01*
X5573370Y70086050D01*
X5651256Y70136663D01*
X5710531Y70173571D01*
X5746549Y70193782D01*
X5754623Y70196701D01*
X5773416Y70184153D01*
X5813543Y70149463D01*
X5870507Y70097063D01*
X5939815Y70031384D01*
X6016969Y69956856D01*
X6097475Y69877913D01*
X6176837Y69798983D01*
X6250560Y69724500D01*
X6314148Y69658894D01*
X6363106Y69606596D01*
X6392939Y69572039D01*
X6400058Y69560478D01*
X6390047Y69541654D01*
X6361922Y69496631D01*
X6318546Y69429787D01*
X6262782Y69345499D01*
X6197494Y69248144D01*
X6147754Y69174707D01*
X5895449Y68803667D01*
X6150445Y68185095D01*
X6595069Y68101275D01*
X7039693Y68017454D01*
X7039693Y67092006D01*
X6595069Y67008186D01*
X6150445Y66924365D01*
X6022947Y66615080D01*
X5895449Y66305794D01*
X6147754Y65934754D01*
X6218004Y65830843D01*
X6280728Y65736913D01*
X6333062Y65657348D01*
X6372143Y65596530D01*
X6395107Y65558843D01*
X6400058Y65548579D01*
X6387324Y65530090D01*
X6352118Y65490580D01*
X6298938Y65434478D01*
X6232282Y65366213D01*
X6156646Y65290214D01*
X6076528Y65210908D01*
X5996426Y65132725D01*
X5920836Y65060093D01*
X5854255Y64997441D01*
X5801182Y64949197D01*
X5766113Y64919790D01*
X5754377Y64912759D01*
X5732740Y64922877D01*
X5685338Y64951241D01*
X5616807Y64994871D01*
X5531785Y65050782D01*
X5434907Y65115994D01*
X5379650Y65153781D01*
X5278752Y65222657D01*
X5187701Y65283860D01*
X5111030Y65334422D01*
X5053272Y65371372D01*
X5018957Y65391742D01*
X5011746Y65394803D01*
X4991252Y65387864D01*
X4943487Y65368949D01*
X4875168Y65340913D01*
X4793011Y65306609D01*
X4703730Y65268891D01*
X4614042Y65230613D01*
X4530662Y65194630D01*
X4460306Y65163794D01*
X4409690Y65140961D01*
X4385529Y65128983D01*
X4384578Y65128276D01*
X4379964Y65109469D01*
X4369672Y65059382D01*
X4354713Y64983207D01*
X4336099Y64886135D01*
X4314841Y64773357D01*
X4302582Y64707558D01*
X4279638Y64587050D01*
X4257805Y64478203D01*
X4238278Y64386524D01*
X4222252Y64317519D01*
X4210921Y64276696D01*
X4207326Y64268489D01*
X4182994Y64260452D01*
X4128041Y64253967D01*
X4048892Y64249030D01*
X3951974Y64245636D01*
X3843713Y64243782D01*
X3730535Y64243462D01*
X3618865Y64244673D01*
X3515132Y64247410D01*
X3425759Y64251669D01*
X3357174Y64257445D01*
X3315803Y64264733D01*
X3307190Y64269105D01*
X3296867Y64295236D01*
X3282108Y64350607D01*
X3264648Y64427893D01*
X3246220Y64519770D01*
X3240259Y64551842D01*
X3211934Y64706476D01*
X3189124Y64828625D01*
X3170920Y64922327D01*
X3156417Y64991616D01*
X3144708Y65040529D01*
X3134885Y65073103D01*
X3126044Y65093372D01*
X3117276Y65105374D01*
X3115543Y65107053D01*
X3087629Y65123816D01*
X3033305Y65149386D01*
X2959223Y65181212D01*
X2872035Y65216740D01*
X2778392Y65253417D01*
X2684948Y65288689D01*
X2598353Y65320004D01*
X2525260Y65344807D01*
X2472322Y65360546D01*
X2446189Y65364668D01*
X2445274Y65364324D01*
X2423914Y65350359D01*
X2376916Y65318678D01*
X2309173Y65272609D01*
X2225577Y65215482D01*
X2131018Y65150627D01*
X2104146Y65132157D01*
X2006725Y65066301D01*
X1917837Y65008350D01*
X1842588Y64961462D01*
X1786080Y64928793D01*
X1753419Y64913500D01*
X1749407Y64912759D01*
X1728316Y64925608D01*
X1686536Y64961112D01*
X1628555Y65014707D01*
X1558865Y65081829D01*
X1481955Y65157913D01*
X1402317Y65238396D01*
X1324439Y65318713D01*
X1252814Y65394301D01*
X1191930Y65460595D01*
X1146279Y65513031D01*
X1120350Y65547045D01*
X1116117Y65556455D01*
X1126088Y65578357D01*
X1152980Y65623200D01*
X1192264Y65683679D01*
X1223883Y65730211D01*
X1281902Y65814525D01*
X1350216Y65914374D01*
X1418421Y66014527D01*
X1454925Y66068373D01*
X1578200Y66250629D01*
X1495480Y66403619D01*
X1459241Y66473318D01*
X1431074Y66532586D01*
X1415009Y66572689D01*
X1412774Y66582897D01*
X1429278Y66595171D01*
X1475918Y66619387D01*
X1548391Y66653737D01*
X1642394Y66696412D01*
X1753626Y66745606D01*
X1877785Y66799510D01*
X2010568Y66856316D01*
X2147673Y66914218D01*
X2284798Y66971407D01*
X2417642Y67026076D01*
X2541902Y67076416D01*
X2653275Y67120620D01*
X2747461Y67156881D01*
X2820156Y67183391D01*
X2867059Y67198342D01*
X2883167Y67200746D01*
X2903714Y67181689D01*
X2937067Y67139964D01*
X2976298Y67084294D01*
X2979401Y67079622D01*
X3094577Y66935736D01*
X3228947Y66819717D01*
X3378216Y66732570D01*
X3538087Y66675301D01*
X3704263Y66648914D01*
X3872448Y66654415D01*
X4038345Y66692810D01*
X4197658Y66765105D01*
X4232513Y66786374D01*
X4373263Y66897004D01*
X4486286Y67027698D01*
X4570997Y67173936D01*
X4626806Y67331192D01*
X4653126Y67494943D01*
X4649370Y67660667D01*
X4614950Y67823838D01*
X4549277Y67979935D01*
X4451765Y68124433D01*
X4412187Y68169131D01*
X4288297Y68282888D01*
X4157876Y68365782D01*
X4011685Y68422644D01*
X3866912Y68454313D01*
X3704140Y68462131D01*
X3540560Y68436062D01*
X3381702Y68378755D01*
X3233094Y68292856D01*
X3100265Y68181014D01*
X2988744Y68045877D01*
X2976989Y68028117D01*
X2938492Y67971850D01*
X2905137Y67929077D01*
X2883840Y67908628D01*
X2883167Y67908331D01*
X2860129Y67912721D01*
X2807843Y67930124D01*
X2730610Y67958732D01*
X2632732Y67996735D01*
X2518509Y68042326D01*
X2392242Y68093697D01*
X2258233Y68149038D01*
X2120782Y68206542D01*
X1984192Y68264399D01*
X1852763Y68320802D01*
X1730795Y68373942D01*
X1622591Y68422010D01*
X1532451Y68463199D01*
X1464677Y68495699D01*
X1423570Y68517703D01*
X1412774Y68526564D01*
X1421181Y68553640D01*
X1443728Y68604303D01*
X1476387Y68669817D01*
X1495480Y68705841D01*
X1578200Y68858832D01*
X1454925Y69041088D01*
X1391772Y69134125D01*
X1322273Y69235985D01*
X1256835Y69331438D01*
X1223883Y69379250D01*
X1178727Y69446495D01*
X1142943Y69503436D01*
X1121062Y69542646D01*
X1116437Y69555381D01*
X1128915Y69573917D01*
X1163748Y69614941D01*
X1217322Y69674475D01*
X1286017Y69748542D01*
X1366219Y69833165D01*
X1417714Y69886685D01*
X1509714Y69980319D01*
X1592001Y70061241D01*
X1661055Y70126177D01*
X1713356Y70171858D01*
X1745384Y70195011D01*
X1751884Y70197232D01*
X1776606Y70186924D01*
X1826595Y70158439D01*
X1896788Y70114937D01*
X1982125Y70059577D01*
X2077544Y69995520D01*
X2104146Y69977303D01*
X2200833Y69910927D01*
X2287883Y69851378D01*
X2360405Y69801984D01*
X2413507Y69766075D01*
X2442297Y69746981D01*
X2445274Y69745136D01*
X2468218Y69747895D01*
X2518664Y69762538D01*
X2589959Y69786513D01*
X2675453Y69817266D01*
X2768493Y69852244D01*
X2862426Y69888893D01*
X2950601Y69924661D01*
X3026366Y69956994D01*
X3083069Y69983338D01*
X3114057Y70001142D01*
X3115543Y70002407D01*
X3124399Y70013294D01*
X3133157Y70031682D01*
X3142723Y70061606D01*
X3154004Y70107103D01*
X3167907Y70172209D01*
X3185337Y70260961D01*
X3207202Y70377393D01*
X3234409Y70525542D01*
X3240259Y70557618D01*
X3258626Y70652686D01*
X3276595Y70735565D01*
X3292431Y70798930D01*
X3304400Y70835458D01*
X3307190Y70840356D01*
X3331928Y70848427D01*
X3387210Y70854987D01*
X3466611Y70860033D01*
X3563704Y70863559D01*
X3672062Y70865561D01*
X3785260Y70866036D01*
X3896872Y70864977D01*
G37*
D13*
%TO.C,K1*%
X39290000Y55420000D02*
X39290000Y76560000D01*
X40980000Y59640000D02*
X40980000Y58370000D01*
X42250000Y72340000D02*
X43520000Y72340000D01*
X43770000Y60150000D02*
X46310000Y60150000D01*
X43770000Y59640000D02*
X40980000Y59640000D01*
X43770000Y59640000D02*
X43770000Y60150000D01*
X43770000Y59130000D02*
X43770000Y59640000D01*
X44790000Y70435000D02*
X42250000Y74245000D01*
X44790000Y67260000D02*
X44790000Y70435000D01*
X45550000Y59130000D02*
X44540000Y60150000D01*
X46310000Y60150000D02*
X46310000Y59640000D01*
X46310000Y59640000D02*
X46310000Y59130000D01*
X46310000Y59130000D02*
X43770000Y59130000D01*
X47330000Y74880000D02*
X44790000Y74880000D01*
X47330000Y67260000D02*
X44790000Y67260000D01*
X48600000Y59640000D02*
X46310000Y59640000D01*
X48600000Y58370000D02*
X48600000Y59640000D01*
X50290000Y76560000D02*
X39290000Y76560000D01*
X50290000Y55420000D02*
X39290000Y55420000D01*
X50290000Y55420000D02*
X50290000Y76560000D01*
X44917000Y70435000D02*
G75*
G02*
X44663000Y70435000I-127000J0D01*
G01*
X44663000Y70435000D02*
G75*
G02*
X44917000Y70435000I127000J0D01*
G01*
%TO.C,BT1*%
X38537000Y95300000D02*
X38537000Y97400000D01*
X38537000Y89850000D02*
X38537000Y91300000D01*
X41137000Y87250000D02*
X38537000Y89850000D01*
X41137000Y86450000D02*
X41137000Y87250000D01*
X49437000Y87250000D02*
X49437000Y86450000D01*
X49437000Y86450000D02*
X41137000Y86450000D01*
X52037000Y95300000D02*
X52037000Y97400000D01*
X52037000Y91300000D02*
X52037000Y89850000D01*
X52037000Y89850000D02*
X49437000Y87250000D01*
X38537000Y97350000D02*
G75*
G02*
X39987000Y98900000I1500000J50000D01*
G01*
X39872385Y98884160D02*
G75*
G02*
X40787000Y98500000I124615J-984160D01*
G01*
X49787000Y98500000D02*
G75*
G02*
X50701615Y98884160I790000J-600001D01*
G01*
X50587000Y98900000D02*
G75*
G02*
X52037000Y97350000I-49999J-1499999D01*
G01*
%TO.C,D4*%
X50780000Y64420000D02*
X50780000Y60180000D01*
X50780000Y60180000D02*
X53020000Y60180000D01*
X51900000Y65070000D02*
X51900000Y64420000D01*
X51900000Y59530000D02*
X51900000Y60180000D01*
X53020000Y64420000D02*
X50780000Y64420000D01*
X53020000Y63820000D02*
X50780000Y63820000D01*
X53020000Y63700000D02*
X50780000Y63700000D01*
X53020000Y63580000D02*
X50780000Y63580000D01*
X53020000Y60180000D02*
X53020000Y64420000D01*
D11*
%TO.C,U6*%
X55038000Y31830000D02*
X55038000Y31680000D01*
X55038000Y31830000D02*
X55188000Y31830000D01*
X55038000Y29130000D02*
X55038000Y29280000D01*
X55188000Y29130000D02*
X55038000Y29130000D01*
X57738000Y31840000D02*
X57588000Y31840000D01*
X57738000Y31830000D02*
X57738000Y31680000D01*
D13*
X57738000Y28770000D02*
X57738000Y29130000D01*
X58098000Y29130000D01*
X57738000Y28770000D01*
G36*
X57738000Y28770000D02*
G01*
X57738000Y29130000D01*
X58098000Y29130000D01*
X57738000Y28770000D01*
G37*
%TO.C,Q1*%
X13620000Y51020000D02*
X13620000Y66910000D01*
X16200000Y66910000D02*
X16200000Y69450000D01*
X18740000Y66910000D02*
X18740000Y69450000D01*
X21280000Y66910000D02*
X21280000Y69450000D01*
X23860000Y66910000D02*
X13620000Y66910000D01*
X23860000Y51020000D02*
X13620000Y51020000D01*
X23860000Y51020000D02*
X23860000Y66910000D01*
%TO.C,U4*%
X73165000Y59840000D02*
G75*
G02*
X53915000Y59840000I-9625000J0D01*
G01*
X53915000Y59840000D02*
G75*
G02*
X73165000Y59840000I9625000J0D01*
G01*
%TO.C,Q2*%
X26080000Y54780000D02*
X26080000Y70670000D01*
X28660000Y70670000D02*
X28660000Y73210000D01*
X31200000Y70670000D02*
X31200000Y73210000D01*
X33740000Y70670000D02*
X33740000Y73210000D01*
X36320000Y70670000D02*
X26080000Y70670000D01*
X36320000Y54780000D02*
X26080000Y54780000D01*
X36320000Y54780000D02*
X36320000Y70670000D01*
%TO.C,U2*%
X72985000Y20460000D02*
G75*
G02*
X53735000Y20460000I-9625000J0D01*
G01*
X53735000Y20460000D02*
G75*
G02*
X72985000Y20460000I9625000J0D01*
G01*
D16*
%TO.C,D1*%
X48200000Y6267231D02*
X53200000Y6267231D01*
X48200000Y6067231D02*
X48200000Y6267231D01*
X48200000Y2767231D02*
X48200000Y4467231D01*
X48200000Y1267231D02*
X48200000Y1067231D01*
X48200000Y1067231D02*
X53200000Y1067231D01*
X53200000Y6267231D02*
X53200000Y6067231D01*
X53200000Y4567231D02*
X53200000Y3567231D01*
X53200000Y3567231D02*
X50600000Y1067231D01*
X53200000Y3567231D02*
X53200000Y2767231D01*
X53200000Y1067231D02*
X53200000Y1267231D01*
D17*
X53608182Y707769D02*
G75*
G02*
X53408182Y707769I-100000J0D01*
G01*
X53408182Y707769D02*
G75*
G02*
X53608182Y707769I100000J0D01*
G01*
%TO.C,U7*%
X53534657Y49439860D02*
G75*
G02*
X53334657Y49439860I-100000J0D01*
G01*
X53334657Y49439860D02*
G75*
G02*
X53534657Y49439860I100000J0D01*
G01*
D13*
%TO.C,U3*%
X73025000Y40200000D02*
G75*
G02*
X53775000Y40200000I-9625000J0D01*
G01*
X53775000Y40200000D02*
G75*
G02*
X73025000Y40200000I9625000J0D01*
G01*
%TO.C,BZ1*%
X17600000Y78900000D02*
G75*
G02*
X2400000Y78900000I-7600000J0D01*
G01*
X2400000Y78900000D02*
G75*
G02*
X17600000Y78900000I7600000J0D01*
G01*
%TO.C,D3*%
X7230000Y88100000D02*
X7880000Y88100000D01*
X7880000Y89220000D02*
X7880000Y86980000D01*
X7880000Y86980000D02*
X12120000Y86980000D01*
X11280000Y86980000D02*
X11280000Y89220000D01*
X11400000Y86980000D02*
X11400000Y89220000D01*
X11520000Y86980000D02*
X11520000Y89220000D01*
X12120000Y89220000D02*
X7880000Y89220000D01*
X12120000Y86980000D02*
X12120000Y89220000D01*
X12770000Y88100000D02*
X12120000Y88100000D01*
%TO.C,U5*%
X73175000Y79500000D02*
G75*
G02*
X53925000Y79500000I-9625000J0D01*
G01*
X53925000Y79500000D02*
G75*
G02*
X73175000Y79500000I9625000J0D01*
G01*
D17*
%TO.C,J3*%
X19188000Y95050000D02*
X19188000Y95050000D01*
X19188000Y94850000D02*
X19188000Y94850000D01*
D11*
X19888000Y96650000D02*
X19888000Y89250000D01*
X19888000Y87050000D02*
X19888000Y84450000D01*
X26251000Y83100000D02*
X21988000Y83100000D01*
X32188000Y98600000D02*
X21388000Y98600000D01*
X33688000Y96650000D02*
X33688000Y83100000D01*
X33688000Y83100000D02*
X30988000Y83100000D01*
D17*
X19188000Y95050000D02*
G75*
G02*
X19188000Y94850000I0J-100000D01*
G01*
X19188000Y94850000D02*
G75*
G02*
X19188000Y95050000I0J100000D01*
G01*
%TD*%
M02*
